<svg width="17" height="15" viewBox="0 0 17 15">
  <path fill="#FFF" fill-rule="evenodd" d="M5.37003645,8.31953384 C4.72997762,8.31953384 4.21086637,9.05575961 4.21086637,9.96371049 C4.21086637,10.8716614 4.72997762,11.6078871 5.37003645,11.6078871 C6.01080882,11.6078871 6.52992008,10.8716614 6.52992008,9.96371049 C6.52992008,9.05575961 6.01080882,8.31953384 5.37003645,8.31953384 Z M8.23085678,13.4402307 L8.18072954,13.4402307 C4.81649616,13.4402307 2.19667903,13.0291865 2.19667903,9.68054674 C2.19667903,8.8785539 2.4730032,8.13502069 3.1292954,7.51571415 C4.22478069,6.48719031 6.0777046,7.03159547 8.18072954,7.03159547 L8.20570396,7.03159547 L8.23085678,7.03159547 C10.3338817,7.03159547 12.1871624,6.48719031 13.2821125,7.51571415 C13.9385831,8.13502069 14.2149073,8.8785539 14.2149073,9.68054674 C14.2149073,13.0291865 11.5952685,13.4402307 8.23085678,13.4402307 Z M15.0786656,4.04284769 C15.2106733,3.70853177 15.2172737,1.8140749 14.5131733,0 C14.5131733,0 12.8975064,0.180859431 10.4530454,1.8981106 C9.94053453,1.75378843 9.07303005,1.68071391 8.20570396,1.68071391 C7.33855627,1.68071391 6.47140857,1.75378843 5.95854092,1.8981106 C3.51407992,0.180859431 1.89876982,0 1.89876982,0 C1.19466944,1.8140749 1.20091304,3.70853177 1.33292072,4.04284769 C0.50537532,4.96175975 0,6.06701183 0,7.57782749 C0,14.141746 5.31741176,14.2477041 6.65978708,14.2477041 C6.96358312,14.2477041 7.56742903,14.2477041 8.20570396,14.249531 C8.8439789,14.2477041 9.44818159,14.2477041 9.75162084,14.2477041 C11.0941746,14.2477041 16.4117647,14.141746 16.4117647,7.57782749 C16.4117647,6.06701183 15.9060326,4.96175975 15.0786656,4.04284769 Z M11.0415499,8.31953384 C10.4011343,8.31953384 9.88166624,9.05575961 9.88166624,9.96371049 C9.88166624,10.8716614 10.4011343,11.6078871 11.0415499,11.6078871 C11.6816087,11.6078871 12.2007199,10.8716614 12.2007199,9.96371049 C12.2007199,9.05575961 11.6816087,8.31953384 11.0415499,8.31953384 L11.0415499,8.31953384 Z"/>
</svg>
