<svg width="17" height="18" viewBox="0 0 17 18">
  <path fill="#FFF" fill-rule="evenodd" d="M13.6663619,154.234172 L13.6663619,151.493877 L11.9716688,151.493877 L11.9716688,154.234172 L9.2958376,154.234172 L9.2958376,155.969691 L11.9716688,155.969691 L11.9716688,158.709986 L13.6663619,158.709986 L13.6663619,155.969691 L16.3421931,155.969691 L16.3421931,154.234172 L13.6663619,154.234172 Z M6.75379795,151.077352 C7.15695652,152.526055 6.5486509,154.042351 5.58,154.321861 C5.46939898,154.352918 5.35523018,154.369359 5.23749361,154.369359 C4.35090153,154.369359 3.47144501,153.450447 3.14677749,152.184431 C2.96482097,151.473782 2.97909207,150.850821 3.18780691,150.253437 C3.39295396,149.665187 3.76221867,149.268758 4.22602941,149.135397 C4.33663043,149.102514 4.45258312,149.086072 4.56853581,149.086072 C5.63886829,149.086072 6.32744885,149.540961 6.75379795,151.077352 Z M7.82591432,160.187918 C7.90440537,161.474029 6.83050512,162.420344 5.21965473,162.540917 C3.58382992,162.663317 2.235211,161.908823 2.15671995,160.626365 C2.11925831,160.008885 2.38327366,159.404194 2.90238491,158.923729 C3.42863171,158.435956 4.14932225,158.136351 4.93423274,158.076064 C5.02699488,158.070584 5.11975703,158.06693 5.21073529,158.06693 C6.72525575,158.06693 7.75099105,158.978535 7.82591432,160.187918 Z M1.20412404,151.956074 C1.20412404,153.32074 1.64831202,154.305419 2.52598465,154.884535 C3.2448913,155.357692 4.07796675,155.42894 4.51145141,155.42894 C4.61670077,155.42894 4.70054348,155.425286 4.75941176,155.419806 C4.75941176,155.419806 4.62205243,156.336891 5.28565857,157.244842 L5.25533248,157.243015 C4.10650895,157.243015 0.356777494,157.489641 0.356777494,160.646461 C0.356777494,163.859912 3.79968031,164.022503 4.49182864,164.022503 C4.54534527,164.022503 4.57745524,164.020676 4.57745524,164.020676 C4.58459079,164.022503 4.63453964,164.02433 4.71838235,164.02433 C5.16257033,164.02433 6.30782609,163.96587 7.37280691,163.43608 C8.75353581,162.751007 9.45460358,161.556238 9.45460358,159.888312 C9.45460358,158.275192 8.38605499,157.316089 7.60828005,156.614574 C7.1319821,156.187088 6.72168798,155.818062 6.72168798,155.459997 C6.72168798,155.094624 7.02138107,154.820595 7.4013491,154.471664 C8.01500639,153.90899 8.59476982,153.106997 8.59476982,151.592528 C8.59476982,150.262572 8.42530051,149.369236 7.38707801,148.801081 C7.49589514,148.744448 7.87764706,148.704257 8.06852302,148.676855 C8.63044757,148.598299 9.45460358,148.508783 9.45460358,148.037452 L9.45460358,147.947936 L5.3516624,147.947936 C5.31063299,147.947936 1.20412404,148.105046 1.20412404,151.956074 L1.20412404,151.956074 Z" transform="translate(0 -147)"/>
</svg>
