<svg width="16" height="17" viewBox="0 0 16 17">
  <path fill="#FFF" fill-rule="evenodd" d="M11.5952685,67.1677889 C11.5952685,65.5530247 10.3172916,64.2449909 8.74104859,64.2449909 C7.16444885,64.2449909 5.88682864,65.5530247 5.88682864,67.1677889 C5.88682864,68.7810915 7.16444885,70.0909523 8.74104859,70.0909523 C10.3172916,70.0909523 11.5952685,68.7810915 11.5952685,67.1677889 Z M15.1864124,62.3450534 C15.1864124,62.5861993 14.9941093,62.7833178 14.7586362,62.7833178 L13.4738804,62.7833178 C13.2387641,62.7833178 13.0457474,62.5861993 13.0457474,62.3450534 L13.0457474,61.0297121 C13.0457474,60.7867393 13.2387641,60.5910823 13.4738804,60.5910823 L14.7586362,60.5910823 C14.9941093,60.5910823 15.1864124,60.7867393 15.1864124,61.0297121 L15.1864124,62.3450534 Z M14.0147551,59.3124609 L3.46752046,59.3124609 C2.14280563,59.3124609 1.07033248,60.4104055 1.07033248,61.7659378 L1.07033248,64.4274945 L4.95349872,64.4274945 C5.79353133,63.2109864 7.1764009,62.4181279 8.74104859,62.4181279 C10.3055179,62.4181279 11.6883875,63.2109864 12.5280633,64.4274945 L16.4117647,64.4274945 L16.4117647,61.7659378 C16.4117647,60.4104055 15.3380428,59.3124609 14.0147551,59.3124609 Z M13.379156,67.1677889 C13.379156,69.7913468 11.3023542,71.9178152 8.74104859,71.9178152 C6.1792078,71.9178152 4.10294118,69.7913468 4.10294118,67.1677889 C4.10294118,66.8537511 4.13326726,66.548665 4.18945972,66.2545401 L1.07033248,66.2545401 L1.07033248,72.5681784 C1.07033248,73.9237107 2.14280563,75.0234822 3.46752046,75.0234822 L14.0147551,75.0234822 C15.3380428,75.0234822 16.4117647,73.9237107 16.4117647,72.5681784 L16.4117647,66.2545401 L13.2924591,66.2545401 C13.3488299,66.548665 13.379156,66.8537511 13.379156,67.1677889 L13.379156,67.1677889 Z" transform="translate(-1 -59)"/>
</svg>
