<svg width="17" height="17" viewBox="0 0 17 17">
  <g fill="#FFF" fill-rule="evenodd" transform="translate(.178 .657)">
    <path d="M.268296675 16.3277866L3.70085294 16.3277866 3.70085294 5.01767814.268296675 5.01767814.268296675 16.3277866zM3.81341624 1.87364701C3.81341624 2.84371124 3.1134188 3.63090648 1.96156266 3.63090648.878029412 3.63090648.178210358 2.84371124.178210358 1.87364701.178210358.87800671.900684783.116204862 2.0068734.116204862 3.1134188.116204862 3.79111765.87800671 3.81341624 1.87364701L3.81341624 1.87364701zM5.75482097 8.62573245C5.75482097 7.21539426 5.70986701 6.0352408 5.66491304 5.01767814L8.64525384 5.01767814 8.80384143 6.59060713 8.87145077 6.59060713C9.32295269 5.85072764 10.4294981 4.76374419 12.2813517 4.76374419 14.5393964 4.76374419 16.2331976 6.31292397 16.2331976 9.64329511L16.2331976 16.3277866 12.8004629 16.3277866 12.8004629 10.0598199C12.8004629 8.60198323 12.3036503 7.60816979 11.0615294 7.60816979 10.1132148 7.60816979 9.54914962 8.27862849 9.30065409 8.92716484 9.21003261 9.15734957 9.18737724 9.48253117 9.18737724 9.80588591L9.18737724 16.3277866 5.75482097 16.3277866 5.75482097 8.62573245"/>
  </g>
</svg>
