<svg width="17" height="14" viewBox="0 0 17 14">
  <path fill="#FFF" fill-rule="evenodd" d="M16.4117647,90.9186811 C15.8070269,91.1927106 15.1576918,91.3790506 14.4780307,91.4612594 C15.1719629,91.0356004 15.7071292,90.3596611 15.9586573,89.5540145 C15.3075384,89.9486169 14.5868478,90.2372613 13.8197762,90.3907178 C13.2061189,89.7202591 12.3302302,89.3019074 11.3615793,89.3019074 C9.50276854,89.3019074 7.99538363,90.8456066 7.99538363,92.7510247 C7.99538363,93.0214004 8.02392583,93.2844687 8.08279412,93.5365757 C5.28387468,93.3922536 2.80248721,92.0202795 1.14168798,89.934002 C0.85269821,90.4418699 0.686796675,91.0356004 0.686796675,91.667695 C0.686796675,92.8624633 1.2808312,93.9183901 2.18347826,94.5376966 C1.63225703,94.519428 1.11314578,94.3641447 0.658254476,94.106557 L0.658254476,94.1485748 C0.658254476,95.8201544 1.81956522,97.2140508 3.3590601,97.5300981 C3.07720588,97.6086532 2.77929668,97.6506711 2.47246803,97.6506711 C2.25483376,97.6506711 2.04433504,97.6305756 1.83918798,97.5885578 C2.26732097,98.958705 3.51069054,99.9561721 4.98418159,99.9835751 C3.83179028,100.909795 2.37970588,101.45968 0.802749361,101.45968 C0.531598465,101.45968 0.262231458,101.443239 0,101.412182 C1.48954604,102.389554 3.2591624,102.961362 5.16078645,102.961362 C11.3544437,102.961362 14.742046,97.7073038 14.742046,93.1492808 C14.742046,93.0013049 14.7384783,92.8515021 14.7313427,92.7035262 C15.3895972,92.2175807 15.9604412,91.6110622 16.4117647,90.9186811" transform="translate(0 -89)"/>
</svg>
