<svg xmlns="http://www.w3.org/2000/svg" width="38" height="305" viewBox="0 0 38 305">
  <path fill="#FFF" fill-rule="evenodd" d="M184.000473,15.5097653 C183.462738,15.8255047 183.033983,16.2536502 182.717794,16.7906221 C182.393002,17.3469249 182.230247,17.9454695 182.230247,18.5919836 C182.059605,20.2386972 181.886096,21.8861268 181.706851,23.5335563 C181.611492,24.4149061 182.143492,25.4322887 182.745756,26.036561 C183.285643,26.5735329 183.987568,26.9236385 184.736096,27.0353286 C184.803492,30.6008216 184.384058,34.17777 184.412021,37.7439789 C184.423492,38.9940493 184.479417,40.2498474 184.507379,41.4999178 C184.6307,46.8051995 184.751153,52.1104812 184.871605,57.4157629 C184.952624,60.9232629 185.030775,64.4300469 185.112511,67.9375469 C185.137605,69.042277 185.075945,70.1548826 185.056587,71.2596127 C185.014285,73.8327817 184.969832,76.4059507 184.92753,78.9784038 C184.843643,84.0101878 184.759756,89.0441197 184.675153,94.0751878 C184.633568,96.5559977 184.493039,99.0339437 184.384058,101.514754 C184.039907,109.295117 183.684285,117.072617 183.367379,124.853697 C183.033983,132.966984 182.639643,141.08027 182.378662,149.19642 C182.090436,158.128768 181.802209,167.058967 181.50753,175.991315 C180.981266,191.988779 180.446398,207.986244 179.877832,223.983709 C179.597492,231.86216 179.370926,239.739894 179.155115,247.621209 C179.071228,250.678369 178.990209,253.726937 179.000964,256.786244 C179.012436,259.597113 179.023907,262.405117 179.031794,265.215986 C179.03753,266.532641 178.97587,267.872207 179.059756,269.186714 C179.315002,273.166749 179.566662,277.14392 179.821907,281.123239 C180.040587,284.544108 180.490851,287.961397 180.841454,291.373674 C181.169115,294.592641 181.510398,297.808744 181.846662,301.027711 C182.012285,302.591373 182.149228,304.157183 182.300511,305.723709 C182.378662,306.564965 182.462549,307.4098 182.535681,308.254636 C182.622436,309.277746 182.686964,310.301573 182.790926,311.322535 C182.936473,312.745869 183.185266,314.147007 183.448398,315.551009 C183.709379,316.476749 184.176851,317.279343 184.857266,317.961655 C185.879681,318.982617 187.282813,319.564695 188.728247,319.564695 C189.716964,319.561831 190.638285,319.312676 191.492209,318.817946 C192.620738,318.157829 193.769341,316.8827 194.007379,315.551009 C194.674171,311.800798 195.466436,308.067054 195.89519,304.283192 C196.09953,302.465364 196.30387,300.650399 196.511077,298.835434 C197.129832,293.350446 197.749304,287.866174 198.368058,282.379038 C199.138096,275.563791 199.698775,268.731362 200.311794,261.898932 C200.498926,259.814765 200.686058,257.730599 200.873907,255.646432 C200.997945,257.02108 201.119115,258.395728 201.250322,259.770376 C201.471153,262.097254 201.888436,264.426995 202.208209,266.742418 C203.269341,274.464073 204.387115,282.174988 205.560096,289.880176 C205.985983,292.662406 206.41187,295.445352 206.857115,298.225434 C207.100888,299.086737 207.53753,299.83635 208.167756,300.471408 C209.117039,301.419343 210.422662,301.959178 211.769153,301.959178 C213.113492,301.959178 214.419115,301.419343 215.368398,300.471408 C216.245266,299.592923 216.981605,298.152406 216.861153,296.874413 C216.091115,288.753251 215.062964,280.656432 214.088587,272.556749 C213.606775,268.560246 213.127832,264.563744 212.648888,260.564378 C212.509077,259.3902 212.42519,258.209577 212.324096,257.032535 C212.091794,254.240998 211.858775,251.45304 211.626473,248.664366 C211.523228,247.445082 211.371945,246.222934 211.338247,245.000786 L211.16187,238.590775 C211.08587,235.841479 211.010587,233.089319 210.934587,230.340739 C210.909492,229.394953 210.859304,228.449883 210.878662,227.507676 C210.974021,222.705716 211.066511,217.900892 211.159002,213.098932 C211.214926,210.181385 211.226398,207.258826 211.338247,204.341995 C211.708209,194.634261 212.08319,184.930106 212.453153,175.222371 C212.685454,169.130962 212.83387,163.037406 213.007379,156.945998 C213.273379,147.512477 213.539379,138.081819 213.802511,128.648298 C213.856285,126.696585 213.786021,124.736279 213.771681,122.78385 C213.727228,117.374754 213.682058,111.966373 213.637605,106.554413 C213.595304,101.475376 213.556587,96.3941901 213.514285,91.3151526 C213.497794,89.5560329 213.486322,87.8162441 213.377341,86.0628521 C212.766473,76.3637089 212.156322,66.6617019 211.545454,56.9604108 C211.354738,53.9590962 211.007719,50.9663732 210.674322,47.97723 C210.285002,44.4840493 209.811794,40.9965962 209.167945,37.5420775 C208.88187,36.0156455 208.548473,34.5021009 208.10036,33.0171948 C207.61353,31.4034155 206.983304,29.8347418 206.450587,28.2374296 C205.97236,26.8055047 205.162888,25.617007 203.832171,24.8394718 C202.944549,24.3254108 201.986662,24.0676643 200.958511,24.0619366 C199.931077,24.0676643 198.97319,24.3254108 198.085568,24.8394718 C197.494058,25.2647535 196.589945,25.7795305 196.158322,26.285716 C196.062964,26.3945423 195.970473,26.5062324 195.875115,26.6186385 C195.169605,27.3260094 194.682058,28.1622535 194.411039,29.124507 C193.914888,30.3602582 193.873304,31.755669 193.884058,33.0759038 C193.892662,34.2758568 193.775077,35.4815376 193.701945,36.6779108 C193.58436,38.5551643 193.494738,40.428838 193.416587,42.3082394 C193.346322,44.0115141 193.231605,45.7198005 193.234473,47.425939 L193.243077,55.1869718 C193.248096,58.7782394 193.433077,62.3580516 193.581492,65.9457394 C193.719153,69.2993075 193.831002,72.6578873 194.007379,76.0114554 C194.273379,80.9866784 194.533643,85.9590376 194.797492,90.9349765 C194.953794,93.9133803 195.186813,96.8946479 195.25636,99.8759155 C195.475039,109.13331 195.693719,118.392852 195.908813,127.650246 C195.959719,129.767347 195.892322,131.884448 195.858624,133.998685 C195.774738,139.550258 195.690851,145.104695 195.606247,150.656268 C195.547454,154.479507 195.488662,158.299167 195.432738,162.119542 C195.396888,164.519448 195.217643,166.92723 195.107945,169.324272 C194.651228,179.364214 194.195228,189.404871 193.729907,199.444812 C193.413719,206.297289 192.864511,213.143322 192.422134,219.987207 C192.072247,225.367664 191.72236,230.748838 191.374624,236.127148 C191.248436,238.087453 191.153794,240.050622 190.979568,242.008063 C190.398096,248.591338 189.813756,255.172465 189.230134,261.754308 C189.172775,258.625552 189.0767,255.495364 189.13119,252.367324 C189.223681,247.185188 189.313304,242.005915 189.405794,236.823063 C189.548473,228.850106 189.800851,220.879296 190.013794,212.905622 C190.403115,198.460364 190.747266,184.012958 191.058436,169.564836 C191.402587,153.520117 191.786171,137.475399 192.260096,121.429965 C192.514624,112.754648 192.780624,104.085059 193.027266,95.4097418 C193.122624,92.0647653 193.040888,88.7026056 193.049492,85.3583451 C193.058096,80.1532981 193.071719,74.9461033 193.080322,69.7410563 C193.08319,67.8559272 193.012926,65.9822535 192.946247,64.0971244 L192.399907,49.0032042 C192.279454,45.6274413 192.156134,42.2523944 192.035681,38.8766315 C191.901605,35.0813146 192.20919,31.2974531 192.170473,27.4992723 C192.14753,25.2396948 191.906624,22.9350117 191.307228,20.7534742 C191.013266,19.6766667 190.531454,18.6256338 190.010926,17.6433333 C189.638096,16.9330986 189.139794,16.3546009 188.456511,15.9264554 C187.921643,15.5878052 187.344473,15.3730164 186.753681,15.1489202 C186.477643,15.0458216 186.17436,15 185.863907,15 C185.207153,15 184.519568,15.2054812 184.000473,15.5097653" transform="translate(-179 -15)"/>
</svg>
