<svg xmlns="http://www.w3.org/2000/svg"  width="183" height="21" viewBox="0 0 183 21">
  <path fill="#FFF" fill-rule="evenodd" d="M61.6010414,-33.4027026 C60.1326685,-31.8747284 61.2049378,-30.2566913 61.5229365,-28.7001857 C61.7181988,-27.7335572 61.914577,-26.766585 62.1154182,-25.7985815 C62.4077539,-24.3524201 62.7123632,-22.9076336 63.0392881,-21.4614722 C63.8192218,-18.0157098 64.6259343,-14.5730412 65.4449204,-11.1286538 C66.9311459,-4.84866247 68.5311815,1.42892259 70.131217,7.70650766 C72.0224725,15.1562844 73.9572435,22.6060612 75.9321828,30.054463 C76.0326034,30.4301831 76.3506021,30.7526218 77.2398827,31.0265915 C78.0722582,31.2830299 79.2137062,31.4294679 80.3953224,31.4294679 C81.2756767,31.4294679 82.1381784,31.3459364 82.8701333,31.1970921 C85.1195557,38.4533369 87.3734412,45.7085505 89.6217478,52.9647954 C92.8173558,63.2598011 95.8857643,73.5575569 99.0010358,83.8553127 C103.739774,99.5269315 108.48186,115.199925 113.219483,130.872919 C113.402472,131.474484 113.60666,132.074673 113.707081,132.677613 C113.981564,134.298056 114.256047,135.918844 114.531646,137.539631 C114.622025,138.077601 114.712403,138.615228 114.803897,139.153199 C116.31467,138.956917 117.825443,138.760635 119.333984,138.564353 C120.751031,138.446446 122.169194,138.362571 123.587356,138.312727 C123.330726,136.795065 123.074095,135.277404 122.816349,133.759742 C122.715928,133.159552 122.655676,132.556613 122.472687,131.956423 C121.949384,130.220136 121.426081,128.483848 120.89943,126.747904 C115.686483,109.510499 110.473536,92.2720617 105.256126,75.0346559 C102.297064,65.2363707 99.3156871,55.4394605 96.2774048,45.6439253 C92.136727,32.287471 88.0920067,18.927923 83.7728033,5.57800001 C81.580286,-1.20283687 79.3877686,-7.98264249 77.1963671,-14.7634794 C76.4376333,-17.1095815 75.557279,-19.45259 74.7371771,-21.7969734 C74.1056429,-23.6030424 73.4696455,-25.4104864 72.8369954,-27.2165554 C72.1139668,-29.2845628 71.1242656,-31.3415702 70.209322,-33.4027026 C69.9950913,-33.6364535 69.612377,-33.8378917 69.0589477,-34.0097673 C68.2254564,-34.2662057 67.0840084,-34.4126438 65.9023922,-34.4126438 C63.8895162,-34.4126438 62.1678601,-33.990861 61.6010414,-33.4027026" transform="rotate(-76 64.838 32.01)"/>
</svg>
