<svg xmlns="http://www.w3.org/2000/svg" width="94" height="85" viewBox="0 0 94 85">
  <g fill="#FFF" fill-rule="evenodd">
    <path d="M41.4148708.555586842C37.7322297 1.44316579 34.0518373 2.31553421 30.3552536 3.13824474 27.7569856 3.71848158 25.1569187 4.29692895 22.558201 4.87716579 21.4531388 5.12366579 20.3233397 5.29142895 19.2115311 5.49766579 17.6634545 5.78442895 16.1158278 6.07253421 14.568201 6.35929737 12.502 6.74179737 10.432201 7.11042895 8.36644976 7.48979737 7.4718756 7.65398158 6.57955024 7.81816579 5.68542584 7.98279737 5.36384689 8.04006053 5.04406699 8.09956053 4.72248804 8.15906053 4.30421053 8.23779737 3.88458373 8.30758684 3.46810526 8.39661316 2.84248804 8.52948158 2.26094737 8.82161316 1.70414354 9.12716579.651703349 9.70919211 0 10.8991921 0 12.0842711 0 13.21835.637760766 14.5255605 1.70414354 15.0409289 2.10802871 15.2364289 2.48942584 15.41135 2.92524402 15.4847184 3.5261244 15.6453237 4.12700478 15.6453237 4.72608612 15.4847184 5.04541627 15.3970342 5.34945455 15.2623763 5.6274067 15.0879026 5.71421053 15.0731395 5.80101435 15.0592711 5.88826794 15.04585 8.65249761 14.6745342 11.3982871 14.1555868 14.1427273 13.6706395 16.6128134 13.2357974 19.0797512 12.7741132 21.5462392 12.3200342 26.5255407 11.3989026 31.4517703 10.2227711 36.3937416 9.12179737 38.7145072 8.60463947 41.0177321 8.01590263 43.3281531 7.45848158 45.2342392 6.99858684 46.3500957 4.89103421 45.8423158 3.05637632 45.3943541 1.43779737 43.9159904.447323684 42.3229378.447323684 42.0220478.447323684 41.7175598.482665789 41.4148708.555586842M52.3179713 23.6232895C44.1395215 32.1335789 35.9597225 40.6389474 27.84289 49.2073947 26.8205837 50.2873421 25.7996268 51.3722105 24.7912632 52.4664737 24.1481053 53.1634737 23.7563636 53.9884211 23.7563636 54.9511579 23.7563636 55.8794474 24.1323636 56.7808947 24.7912632 57.4362895 26.1405455 58.7766053 28.4455694 58.8079211 29.7894545 57.4362895 33.4559043 53.6895789 37.0575885 49.8797895 40.6840096 46.0946053 44.2380191 42.3863684 47.7992249 38.6852895 51.3568325 34.9806316 53.3722105 32.8815789 55.3907368 30.7829737 57.4061148 28.6857105 58.7603445 27.2756053 58.8165646 25.0266842 57.4061148 23.6232895 56.7184306 22.9397105 55.7734833 22.5871842 54.8316842 22.5871842 53.9087751 22.5871842 52.9885646 22.9258421 52.3179713 23.6232895M87.6556297 31.2501158C86.9544526 31.9475632 86.6540124 32.8141158 86.6013904 33.7804316 86.2011033 41.2112211 85.8462421 48.6415632 85.5071225 56.0736947 85.3101273 60.3585895 85.2309694 64.6560105 85.2170268 68.9462737 85.2116297 70.8404316 85.195888 72.7332474 85.2327684 74.6256158 85.2503091 75.5167737 85.2503091 76.4115105 85.2997828 77.3026684 85.3892852 78.9333263 85.4383091 80.5778526 85.840845 82.1713789 86.3063474 84.0275105 88.3617541 85.1231158 90.1819359 84.6234053 91.0639167 84.3822737 91.8298593 83.7948789 92.2922134 83.0101947 92.785601 82.1713789 92.8647589 81.2363789 92.6488737 80.3049579 92.6092947 80.1349579 92.5724144 79.9667474 92.5395818 79.7976421 92.4374861 78.6805632 92.3992565 77.5531947 92.3853139 76.4325368 92.3691225 75.2617737 92.3358402 74.0910105 92.3448354 72.9202474 92.3641751 70.5957211 92.3691225 68.2698526 92.4221943 65.9457737 92.4815627 63.3416421 92.4833617 60.7308 92.6029981 58.1306947 92.7226344 55.4934579 92.8472182 52.8584579 92.9686536 50.2212211 93.2214191 44.7391684 93.5025196 39.2606947 93.7975627 33.7804316 93.9032565 31.8321421 92.0812756 30.2014842 90.1994766 30.2014842 89.2491321 30.2014842 88.3284718 30.5826421 87.6556297 31.2501158"/>
  </g>
</svg>
