<svg xmlns="http://www.w3.org/2000/svg"  width="102" height="35" viewBox="0 0 102 35">
  <path fill="#FFF" fill-rule="evenodd" d="M79.9652744,0.155726667 C70.4848036,3.3570981 61.0522789,6.70215524 51.6446152,10.1152505 C46.2253641,12.0807457 40.8043372,14.0493743 35.3850861,16.0148695 C33.9302744,16.5408219 32.4941085,17.1231743 31.0512834,17.6791171 C27.787835,18.9382695 24.5239426,20.1969743 21.2604942,21.4561267 C19.1548574,22.2672124 17.0549919,23.0872505 14.9617857,23.9265362 C12.9968798,24.7134505 11.0324179,25.5021552 9.06751211,26.29086 C6.59428789,27.2823362 4.17877668,28.3960124 1.75083498,29.490441 C1.21676771,29.8086981 0.791911211,30.2370695 0.476265471,30.7737648 C-0.016070852,31.6220029 -0.109743498,32.5906505 0.117556951,33.5328886 C0.211229596,33.9160505 0.257843946,34.2987648 0.393247534,34.6693933 C0.561503139,35.2763648 0.86649417,35.8027648 1.305113,36.2485933 C1.60344484,36.6035552 1.981687,36.8676505 2.37369148,37.1071267 C3.50753004,37.8013838 4.94857937,37.9934124 6.24579013,37.9866981 C6.97253004,37.9831171 7.72501883,37.8555457 8.4397722,37.7485648 C8.99648072,37.66486 9.54963767,37.5632505 10.1010188,37.4513457 C11.1371892,37.2400695 12.1658126,36.9979076 13.2117498,36.8287076 C15.4163865,36.5355171 17.6143641,36.2217362 19.8074583,35.8681171 C19.7599561,35.8896029 19.7124538,35.910641 19.6649516,35.9321267 L16.2834135,37.4482124 C14.9826511,38.0336981 13.7098574,38.6720029 12.4335121,39.3103076 C11.3338574,39.8590886 10.6732655,41.2091076 10.6732655,42.4015648 C10.6732655,43.69026 11.361826,44.8231838 12.4335121,45.4946124 C12.6745749,45.6450124 12.9085345,45.8039171 13.1549247,45.9458124 C13.8639067,46.3513552 14.4050771,46.4211838 15.1992969,46.5156314 C15.9278126,46.6015743 16.6265839,46.5751648 17.351548,46.4789267 C18.3069202,46.3513552 19.2192296,46.1852886 20.1488529,45.9319362 C21.0296422,45.6920124 21.8948933,45.3947933 22.7672475,45.1293552 C23.8513641,44.7967743 24.9678888,44.5487933 26.0675435,44.2726124 C28.3125794,43.7095076 30.5576152,43.1459552 32.8030951,42.5824029 C32.7813417,42.9678029 32.820409,43.3567838 32.9225166,43.7323362 C33.1671309,44.6257838 33.760243,45.4019552 34.5544628,45.8706124 C34.8372565,45.9910219 35.1196063,46.111879 35.4024,46.2309457 C36.0301399,46.4019362 36.6596556,46.4019362 37.2891713,46.2309457 C37.8516511,46.149479 38.4154628,46.0671171 38.9783865,45.987441 C42.0757991,45.583241 45.1905256,45.2488695 48.2994807,44.9507552 C48.6062475,44.908679 48.9152341,44.8670505 49.2220009,44.8249743 C49.8115614,44.6589076 50.3229874,44.3581076 50.7567229,43.9243648 C51.4053283,43.2703933 51.7746915,42.3720219 51.7746915,41.4467933 C51.7746915,41.3630886 51.7715839,41.2798314 51.7658126,41.1965743 C51.9380637,41.1339076 52.1103148,41.0707933 52.2830099,41.0081267 C57.4505435,39.1178314 62.5994314,37.1859076 67.7429919,35.2275743 C70.274817,34.2638505 72.7320592,33.1273457 75.2119426,32.0347076 C75.7442341,31.7164505 76.1690906,31.288079 76.4847363,30.7495933 C76.9650861,29.9223933 77.0951623,28.91346 76.8438888,27.9904695 C76.6738574,27.3834981 76.3701982,26.8570981 75.9298036,26.409479 C75.2310323,25.7049267 74.3830951,25.4251648 73.4188439,25.3607076 C73.0876601,25.3396695 72.758252,25.3114695 72.4252924,25.2940124 C71.9049874,25.2693933 71.2284135,25.4041267 70.7445121,25.4864886 C69.9209919,25.6261457 69.1214448,25.8414505 68.3205659,26.0755552 C67.5956018,26.287279 66.8688619,26.4900505 66.1372386,26.6771552 C64.5674448,27.0759838 62.9980951,27.4761552 61.4287453,27.8767743 C59.401687,28.3924314 57.3777363,28.91346 55.3524538,29.4344886 C54.7455794,29.5907076 54.138261,29.7469267 53.5318305,29.9031457 C55.5247049,29.1650219 57.5180233,28.4273457 59.5108978,27.6896695 C60.7783641,27.2192219 62.0684717,26.8293457 63.3590233,26.4220124 C66.6748574,25.3781648 69.9884717,24.3325267 73.30253,23.2868886 C74.9846422,22.7569076 76.6583193,22.188879 78.3541937,21.7009743 C81.2451713,20.8684029 84.1361489,20.036279 87.0284583,19.2041552 C88.1472027,18.8805267 89.2672789,18.5586886 90.3877991,18.2372981 C92.4059785,17.6549457 94.3553462,16.8241648 96.3255794,16.1021552 C97.2236825,15.7736029 97.953974,15.3098695 98.4480861,14.4567076 C99.084261,13.3604886 99.0984673,11.93706 98.4480861,10.8426314 C97.822122,9.7866981 96.9843955,9.01007905 95.7653193,8.71644095 C94.7628888,8.47338381 93.7276063,8.59558381 92.7495928,8.8842981 C92.1285121,9.0678219 91.5442789,9.35653619 90.9218664,9.53826952 C90.7655973,9.58526952 90.6079964,9.62555524 90.4499516,9.6694219 C88.9622879,10.0785457 87.4741803,10.4876695 85.9865166,10.8985838 C83.5341578,11.5735933 81.0977812,12.316641 78.6560771,13.0265648 C73.8126242,14.43746 69.0055749,15.9781648 64.1843193,17.46426 C59.4047946,18.9382695 54.5773238,20.2708314 49.7751578,21.6678505 C48.3287812,22.0872695 46.8912834,22.5612981 45.425817,22.9090981 C42.6737946,23.561279 39.9217722,24.2152505 37.1697498,24.8692219 C34.2352655,25.5652695 31.3012251,26.26266 28.3667408,26.9587076 C27.2009381,27.2357838 26.0275883,27.4698886 24.8515749,27.7022029 C28.9163462,26.1292695 32.9802296,24.5527552 37.0534359,22.9999648 C38.5934852,22.4126886 40.1521803,21.8755457 41.7011085,21.314679 C44.9681085,20.1289362 48.2333327,18.943641 51.5007767,17.7578981 C55.4443507,16.3277552 59.3737184,14.8573267 63.3328305,13.4795552 C69.5032386,11.3305362 75.6629919,9.15197429 81.8520457,7.06248857 C82.748817,6.7598981 83.4888753,6.25274571 83.9745525,5.41525048 C84.4549022,4.58805048 84.5849785,3.58090762 84.3337049,2.65612667 C83.9252744,1.16197429 82.4540368,0.000402857143 80.9166511,-4.47619048e-05 C80.5992296,-4.47619048e-05 80.2795883,0.0496409524 79.9652744,0.155726667" transform="rotate(16 83.247 24.417)"/>
</svg>
