<svg xmlns="http://www.w3.org/2000/svg"  width="135" height="171" viewBox="0 0 135 171">
  <g fill="#FFF" fill-rule="evenodd">
    <path d="M62.3614134,11.2586972 C61.4617671,11.5471792 60.5769226,11.9405866 59.7683448,12.4286521 C58.8845037,12.9617928 58.0837031,13.6669711 57.3752254,14.4134684 C56.706888,15.1176449 56.1150683,15.9099688 55.5759328,16.7160656 C54.984113,17.5992914 54.5352934,18.5649048 54.1266141,19.5440408 C53.3503995,21.4006428 52.9025834,23.3561602 52.6958604,25.3544991 C52.5909936,26.3639357 52.6594832,27.3568447 52.8034868,28.35952 C52.9369536,29.2888228 53.165252,30.1925828 53.4778452,31.0788136 C53.7962086,31.9788173 54.1981142,32.8602901 54.6782935,33.6859196 C55.190836,34.5681437 55.8591733,35.3762439 56.5470791,36.1285008 C57.1371427,36.7730778 57.7869152,37.3628131 58.4464718,37.9360209 C59.2322198,38.6199136 60.0485748,39.2702502 60.9003035,39.8720056 C62.4103345,40.9372855 64.0518252,41.8245179 65.6561861,42.7380443 C67.3553786,43.7064123 69.1223081,44.5515744 70.8548673,45.4563362 C71.3781975,45.7292922 71.9025313,46.0022483 72.4258615,46.2752044 C73.6273133,46.9012504 74.8415598,47.5077638 76.0292134,48.1601037 C77.230916,48.8194554 78.4313643,49.4798087 79.6338196,50.1381587 C80.6616643,50.7005985 81.6634177,51.3158765 82.6767114,51.903859 C83.5763578,52.4262318 84.4642128,52.9728951 85.3530714,53.5148006 C86.0096175,53.9159709 86.6681707,54.3131345 87.3217062,54.7200644 C88.0705752,55.1865939 88.8407688,55.5709862 89.660887,55.8987838 C90.0206452,56.042524 90.411763,56.1168983 90.7908387,56.1872659 C91.2878268,56.2811728 91.7835605,56.3212397 92.2873223,56.3252464 C93.319181,56.334011 94.1796904,55.45955 94.1796904,54.4363403 C94.1796904,53.9375069 93.9787377,53.4531977 93.6260041,53.1011094 C93.2526985,52.7274851 92.8028754,52.5834945 92.2873223,52.5474343 C92.2060381,52.5414242 92.1245029,52.5356646 92.0432186,52.5289033 C91.6684078,52.4537778 91.3023777,52.3518575 90.9433722,52.2218903 C89.898217,51.7193006 88.9443812,51.0314012 87.9596874,50.4218828 C87.426573,50.0910801 86.8914515,49.7635328 86.3535704,49.4387401 C85.0607992,48.6591876 83.7594982,47.8971644 82.4541832,47.1388974 C80.1511288,45.8006615 77.7953902,44.5565828 75.4333796,43.3270284 C73.8889784,42.5219332 72.3445772,41.7158364 70.7921479,40.9255159 C69.2770994,40.1537263 67.7924071,39.3398665 66.3185024,38.4947044 C64.9579944,37.7138997 63.6032565,36.925833 62.3441029,35.9895186 C61.0367808,34.9580451 59.778129,33.8249018 58.726451,32.5329933 C58.2412541,31.8633744 57.8378433,31.1544399 57.4976535,30.4019326 C57.1396515,29.4841491 56.8769829,28.5413238 56.717174,27.5702012 C56.6328792,26.7333029 56.6504406,25.9029154 56.74176,25.0655163 C56.96479,23.6343751 57.3468762,22.2305295 57.883503,20.886033 C58.3388454,19.8713376 58.8885178,18.9172435 59.5478235,18.0207456 C60.0794327,17.3651502 60.6589595,16.7581359 61.3092337,16.2184843 C61.7971902,15.872406 62.3104853,15.580919 62.8536348,15.3312518 C63.694325,15.0092138 64.5598519,14.7815834 65.4479579,14.6383441 C66.7846326,14.4983602 68.1225617,14.5366742 69.4564767,14.6921841 C71.2969132,14.9623855 73.1100041,15.3978631 74.8390511,16.0865138 C76.0773818,16.639688 77.2364353,17.3353504 78.3232362,18.1459548 C79.1536403,18.8115669 79.9418971,19.5380307 80.6250362,20.355146 C81.2968858,21.2877041 81.8274915,22.3286935 82.3001445,23.3764441 C82.3884533,23.6158441 82.4707411,23.8577483 82.5570429,24.0976491 C82.7394308,24.6042456 83.0028521,25.0169351 83.4802717,25.2948995 C83.9436422,25.5658523 84.5081164,25.6392249 85.0266799,25.4972376 C85.5274312,25.3595075 85.9634561,25.0239468 86.2261247,24.5759483 C86.4800126,24.142474 86.6034443,23.5204347 86.428081,23.0323692 C85.7449419,21.1326951 84.864864,19.2505504 83.5868946,17.6716623 C82.4022516,16.2084675 80.8841925,14.9954408 79.3182159,13.9614631 C77.7188726,12.9049479 75.9273572,12.1439263 74.0957014,11.5942579 C72.2083508,11.0288131 70.21513,10.7060238 68.2512618,10.5740533 C67.8759492,10.548761 67.4986296,10.5359897 67.1205574,10.5359897 C65.5101755,10.5359897 63.8877514,10.768378 62.3614134,11.2586972"/>
    <path d="M102.165444 31.2045486C102.104731 31.2826792 102.04427 31.3605593 101.983558 31.4386899 102.044019 31.3605593 102.104731 31.2826792 102.165444 31.2045486M96.9110678.390813703C96.0086619.533552197 95.1353577.795740272 94.2866395 1.13130094 93.2929142 1.52345617 92.3385766 1.98723107 91.4487145 2.58097312 89.9620151 3.57288044 88.6175632 4.80819446 87.4336728 6.14167249 86.8260478 6.82631642 86.2693509 7.55904069 85.7234417 8.29251621 85.18255 9.02048253 84.6797918 9.77549404 84.2164212 10.5542953 83.78717 11.2732465 83.4233978 12.0255035 83.0784414 12.786525 82.6501937 13.727347 82.2603303 14.687952 81.9710686 15.680861 81.7134176 16.5690951 81.5653999 17.5149254 81.5684104 18.4394702 81.5704174 18.9921436 81.6644965 19.541812 81.7380035 20.0867225 81.7919422 20.4808811 81.8722229 20.8497474 82.0064423 21.22237 82.1868232 21.7292168 82.4522515 22.1419064 82.9286676 22.4196204 83.3920381 22.6905731 83.9565123 22.7639457 84.4750758 22.6222089 84.9768306 22.4842283 85.411852 22.1496694 85.6745206 21.7016708 85.929412 21.2664436 86.0518402 20.6451555 85.8764769 20.1570901 85.7605715 19.8330486 85.6890715 19.5080055 85.6341293 19.1739474 85.587717 18.7111742 85.5721626 18.2531589 85.6072855 17.7901353 85.7768786 16.8495637 86.0744191 15.9470558 86.4331738 15.0615763 86.837839 14.1425407 87.2823938 13.2465436 87.7981977 12.3823497 88.3009559 11.5394413 88.8699458 10.7363495 89.4617656 9.95253985 90.4968857 8.64710868 91.656441 7.45862291 92.9562367 6.41312605 93.7256776 5.84743086 94.5355098 5.37213672 95.4058035 4.97647563 96.2916515 4.63014697 97.1973189 4.38373525 98.1356003 4.23148086 98.7710727 4.16637207 99.4022802 4.14959404 100.038254 4.20418525 100.646883 4.30936098 101.238452 4.4701296 101.81848 4.68624069 102.3245 4.921634 102.798157 5.20009927 103.251743 5.52514236 103.860371 6.03198923 104.409793 6.59417856 104.913053 7.2054499 105.434376 7.92014404 105.87592 8.68091517 106.242452 9.48575994 106.587158 10.3697369 106.837533 11.2800078 106.990569 12.2148198 107.071351 13.0364426 107.059309 13.8498016 106.971 14.669421 106.777072 15.8781907 106.454444 17.0571606 106.000606 18.1940601 105.279083 19.8130152 104.380691 21.3703673 103.400513 22.84433 102.885211 23.6208775 102.331525 24.3721327 101.778591 25.123388 101.259526 25.8298183 100.747485 26.5405058 100.214119 27.2374202 99.3252609 28.3763231 98.4178374 29.5029555 97.5962139 30.692443 96.7357045 31.9365217 95.9261232 33.2171614 95.1667173 34.5248463 94.4201062 35.8122474 93.7585426 37.14247 93.1469035 38.4982353 92.4923644 39.9499108 91.8456025 41.419366 91.3232758 42.9226277 90.8117368 44.3968409 90.5520787 45.9599526 90.4314067 47.5105434 90.3069715 49.1079624 90.520719 50.7189041 90.8704421 52.2762562 91.0224738 52.9551405 91.2419915 53.6202518 91.4534812 54.2816068 91.7083726 55.0796903 92.0169518 55.8524815 92.3511204 56.6215164 92.9010437 57.8871311 93.7633093 59.0180206 94.8021925 59.9227823 95.1913033 60.2623497 95.6145335 60.4784608 96.1448883 60.4784608 96.646643 60.4784608 97.1325925 60.276874 97.4873332 59.9227823 98.1968144 59.2145991 98.2477425 57.9429744 97.4873332 57.2425541 97.2091101 56.9856248 96.9499538 56.7226855 96.7083589 56.4364572 96.3975218 55.9924654 96.1343514 55.5246838 95.9068056 55.0323612 95.5886931 54.2237601 95.3380666 53.3946248 95.0912033 52.5609819 94.8327995 51.6892754 94.6310941 50.808053 94.4903519 49.9113047 94.3809694 48.8765758 94.3975273 47.8443512 94.5116765 46.810624 94.6371152 46.0095355 94.8152381 45.2214687 95.0472997 44.4419162 95.2831245 43.6508445 95.5964703 42.8830616 95.9173425 42.1217896 96.7291817 40.2156047 97.6007297 38.3459809 98.6328393 36.5477263 99.7244068 34.6450472 100.938152 32.8022181 102.276081 31.0625614 102.806686 30.3819242 103.341306 29.7042919 103.865138 29.0176447 104.47753 28.2175578 105.063579 27.3949334 105.65841 26.5810735 106.209336 25.8288166 106.74521 25.0667934 107.248972 24.2822325 107.793878 23.4330637 108.286852 22.5468329 108.762265 21.6575972 109.722623 19.8608451 110.448662 17.9591677 110.808421 15.9528154 110.987798 14.9491384 111.090658 13.9279321 111.059298 12.9097309 111.026935 11.8286746 110.827989 10.7350974 110.544748 9.69435847 110.287097 8.74952981 109.900997 7.83274801 109.468735 6.95553232 109.006117 6.01546161 108.394729 5.17305408 107.741946 4.35744132 107.213849 3.69808964 106.604217 3.10434759 105.947671 2.57496308 105.543006 2.24841747 105.125295 1.93915073 104.684504 1.66344006 104.179738 1.34741203 103.617271 1.10876328 103.064337.891650523 102.15014.531548849 101.20935.323200732 100.233186.21652249 99.9170806.181964749 99.6024804.166939644 99.2891345.166939644 98.4938532.166939644 97.7053456.264602824 96.9110678.390813703M28.3648684 136.463119C28.3982351 136.467627 28.4313509 136.472134 28.4647176 136.476642 28.4316018 136.472385 28.3982351 136.467627 28.3648684 136.463119M15.6436288 86.8597398C13.7040957 87.1464688 11.8363136 87.9142517 10.1459018 88.8866264 9.2981871 89.3746919 8.5172058 89.9596693 7.7517789 90.565181 7.00893096 91.1521617 6.32880237 91.814268 5.69383171 92.5146883 4.37471841 93.9741268 3.2821474 95.6499268 2.45199413 97.4301513.731226146 101.118814-.050006032 105.296795.418382047 109.348565.538050559 110.384296.713413852 111.409509.967301766 112.42195 1.23473706 113.486228 1.63162508 114.51044 2.06489033 115.516871 2.43142219 116.365039 2.84210847 117.190668 3.29669829 117.995763 3.78565831 118.862461 4.36694122 119.676321 4.96854519 120.467643 5.58595443 121.278498 6.22092509 122.078835 6.89904667 122.84161 7.57641561 123.604635 8.3064688 124.31983 9.03250795 125.035776 9.58544171 125.579685 10.1614562 126.098051 10.7309479 126.62443 11.7991838 127.610328 12.8741934 128.586709 13.9549731 129.558082 15.768064 131.185802 17.5437741 132.855592 19.3686562 134.468537 20.3162201 135.307939 21.2725647 136.135322 22.2565058 136.931652 22.9042712 137.456028 23.5590612 137.968635 24.220374 138.476233 24.6819884 138.829323 25.1405922 139.188423 25.6531347 139.464133 26.1099825 139.710796 26.6057162 139.916139 27.1162516 140.012049 27.5956783 140.101949 28.0698366 140.13225 28.5550335 140.133251 29.5507658 140.136257 30.3806682 139.302864 30.3806682 138.310957 30.3806682 137.829653 30.1877435 137.363123 29.8465502 137.022554 29.7231186 136.927645 29.5996869 136.832987 29.4772587 136.738079 29.2070638 136.581317 28.9175513 136.498679 28.6069651 136.489413 28.4080193 136.452852 28.2130876 136.404521 28.0206646 136.342167 27.7617592 136.205689 27.5174046 136.048927 27.2798237 135.878392 25.16568 134.17104 23.0716064 132.446158 21.0668453 130.610591 19.9682532 129.603909 18.8669015 128.600482 17.7652989 127.597807 16.8676596 126.781944 15.9484448 125.988618 15.0575792 125.164992 14.2158856 124.387192 13.3739411 123.610645 12.5322475 122.833847 11.045799 121.460552 9.65970141 119.988092 8.40330747 118.401942 7.85764916 117.68274 7.34234701 116.945258 6.87772209 116.171465 6.40858138 115.390911 6.00366528 114.569038 5.63663166 113.735896 5.06287508 112.311516 4.66398004 110.845566 4.43116583 109.328532 4.25404639 107.787457 4.25304288 106.250138 4.43492899 104.709814 4.69734673 103.020742 5.13663303 101.371487 5.77135282 99.7833331 6.35715151 98.4596214 7.08093277 97.2105343 7.94470361 96.0475912 8.73772702 95.0654502 9.62683648 94.1782178 10.6092723 93.3846419 11.5922099 92.6561747 12.643637 92.0353875 13.7600414 91.533549 14.7156334 91.1586726 15.6978183 90.8902241 16.7123665 90.7254488 17.6185356 90.628036 18.5196872 90.6225268 19.4268598 90.717185 20.2763306 90.8559168 21.1057312 91.068522 21.9087898 91.3782896 22.8061782 91.7889758 23.6594122 92.2925672 24.455697 92.8762925 25.4293521 93.6616046 26.3272423 94.5415749 27.2153482 95.420794 28.1450998 96.3415824 29.0246759 97.3079471 29.8345081 98.3351634 30.6706824 99.4267373 31.4712322 100.544605 32.0592888 101.790437 32.2840749 102.411224 32.4160364 103.052796 32.5226593 103.702882 32.5319418 103.837106 32.5369593 103.97108 32.5424786 104.106306 32.5650576 104.644205 32.7434314 105.136277 33.1305352 105.522673 33.5058478 105.896297 34.0193938 106.109653 34.5494977 106.109653 35.6099564 106.109653 36.6016747 105.19788 36.5565168 104.106306 36.5183834 103.164232 36.3565675 102.21164 36.1184849 101.299867 35.8558162 100.292434 35.3492948 99.3328304 34.8101593 98.4473509 34.3427747 97.6805697 33.7988726 96.9616184 33.2529634 96.2504301 32.5906471 95.3877387 31.9125255 94.5473345 31.1754477 93.7472477 30.5522683 93.0693651 29.8947187 92.4227847 29.2301445 91.7849691 28.5452492 91.1276207 27.8513224 90.4790371 27.1037078 89.8910546 25.5151522 88.6419676 23.7384385 87.6618299 21.781344 87.1229295 20.8237451 86.8587381 19.821239 86.7267676 18.8325313 86.6553983 18.6095013 86.6391212 18.386973 86.631859 18.1644448 86.631859 17.3202424 86.631859 16.4798031 86.7365339 15.6436288 86.8597398"/>
    <path d="M46.6832075 88.2779344C46.1521001 88.30523 45.6129646 88.3943789 45.1014256 88.5351141 44.5976638 88.6730946 44.1117143 88.9079871 43.6423227 89.1328628 42.7700221 89.5505607 42.0076057 90.1628337 41.2717823 90.7821185 40.5444888 91.3926385 39.8987304 92.0890521 39.3146878 92.835299 38.7110769 93.6070885 38.1651677 94.408177 37.6721936 95.2553425 37.1205142 96.2024249 36.6794718 97.2040986 36.267782 98.2172915 35.9180589 99.0802333 35.6358219 99.974227 35.4496708 100.887002 35.2409409 101.918976 35.1262899 102.979248 34.9988442 104.022992 34.941895 104.493528 35.2359233 105.047203 35.5562937 105.365986 35.9120379 105.721079 36.3992417 105.922666 36.902 105.922666 37.4047583 105.922666 37.8917113 105.721079 38.2474554 105.365986 38.346552 105.238022 38.4453977 105.109808 38.5452469 104.981594 38.716847 104.6861 38.8041524 104.366316 38.8051559 104.022992 38.8267313 103.843442 38.8483068 103.664142 38.870384 103.484091 38.9649648 102.807461 39.0635596 102.131582 39.2128316 101.464968 39.3947177 100.65812 39.6817215 99.870053 39.9970743 99.1032718 40.5798625 97.792081 41.2978736 96.5444965 42.1533655 95.3925718 42.7920993 94.6095134 43.5063472 93.9088427 44.2910917 93.2732808 44.7522043 92.941226 45.2323836 92.6567507 45.7454279 92.4143456 46.0118596 92.318185 46.2795458 92.2408057 46.557518 92.1842111 46.8344866 92.1624247 47.1089465 92.1586685 47.3876712 92.1744448 47.6107012 92.2205218 47.8277102 92.2811231 48.0437156 92.3562486 48.2993596 92.4817082 48.5432125 92.6229442 48.7782846 92.7829615 49.0314199 93.0073364 49.2627288 93.2477381 49.4804904 93.5054187 49.7835503 93.9333837 50.0417031 94.3813823 50.2637296 94.8561756 50.5168649 95.5235406 50.6942352 96.20543 50.8108932 96.9101074 50.9428547 98.1459222 50.9089862 99.3709691 50.7654843 100.605031 50.4300613 102.844022 49.7599678 105.017403 48.8999601 107.108898 48.1117034 108.914665 47.1593728 110.638295 45.9762351 112.215931 44.9684606 113.474534 43.8457843 114.670783 42.6152307 115.713525 41.976246 116.25543 41.3382648 116.798337 40.6992801 117.340243 39.7773057 118.1228 38.8227173 118.865291 37.8967289 119.64284 36.7479613 120.608203 35.6082254 121.57582 34.4893122 122.576492 32.0206787 124.784181 29.9499368 127.413574 28.5465287 130.420598 27.7341877 132.161757 27.0588258 133.996823 26.5600816 135.855429 26.4710201 136.188986 26.3807042 136.522544 26.2916428 136.856101 26.0964602 137.581062 26.0033847 138.334321 25.9083021 139.076561 25.8613881 139.442422 25.8418196 139.810287 25.8300284 140.179153 25.8132196 140.715049 25.8809565 141.24243 25.9564706 141.772566 26.0778952 142.626492 26.395506 143.398282 26.7795993 144.168068 27.1579224 144.928338 28.1574179 145.262897 28.9424132 145.046536 29.4205855 144.915567 29.8362893 144.595783 30.0871667 144.168068 30.3202318 143.771155 30.465239 143.141102 30.2800914 142.695107 30.100965 142.263135 29.9654912 141.837674 29.8774332 141.385669 29.8119542 140.635666 29.8315227 139.888167 29.9125561 139.139166 30.0565597 138.23791 30.2750739 137.332898 30.5505373 136.464947 30.9145603 135.320285 31.2758238 134.18013 31.7258978 133.065768 32.4306124 131.466095 33.2760692 129.95482 34.3207226 128.549973 35.1579004 127.496212 36.0766134 126.510565 37.0793703 125.612815 37.59969 125.146286 38.1102255 124.662978 38.6443435 124.212976 39.739925 123.290435 40.8347539 122.369145 41.9428793 121.46238 43.0798556 120.531074 44.1990197 119.582239 45.3181837 118.630399 47.9777348 116.36887 50.1739155 113.557422 51.7233342 110.434955 52.5983945 108.673262 53.3206705 106.813905 53.8645727 104.923997 54.4270398 102.973488 54.7827839 100.95136 54.854284 98.9207168 54.8896577 97.8995105 54.7709927 96.8850655 54.6222224 95.8776323 54.4661767 94.8328867 54.1056659 93.863517 53.6804287 92.9019103 53.3051161 92.0517398 52.7444052 91.2967283 52.1428012 90.593303 51.5075797 89.8528157 50.663879 89.2533141 49.7702538 88.8669185 49.2890709 88.6585703 48.8254495 88.4812741 48.308893 88.3866159 47.8869172 88.3089862 47.4621818 88.2689193 47.0351885 88.2689193 46.9180288 88.2689193 46.800869 88.2719243 46.6832075 88.2779344M111.062233 128.683946C111.072268 128.707736 111.082303 128.731776 111.092339 128.755566 111.082303 128.731526 111.072268 128.707736 111.062233 128.683946M97.4696965 115.39324C96.961168 115.462606 96.4614203 115.589818 95.9694497 115.735562 95.0442139 116.008518 94.1445676 116.413444 93.2930898 116.863446 92.369861 117.35051 91.5291709 117.978559 90.7293738 118.643671 89.2486954 119.874227 88.015884 121.431579 86.9739902 123.040768 85.8999841 124.700791 85.0914063 126.536859 84.4172987 128.390456 83.7273859 130.286123 83.291361 132.250405 83.0276889 134.247993 82.7690343 136.211273 82.7394308 138.189078 82.9474081 140.158118 83.1639153 142.223068 83.6383245 144.223661 84.3701338 146.166407 85.0896501 148.0776 86.0224123 149.869845 87.1583851 151.564927 88.273535 153.228957 89.554515 154.757762 90.9468845 156.194663 91.5976604 156.867787 92.2700118 157.516371 92.9697088 158.13841 93.5713128 158.674556 94.1819483 159.211453 94.814912 159.710287 95.9988024 160.640591 97.1709015 161.586672 98.3763674 162.487427 99.5276437 163.349367 100.671394 164.228586 101.859047 165.040693 102.210025 165.280343 102.560751 165.519994 102.910725 165.759644 103.206761 165.961982 103.527131 166.13427 103.83295 166.320081 104.479712 166.712236 105.174392 167.034274 105.869322 167.331521 106.016336 167.393123 106.163351 167.455728 106.310365 167.517331 106.637509 167.605478 106.964904 167.605478 107.292299 167.517331 107.753662 167.390118 108.154564 167.082104 108.395657 166.670166 108.896409 165.816239 108.611161 164.636518 107.73309 164.14745 106.308358 163.354125 104.98523 162.38776 103.65257 161.452448 102.411479 160.582744 101.206013 159.663458 99.9922686 158.758446 99.195482 158.135656 98.4019568 157.508858 97.6069264 156.884315 97.1041681 156.489155 96.6229853 156.06169 96.1390428 155.643993 95.5401985 155.128631 94.958163 154.593487 94.395445 154.037809 93.3886741 153.040893 92.4160224 152.005663 91.5324323 150.896811 90.3164296 149.278857 89.2441796 147.55648 88.425065 145.705387 87.7248662 143.987266 87.2063026 142.211048 86.9270761 140.375481 86.6987777 138.427727 86.7065549 136.465699 86.9393691 134.518946 87.2642553 132.359087 87.8550716 130.255072 88.6779494 128.231941 89.370371 126.652552 90.2067962 125.151795 91.2376513 123.768484 92.0013221 122.817394 92.8440192 121.940429 93.7920849 121.171895 94.5417065 120.628237 95.3384931 120.167467 96.181692 119.78608 96.9089855 119.504609 97.6515826 119.292254 98.42002 119.161536 98.9210222 119.115459 99.4152506 119.112204 99.9155001 119.156778 100.394425 119.241419 100.862813 119.360619 101.319912 119.526646 101.997532 119.85244 102.627986 120.258619 103.263459 120.657786 103.907963 121.062963 104.532898 121.496688 105.141527 121.953451 105.90294 122.556709 106.638261 123.195777 107.355018 123.851622 108.037405 124.476917 108.6794 125.142279 109.259679 125.862232 109.995503 126.848129 110.669108 127.873593 111.18717 128.99121 111.351495 129.413415 111.484711 129.839627 111.569507 130.284871 111.663085 131.316094 111.625453 132.364847 111.535639 133.392063 111.493491 133.87512 111.764941 134.413269 112.097102 134.743822 112.454854 135.100918 112.945821 135.304258 113.451339 135.304258 113.957107 135.304258 114.448074 135.100918 114.805826 134.743822 115.188915 134.362434 115.321379 133.915437 115.366286 133.392063 115.445814 132.489054 115.465382 131.586296 115.431012 130.679531 115.41044 130.153151 115.333922 129.625019 115.239843 129.107404 115.148775 128.610574 114.953843 128.130271 114.758661 127.666747 113.964885 125.782599 112.806584 124.073744 111.459121 122.537927 110.880849 121.879577 110.238101 121.279074 109.586322 120.694097 108.794553 119.984912 107.978198 119.303022 107.130483 118.66145 106.386631 118.09876 105.617441 117.581396 104.829435 117.083564 103.926026 116.51236 103.016595 116.001506 101.994521 115.666196 101.064268 115.361937 100.0442 115.23172 99.0680363 115.230718 98.5331657 115.230718 97.9990478 115.320869 97.4696965 115.39324"/>
    <path d="M124.326371,118.111907 C124.029333,118.114912 123.653017,118.168752 123.376801,118.224345 C123.105351,118.279187 122.854474,118.359321 122.597575,118.463996 C122.042133,118.690123 121.52658,118.949306 121.024825,119.275852 C120.526833,119.600645 120.07124,120.001815 119.634212,120.401984 C118.882583,121.090634 118.117156,121.767515 117.390866,122.48246 C116.577522,123.283548 115.871051,124.202083 115.202714,125.124624 C114.530362,126.052925 114.0266,127.053597 113.625949,128.125639 C113.277982,129.056945 113.020331,130.029319 112.76544,130.988923 C112.48521,132.044436 113.106382,133.161553 114.167844,133.45304 C115.214505,133.74052 116.355997,133.108715 116.636478,132.054203 C116.910687,131.023731 117.193426,129.984745 117.57501,128.986327 C117.940538,128.205773 118.41269,127.485569 118.928745,126.794915 C119.525833,126.050672 120.165068,125.359016 120.86602,124.705925 C121.241332,124.357593 121.625426,124.019278 122.002745,123.673951 C122.322614,123.38046 122.634705,123.082212 122.964609,122.801493 C123.271934,122.586133 123.593308,122.396065 123.929483,122.228536 C124.041124,122.190221 124.153517,122.156415 124.26867,122.127366 C124.434249,122.119353 124.599326,122.120355 124.76616,122.12937 C124.950053,122.166933 125.130183,122.214011 125.310062,122.272609 C125.59556,122.415097 125.866006,122.579121 126.129427,122.761927 C126.519792,123.089975 126.87077,123.448574 127.196911,123.84148 C127.885318,124.790566 128.446782,125.803258 128.919936,126.874548 C129.600818,128.562118 130.092788,130.308286 130.366245,132.107041 C130.502722,133.304792 130.540103,134.512059 130.410148,135.710311 C130.286466,136.477593 130.110099,137.227597 129.837395,137.956565 C129.522042,138.641209 129.144221,139.287038 128.702927,139.899561 C128.109602,140.615507 127.429725,141.238548 126.702933,141.819769 C125.467362,142.74181 124.134952,143.530127 122.754374,144.218027 C122.000738,144.593654 121.247353,144.967278 120.493718,145.342906 C119.593068,145.790905 118.694425,146.241908 117.801552,146.704681 C115.991472,147.642749 114.305074,148.763621 112.700713,150.018719 C111.20724,151.185668 109.838202,152.528662 108.66811,154.020655 C108.054715,154.803213 107.481209,155.608057 106.966911,156.460231 C106.397419,157.404058 105.955373,158.414497 105.561496,159.442715 C105.101888,160.64297 104.774493,161.883292 104.446346,163.123615 C104.29331,163.700829 104.159091,164.28781 104.063005,164.876544 C103.966166,165.474292 103.868073,166.069036 103.818149,166.672544 C103.740628,167.619377 103.86707,168.561451 104.04168,169.490753 C104.132749,169.812541 104.296321,170.09326 104.532648,170.330907 C104.889144,170.686 105.378355,170.888589 105.881866,170.888589 C106.385628,170.888589 106.874588,170.686 107.231336,170.330907 C107.55572,170.007116 107.842975,169.458449 107.790039,168.983906 C107.705243,168.211115 107.717285,167.450845 107.801078,166.680808 C107.91598,165.926798 108.057726,165.16753 108.251654,164.432552 C108.640012,162.961844 109.036398,161.499401 109.599116,160.083535 C110.151047,158.861243 110.863789,157.721839 111.668102,156.649798 C112.807838,155.234183 114.125195,153.97583 115.548172,152.845692 C117.022076,151.739844 118.599844,150.794264 120.238826,149.951356 C121.065969,149.526646 121.896875,149.111953 122.729035,148.698262 C123.430739,148.348929 124.132443,147.999845 124.833896,147.651513 C125.533593,147.303181 126.217736,146.908021 126.893851,146.515866 C127.831881,145.969954 128.69214,145.319367 129.544872,144.652252 C131.060924,143.463766 132.317318,141.97603 133.17858,140.250397 C134.111593,138.384029 134.495686,136.293536 134.507478,134.217818 C134.512495,133.181086 134.391823,132.155873 134.251833,131.129658 C134.1136,130.126231 133.884298,129.133322 133.610842,128.157943 C133.364731,127.28248 133.049378,126.430556 132.701411,125.590152 C132.283951,124.583721 131.833125,123.604585 131.251089,122.681042 C130.67382,121.768517 130.017274,120.873271 129.220487,120.139796 C128.334639,119.321929 127.294753,118.680357 126.136452,118.331023 C125.931485,118.268419 125.716985,118.23912 125.505244,118.208819 C125.125416,118.154979 124.765909,118.111657 124.386331,118.111657 C124.366512,118.111657 124.346442,118.111657 124.326371,118.111907"/>
  </g>
</svg>
