<svg xmlns="http://www.w3.org/2000/svg" x="0px" y="0px" viewBox="0 0 1060.8 394" style="enable-background:new 0 0 1060.8 394;" xml:space="preserve">
<path fill="#FDF359" d="M60.4,177.1c-11.2,26.8-54.7,16.7-45.2-12.4c8.6-26.2,7.2-55,10.4-82.1c2.9-23.9,6.3-48.1,10.1-71.7 c0.6-5.2,8.1-8.1,12.1-5.2c19.9,14.1,18.4,53,18.1,74.3C65.6,110.5,72.5,148.3,60.4,177.1z M221.2,195.5 c-29.1,5.8-65.4,9.5-74.6-26.5c-11.5-44.6,5.5-94.5,9.2-138.8c1.2-15.3,23-15.6,23.9,0c2,32.8,1.4,66,3.7,99.1 c0.6,6.9,4,16.1,2.9,23c0.9,1.4,1.2,2.3,1.4,3.2c10.7,1.7,22.2-0.3,33.4,1.2C240.8,159.8,239.9,191.8,221.2,195.5z M281.3,192.6 C216.8,173.3,248.2,19,312.1,26.4c5.5-4.9,15-5.5,20.7,0.3c23.3,23,15,74,9.2,104.5C336.6,160.7,319.3,203.9,281.3,192.6z M293.4,155.5c13-9.8,14.1-44.1,15.3-57.9c0.6-12.7,0.6-27.1,0-40.6c-12.1,6.3-17.6,43.2-18.7,52.4c-1.4,11.2-2.6,25.1,0,36.3 C290.5,148.9,291.4,152.9,293.4,155.5z M396.7,187.4c-9.5-20.7-10.1-42.6-15-64.5c-6.3-28.2-14.4-56.4-22.5-84.4 c-4.9-15.8,20.4-27.1,27.4-11.5c9.8,23,19.9,45.8,28.2,69.4L420,112c3.5-6,6.6-12.1,9.8-18.1c10.9-21.3,16.7-53.6,37.7-67.4 c8.1-5.2,18.7-1.2,23.6,6.3c15.3,23.3-2.3,54.7-13,76.6c-12.7,26.2-26.5,52.4-40.6,78C429.5,201.8,403.9,203.9,396.7,187.4z M527.3,205c-8.1-1.7-14.1-10.9-14.1-18.7c0-31.1,10.1-61.1,12.1-91.9c1.7-27.6-1.2-55,10.7-80.9c2.6-5.8,8.9-7.2,14.1-5.8 c16.7-8.1,36.6-8.9,54.4-5.8c8.4,1.4,13,10.7,11.8,18.1c-1.2,8.4-8.1,13-15.8,13.8c-13.8,1.4-27.4-2-41.2-2 c-0.3,23.3,1.7,46.4,0.3,69.7c0,0.9,0,1.4-0.3,2.6c3.5-1.2,7.2-2,10.7-1.7c12.4,0,19.9,16.1,10.4,25.1c-6.6,6.3-15.8,8.4-25.3,8.9 c-1.2,9.5-2.9,19.3-3.5,28.8c8.6-1.4,16.7-3.5,25.9-5.2c20.2-3.7,36,25.6,14.7,35.4C572.2,204.7,549.2,209.6,527.3,205z M708.8,209.6c-20.7-11.5-28.2-37.4-18.1-58.5c4.3-8.9,17.6-9.8,23.9-3.2c6.3,6.9,10.7,21.3,20.2,19.9c12.4-1.7,19.6-24.8,21.9-34 c0-0.6,0.3-1.2,0.3-2c-8.4,4.6-18.1,5.5-29.4,0.6C697,119.8,698.2,69.7,710,44.6c8.1-16.1,30.8-2,23.9,14.1 c-2.9,6.9-5.8,39.7,4.3,43.5c8.4,2.9,16.4-10.7,21-24.5c0-11.8,0.6-23.6,3.5-35.1c5.2-20.4,32.3-16.1,37.2,0h0.3 c6.6,25.1,5.5,56.4,2.9,82.1c-2.9,26.2-9.8,51.3-29.1,70.3C757.2,211.9,731.3,221.7,708.8,209.6z M850.7,192.6 C786.2,173.3,817.6,19,881.5,26.4c5.5-4.9,15-5.5,20.7,0.3c23.3,23,15,74,9.2,104.5C906,160.7,888.7,203.9,850.7,192.6z M862.8,155.5c13-9.8,14.1-44.1,15.3-57.9c0.6-12.7,0.6-27.1,0-40.6c-12.1,6.3-17.6,43.2-18.7,52.4c-1.4,11.2-2.6,25.1,0,36.3 C859.9,148.9,860.8,152.9,862.8,155.5z M1002.9,184c-30.5,20.4-63.1-4.9-70.8-35.4c-8.9-35.4-1.7-73.7,7.8-107.7 c3.2-10.7,19.3-11.2,22.2,0c6.6,26.8,2,54.1,5.8,81.2c1.7,12.4,7.5,39.2,17.6,19.3c10.9-21,10.9-48.7,11.2-71.7 c0.3-21-6.6-47.8,12.4-61.9c5.2-4,15.6-4,21,0c23,17.3,10.9,63.4,7.8,88.1C1034,124.7,1029.4,166.1,1002.9,184z M83.3,341.5 c-8.6,44.6-86.1,44.6-83.2-3.7c0.9-12.4,14.7-23,26.5-15c3.7,2.6,7.5,7.2,11.5,9.2c6.9,3.5,5.8,6,8.4-1.4 c3.2-10.1-8.9-28.2-13.8-36.9C22,274.1,8.4,254.5,8.4,231.2c0-25.1,26.8-70.3,53.3-40c5.8,6.9,2,18.1-7.5,18.1 c-24.5,0.3,7.5,56.7,11.5,65.1C75.5,294,87.6,318.8,83.3,341.5z M144.8,381.8c-15.8,2.6-30.2-6.3-37.7-19.6 c-16.4-29.1-9.2-73.4,0.6-103.4c7.2-23,22.2-63.4,52.4-61.9c15.6,1.2,30,7.5,32.3,21c8.4,48.4,2.3,90.7-12.4,126.7 C173.3,360.8,163.3,378.4,144.8,381.8z M139.1,340.1c4-9.2,8.9-17.6,11.8-27.4c7.5-28.8,8.9-55.6,1.4-84.1 c-7.2,11.8-10.4,30.8-12.1,39.2c-4,21.3-8.1,46.1-2.9,67.7L139.1,340.1z M253.9,381.8c-15.8,2.6-30.2-6.3-37.7-19.6 c-16.4-29.1-9.2-73.4,0.6-103.4c7.2-23,22.2-63.4,52.4-61.9c15.6,1.2,30,7.5,32.3,21c8.4,48.4,2.3,90.7-12.4,126.7 C282.4,360.8,272.3,378.4,253.9,381.8z M248.1,340.1c4-9.2,8.9-17.6,11.8-27.4c7.5-28.8,8.9-55.6,1.4-84.1 c-7.2,11.8-10.4,30.8-12.1,39.2c-4,21.3-8.1,46.1-2.9,67.7L248.1,340.1z M362.9,381.8c-15.8,2.6-30.2-6.3-37.7-19.6 c-16.4-29.1-9.2-73.4,0.6-103.4c7.2-23,22.2-63.4,52.4-61.9c15.6,1.2,30,7.5,32.3,21c8.4,48.4,2.3,90.7-12.4,126.7 C391.4,360.8,381.4,378.4,362.9,381.8z M357.2,340.1c4-9.2,8.9-17.6,11.8-27.4c7.5-28.8,8.9-55.6,1.4-84.1 c-7.2,11.8-10.4,30.8-12.1,39.2c-4,21.3-8.1,46.1-2.9,67.7L357.2,340.1z M472,381.8c-15.8,2.6-30.2-6.3-37.7-19.6 c-16.4-29.1-9.2-73.4,0.6-103.4c7.2-23,22.2-63.4,52.4-61.9c15.6,1.2,30,7.5,32.3,21c8.4,48.4,2.3,90.7-12.4,126.7 C500.5,360.8,490.4,378.4,472,381.8z M466.2,340.1c4-9.2,8.9-17.6,11.8-27.4c7.5-28.8,8.9-55.6,1.4-84.1 c-7.2,11.8-10.4,30.8-12.1,39.2c-4,21.3-8.1,46.1-2.9,67.7L466.2,340.1z M690.9,357.4c-8.6-23-9.2-48.4-10.1-72.6 c-0.3-2.9-0.3-5.5,0-8.4c-2.9,5.8-6,11.2-10.1,15.6c-10.1,11.2-24.8,11.8-28.2-2.6c-1.2-4.9-2.3-9.8-3.2-14.7 c-1.2,4.6-2,9.2-3.2,13.8c-4.6,18.1-5.8,39.2-8.4,60.2c-1.4,11.2-25.9,24.2-28.2-4.6c-1.7-20.2-3.5-38.9,0-61.3 c4.6-28.8,2.3-57.6,15-84.1c5.2-10.7,23.3-13.5,30.5-4c9.5,12.1,15.6,24.2,20.2,37.4c6.3-9.2,13-18.1,23.3-25.1 c7.5-5.5,19.9-1.7,23.9,6.3c9.2,17.3,9.5,35.1,10.1,54.1c1.2,26.5,4.6,52.7,9.2,78.3C737,372.9,700.4,382.7,690.9,357.4z M787.3,377.2c-57,1.2-45.8-120.4-31.7-152.6c4.6-9.8,22.2-5.2,20.7,5.8c-2.6,20.2-0.3,42.9,1.7,63.1c1.2,12.7,2.6,25.6,6.3,37.4 c0.6,2.9,1.4,7.2,3.5,10.1c17-10.9,15.3-46.4,15.3-63.6c0-22.8-2.9-45.2-3.2-68c-0.6-25.3,39.5-25.3,39.5,0 C839.4,251.4,855.5,375.8,787.3,377.2z M864.4,364c-16.1-34.6-7.2-78.9,7.5-112.3c9.5-21.3,25.9-53.9,49.2-62.5 c26.2-9.5,36.6,24.8,25.3,43.2c-3.2,4.9-9.8,4.6-13,0c-0.9-1.4-3.7-7.8-5.5-12.7c-1.2,2.3-3.5,4.6-4.9,6.6 c-7.8,11.2-14.4,24.2-19.3,36.9c-6.9,17.9-11.8,38.6-12.1,57.9c-0.3,8.9-0.3,27.1,7.8,33.1c8.4,6,18.1-5.2,23.9-10.7 c12.4-11.5,30.2,3.2,22.8,17.9C928.6,396.5,882.2,402.3,864.4,364z M977.2,392.5c-5.2,0-10.9-2.9-13.5-7.8c-5.8-10.9,0-21.6,2-32.8 c2-10.7,3.2-21.9,4-32.8c-6.9-4.3-8.1-16.1,1.7-19.3c2.6-34.3,3.7-68,4.6-102.5c0.6-13.5,18.4-15,22.8-2.9 c12.4,32.5,11.8,65.7,9.5,99.4h1.2c4.6-0.6,9.2-1.4,13.8-2.9c0-1.7,0.3-3.7,0.6-5.5c2.3-30.2,5.5-60.2,8.1-90.1 c1.4-15.6,23-15.6,24.2,0c2.6,31.4,4.3,62.8,4.3,94.2v10.9c0.3,26.5,1.7,54.4-4,79.5c-5.5,23-35.1,14.7-37.7-4.9 c-2.3-17-0.9-35.1,1.2-52.7c-4.6-0.3-8.9-0.6-13.5-1.2C1005.4,344.1,1005.4,393.1,977.2,392.5z"/>
</svg>
