<svg xmlns="http://www.w3.org/2000/svg" width="116" height="176" viewBox="0 0 116 176">
  <g fill="#474747" fill-rule="evenodd" transform="rotate(-7 84.558 46.2)">
    <path d="M18.1941773 23.3753005C16.8164751 23.2352426 15.921727 22.4644593 15.2906351 21.4506679 14.9411712 20.8891961 15.1825963 18.6209825 15.9383483 18.0427659 16.4162122 17.6772717 18.3748306 17.0018931 18.9427614 17.3130179 19.2135855 17.4613449 19.517964 17.5517882 19.7804774 17.7117952 22.0039986 19.0672037 21.770157 21.2336041 20.256783 22.5969716 19.7492085 23.0541494 18.8917546 23.1268141 18.1941773 23.3753005M92.3364031 21.0637361C90.9409368 21.2417285 89.3321978 19.4596345 88.8338689 18.1179733 88.2293712 16.4903047 88.9449203 15.3406934 90.4126895 14.6952902 91.5643413 14.1889114 92.8271484 14.1184173 94.0211847 14.7581354 94.5670922 15.0506547 96.5106475 17.1209268 96.2551982 18.030631 95.7069013 19.9828616 94.0537002 21.05433 92.3364031 21.0637361"/>
    <g transform="translate(0 .988)">
      <path d="M59.8249682,102.142686 C61.222616,102.041596 61.5033091,101.61274 60.9313269,100.290201 C60.3985087,99.0580022 57.3451665,91.6051675 55.2811064,89.7082364 C54.6209271,89.1012846 53.8282965,88.828301 53.0117726,89.332716 C52.5491796,89.6185167 50.6108185,91.7592828 50.026578,92.4295966 C49.7118112,92.7907495 45.0175262,99.5664484 44.5122371,100.617864 C44.0027927,101.677756 44.4680867,102.374531 45.6543317,102.395927 C46.8248903,102.417117 58.6199203,102.229822 59.8249682,102.142686 M48.4025682,85.5355462 C48.4164885,84.5457351 47.9818402,84.0464883 47.1762241,83.9624536 C44.9435612,83.7296785 29.6947184,83.7969683 29.2590313,83.9840566 C28.6659607,84.2387449 28.4912287,84.7026413 28.7171752,85.3415325 C29.419739,87.3273564 36.1287394,95.0926596 37.7429842,96.8774411 C38.5019567,97.7166512 38.9051283,97.6775797 39.7593619,96.9103107 C40.9946399,95.8009079 46.888467,88.3229558 47.1186727,87.8692924 C47.5632938,86.9929747 48.4305128,86.3176995 48.4025682,85.5355462 M59.6218761,84.2067021 C58.7957949,84.3859348 58.61483,84.955779 59.044388,85.6791184 C59.2027064,85.9456934 65.0016879,97.1666528 66.4950124,99.0552114 C67.4632061,100.279658 68.0937786,100.457961 69.1913071,99.3785332 C70.3886677,98.2009102 77.2425856,86.9792273 78.4492956,85.3051484 C78.8040576,84.8129304 78.7619848,84.4963273 78.2596045,84.2285119 C78.0222308,84.1019947 77.7553542,84.0060731 77.4905553,83.9582157 C74.5091005,83.4184503 60.6647619,83.9803356 59.6218761,84.2067021 M30.525786,102.807108 C31.1859652,102.737648 31.9209406,102.738991 32.6137393,102.569681 C33.7474193,102.292563 34.0692502,101.435678 33.4064738,100.453619 C32.7393344,99.4653587 30.8968576,97.0884064 30.7247228,96.8336149 C30.0905143,95.8950722 25.8435515,90.2432471 24.5170638,88.2355101 C23.6063176,86.856948 22.6206715,86.7246425 21.4547877,87.8591627 C20.1716194,89.1075898 11.6830955,98.5036626 11.1868443,99.2369249 C11.0483677,99.441585 9.52273546,101.607262 12.3150185,101.587313 C14.5736523,101.767786 21.7754758,102.1124 23.9252398,102.235817 C24.057899,102.243362 24.1712358,102.250184 24.2630688,102.255973 C26.3299337,102.387451 28.3906696,102.614645 30.525786,102.807108 M80.0316482,102.220002 C84.5242955,101.687575 98.0690342,101.283423 100.067336,100.986046 C101.223559,100.814049 101.536352,100.474189 101.252438,99.3476274 C100.82153,97.6373712 99.7478945,96.3146256 98.6119291,95.0544151 C97.0049561,93.2715975 90.1917605,86.5916134 88.2175596,85.2636996 C87.6043356,84.8512783 86.8581409,84.7374748 86.2767053,85.2241113 C85.5453658,85.8362313 84.9287137,86.5863418 84.2784034,87.2913858 C83.7892162,87.8217451 76.5071947,98.770341 74.9313867,100.976536 C74.4603792,101.635997 74.7524995,102.068677 75.581801,102.138861 C76.51135,102.217625 79.4847019,102.284811 80.0316482,102.220002 M15.4721402,85.631261 C16.8656327,84.5737467 21.4380624,80.6477857 22.4790784,79.9438787 C22.7908326,79.7331201 23.2760722,79.7332234 23.6851652,79.716065 C25.092578,79.6573544 26.5023802,79.6542535 27.9095854,79.5916151 C29.6864078,79.5126452 37.6934318,79.040273 38.0281443,79.068698 C40.8524234,79.3080884 62.5109785,79.5535773 63.1309549,79.5442745 C66.9667471,79.4867009 70.802851,79.4478362 74.638851,79.4060772 C75.513134,79.3966711 83.1971845,77.8958298 84.2117102,78.1894862 C85.5889969,78.5882634 88.9282262,80.6859269 89.3805347,80.9902297 C89.7331152,81.2274494 92.8717456,83.8162973 93.1477639,84.0111379 C95.0604658,85.3616884 99.0454347,89.988042 99.7094577,90.8247714 C100.925309,92.3570353 106.170592,99.1073067 107.538114,100.979017 C108.482207,102.271064 108.367208,103.976875 107.336996,105.168039 C105.765758,106.984656 84.5602391,137.751179 83.3566456,139.342361 C81.4238941,141.897615 79.4247612,144.402945 77.4641689,146.937424 C76.4113103,148.298517 56.6839484,171.84374 56.2429632,171.984832 C55.9192624,172.088402 55.554216,172.086438 55.250253,172.224532 C54.3882282,172.616384 47.5384657,165.992527 46.9075815,165.414 C46.3364304,164.890153 21.583707,134.142235 20.5292901,132.922336 C19.6102333,131.859137 1.56983464,109.023816 0.792474841,108.061706 C-0.550114769,106.399824 -0.126581975,103.513289 1.60806375,102.30476 C2.68720495,101.552996 7.97009353,95.0292977 9.51172381,93.2263242 C10.2686186,92.3411172 14.1874137,86.606291 15.4721402,85.631261 M63.9568282,151.798516 C65.0531102,151.758205 66.2779999,151.541761 67.111249,150.629163 C67.9549903,149.704988 81.9089259,131.243296 83.337531,129.138914 C85.096901,126.547378 86.8301962,123.937031 88.6483642,121.386738 C89.7647996,119.820777 99.3870035,107.724327 99.9143158,106.881396 C100.428954,106.058931 99.9072517,105.261066 98.9349027,105.313988 C98.0044187,105.364637 97.0785056,105.50211 96.1479177,105.547797 C94.046979,105.650851 74.6041539,106.474763 73.7421291,106.495746 C72.9155285,106.515798 72.3962152,106.914782 72.1963435,107.74469 C71.7293874,109.683793 70.2054173,116.108986 69.8556417,117.366612 C68.9153927,120.746813 65.9529486,136.407451 65.5312857,138.776858 C65.1044286,141.175516 63.9568282,150.665547 63.9568282,151.798516 M45.0626116,149.570201 C44.8061234,148.752594 42.6195847,137.748078 42.5624488,137.587141 C41.6370551,134.981858 37.9884608,112.165453 37.4472281,109.26424 C37.2694835,108.31164 36.712876,107.612591 35.7571484,107.481422 C33.7112678,107.200583 7.35499967,105.504694 6.85729409,105.630075 C5.23629686,106.038155 4.92568536,107.07603 6.06435178,108.219233 C6.59883209,108.755897 10.3141195,113.069886 11.5859645,114.733111 C13.6322606,117.409095 15.5995013,120.146373 17.6934799,122.784422 C20.3413649,126.12059 23.131882,129.345124 25.7643923,132.692972 C27.1988148,134.517135 43.1306912,151.182262 44.3184945,152.302415 C44.6981885,151.876763 45.2504329,150.168987 45.0626116,149.570201 M42.7859021,107.116135 C41.6503522,107.237381 41.0206107,108.032971 41.1198194,109.179482 C41.1820456,109.898686 41.7080075,115.138297 42.4210634,116.979825 C43.111265,118.762023 46.7964263,137.925244 47.2596425,139.788478 C47.9458965,142.54891 51.1040571,155.615842 52.5215467,158.289035 C52.7813591,159.406914 54.2801894,159.896134 55.0830007,159.127315 C55.3173617,158.902912 56.8549406,155.944022 56.9753415,155.633207 C57.7470916,153.642319 60.3844844,143.064385 60.8016803,139.759847 C61.0634666,137.685647 67.3294042,110.104794 66.6495909,108.48343 C66.2846484,107.613108 65.9185632,107.034994 65.0102063,106.965431 C61.571145,106.701956 43.7133735,107.017112 42.7859021,107.116135"/>
      <path d="M99.7094265,90.8247714 L94.5127612,85.7542638 C94.5127612,85.7542638 98.8880201,75.2576775 99.5372916,72.8097143 C100.018064,70.9967146 100.837185,64.3546649 101.052951,61.0711094 C101.268613,57.787554 100.23435,52.2427103 99.9878341,50.3736874 C99.8492536,49.3233052 98.1021419,39.9098673 96.7986124,37.1095372 C96.6709397,36.8354166 96.3415253,36.6543234 96.0834788,36.4089379 C95.3722928,37.0558915 95.4566461,42.0359558 95.1514366,43.7029026 C94.4705845,47.421516 93.5577607,57.8403728 90.974595,63.6022804 C88.3913254,69.3641879 85.0488757,75.41386 83.7267511,76.919146 C83.0529631,77.6863116 82.3928877,78.7630515 82.3928877,78.7630515 L75.4942999,79.8785528 C76.7218906,78.1344967 81.7743657,71.1559981 82.3219353,70.0830826 C83.5261522,67.7235988 84.7764933,65.385408 85.9109005,62.9930546 C87.5311705,59.5757464 88.4517856,55.9385836 89.0096397,52.2162491 C89.4122919,49.5296192 89.6928811,46.8250039 90.0544994,44.1319654 C90.1456051,43.4534859 90.4283759,42.7938186 90.4680593,42.1165795 C90.5764098,40.2668856 90.6785272,38.4104731 90.6328185,36.5603658 C90.6039389,35.3921489 90.1150634,34.3626462 88.9241436,33.8201934 C86.1182518,32.5421009 83.5639658,30.841871 81.1467019,28.9630285 C79.3720611,27.5836396 77.8218085,25.9258922 76.6294343,24.0128364 C75.1728846,21.6757825 74.7123693,19.0805261 75.186805,16.3784949 C75.4413194,14.9288187 76.8995313,9.64992983 80.0072045,6.51914593 C83.9353491,2.56165896 89.7350578,0.782355784 90.5878369,0.585757978 C93.3892617,-0.0599552179 96.1142283,0.156901879 98.8258978,1.39302868 C99.394348,1.65216154 104.306684,4.08172591 106.601366,6.93260084 C109.91878,11.0542294 110.832746,16.0627187 110.940993,16.7186649 C111.150733,17.9890051 111.154993,23.1540905 109.302335,26.4339249 C107.258636,30.0516553 103.302859,31.766873 102.72589,32.2802806 C101.958711,32.962998 101.468277,33.6582224 101.745334,34.6878285 C102.200136,36.3780322 102.652652,38.0705098 103.178302,39.7395239 C103.479876,40.6968787 105.114482,47.6076741 105.608967,54.304093 C106.075819,60.6265421 105.414497,66.7617994 105.336793,67.3876667 C105.140245,68.972336 104.485364,73.9749336 103.246346,78.619686 C101.883603,83.7281281 99.7094265,90.8247714 99.7094265,90.8247714 M106.641776,17.6772601 C106.409077,16.4651137 106.297611,15.2125521 105.906593,14.0533279 C105.57479,13.0696153 104.31032,9.94803081 101.508272,7.40673025 C100.345089,6.35180006 96.1040477,3.9276106 92.5780359,4.45187142 C87.6096025,5.19061196 83.090465,9.39369115 82.1540597,10.7226386 C80.223282,13.4627076 79.483528,17.6373617 79.8686239,19.2724725 C80.8182225,23.3043814 85.5536453,26.6885098 86.3519896,27.2937044 C87.035231,27.8115566 91.8241538,30.6455833 95.5204306,30.4305867 C100.124545,30.1628747 103.795578,26.6557435 104.592883,25.4002876 C106.37303,22.5972701 106.626402,18.4355364 106.641776,17.6772601 M10.0218642,93.4040064 C9.32750731,91.4651097 5.53368399,75.0976704 5.18993368,70.6156125 C4.84628725,66.1335546 6.08364293,54.6395083 6.13007883,53.7882047 C6.29660399,50.7352537 8.18956808,40.2464196 8.25179426,39.9101774 C8.32575927,39.5101598 9.54597419,35.3067705 9.80620221,34.3713288 C9.96109242,33.8145084 9.74356049,33.4296852 9.34797234,33.1023323 C7.26469379,31.3778119 5.91618282,29.0824137 4.41423601,26.8981314 C3.21552497,25.1551089 3.01658818,23.1748666 2.82139119,21.1758122 C2.81484653,21.1088325 3.40885206,12.9701794 6.33618358,8.49297964 C9.26351511,4.01577986 13.6431372,3.60015432 14.2978106,3.39745805 C15.5727721,3.00281534 19.7381865,2.80239308 23.3004536,3.42970753 C25.7675815,3.86414527 31.9877065,6.21329267 34.3623781,8.97444788 C35.9859724,10.3950789 38.0962607,15.5893129 38.2137528,16.400408 C38.3308295,17.2093326 38.3681236,25.4542435 33.3618767,30.6306989 C29.7703144,34.3445576 24.6717151,35.1091391 23.96323,35.3652744 C22.9848557,35.7190884 22.6470268,36.535145 22.4981618,37.4200419 C22.35179,38.289951 22.2469716,39.1932466 22.3141842,40.067497 C22.5441822,43.0591533 22.8577024,46.0445044 23.1395382,49.0322329 C23.1486799,51.7226873 27.6061107,62.9674204 29.5737669,66.6497531 C30.4960441,68.3755139 32.1638928,70.2538395 33.022905,72.0162944 C33.850025,73.71332 38.0561617,79.0517464 38.4602683,79.5588488 C38.6270012,79.7681604 33.8231191,80.4603872 31.4527068,79.8726611 C30.6155101,79.6651067 29.4673903,77.7217653 29.2700118,77.2981808 C29.2263807,77.2046366 29.169037,77.1176043 29.1235361,77.0247837 C28.6156499,75.9906296 22.8351597,67.7899584 19.9122951,58.8121986 C16.9895345,49.8344388 16.9243996,40.0795905 16.3430678,38.130254 C16.0787883,37.2443235 15.1206714,37.0271564 14.9085414,37.0310842 C14.3463242,37.0414205 13.9870952,37.2867027 13.8089351,37.7990767 C13.3581849,39.0960847 12.8950725,40.3892683 12.4760067,41.6964059 C11.980171,43.2430374 10.5213358,56.4370035 10.786758,67.9024181 C10.9821628,76.3412394 13.4642499,86.729914 13.724374,87.5812177 C14.2057699,89.1564809 10.3163738,94.226575 10.0218642,93.4040064 M17.8476117,7.11038645 C17.8448069,7.13622738 15.6621119,7.00123435 13.9261157,7.92251524 C12.4024572,8.73112967 11.3288218,10.5553961 10.9353113,11.2712932 C10.3066088,12.4152196 9.46941209,13.45971 8.94926769,14.6457054 C8.5307213,15.5999593 7.19322198,20.7603934 8.13461374,23.8426997 C9.50286256,28.3225869 13.4987392,30.9827558 13.9420098,31.3354328 C14.1255719,31.4814857 20.0337349,32.1371218 21.4430177,31.5261389 C22.7561044,30.9567081 28.3031686,30.7135966 31.3986874,26.8704299 C33.7859289,23.9065784 34.0829316,17.3166241 33.7755405,15.989744 C33.4715776,14.6777482 30.5700091,10.5466101 26.8832897,8.70384164 C23.0252664,6.77548797 18.370561,7.16248176 17.8476117,7.11038645"/>
    </g>
  </g>
</svg>
