<svg xmlns="http://www.w3.org/2000/svg" width="210" height="196" viewBox="0 0 210 196">
  <g fill="#FD9A59" fill-rule="evenodd">
    <path d="M68.3773384,57.3561679 C68.462881,57.2338381 68.548022,57.1115083 68.633163,56.9891784 C69.9175069,60.8679194 71.1966299,64.7450507 72.4572789,68.6314373 C72.1082811,68.2221957 71.7544641,67.8181854 71.389402,67.4254422 C69.4733279,65.3671623 67.6604673,63.2155254 65.6636699,61.2357137 C66.5684938,59.9423976 67.4733177,58.649484 68.3773384,57.3561679 M39.8020922,40.4207294 C40.947078,39.9631997 42.1017023,39.5720662 43.270383,39.177311 C44.5920765,38.7330606 45.9129668,38.2888101 47.233857,37.8441573 C46.617388,41.5043946 46.0069431,45.1642296 45.4390688,48.8329173 C43.7454858,48.3037603 42.020979,47.8731915 40.277195,47.5460397 C38.6410421,47.2394103 36.9860136,47.0273451 35.3358044,46.8197063 C33.6900128,46.6140795 32.0410084,46.431792 30.3859799,46.3090598 C28.862679,46.1967899 27.3325507,46.1283818 25.8024224,46.1002138 C26.0811387,45.9650071 26.359855,45.8293981 26.6385712,45.6933866 C31.0265454,43.9348953 35.414118,42.1780135 39.8020922,40.4207294 M56.3134214,34.8092507 C58.0190526,34.297397 59.725487,33.786348 61.4315198,33.275299 C62.5740959,37.4707294 63.8447852,41.6339677 65.0592492,45.809278 C65.4206968,47.0478676 65.8219037,48.2767995 66.2235121,49.5049266 C66.0484109,49.7479767 65.8745144,49.9918315 65.702626,50.237296 C64.1777186,52.4175034 62.6495983,54.5944915 61.1234861,56.7730892 C61.0540079,56.8716774 60.9849312,56.9702656 60.9154529,57.0684514 C59.8536001,56.2322626 58.7672492,55.4294731 57.66885,54.6604852 C55.7294827,53.3015778 53.6692312,52.1841109 51.5330758,51.2026554 C51.7872939,49.5644819 52.0415121,47.9267108 52.2957302,46.2885373 C52.6346878,44.0990748 53.031477,41.9172578 53.4001536,39.7338313 C53.6371026,38.3294526 53.8736499,36.925074 54.1105989,35.5210977 C54.8415264,35.2732188 55.5740602,35.0305712 56.3134214,34.8092507 M76.8693496,28.803017 C78.93683,28.2199382 81.0091297,27.65537 83.079823,27.0835585 C83.1115501,27.0747057 83.1428756,27.0658529 83.1746026,27.057 C82.9336376,27.3668486 82.6930741,27.6762948 82.4525106,27.985741 C80.5541073,30.4234848 78.6577121,32.8632407 76.7609153,35.3009845 C74.7761662,37.8518029 72.8641083,40.4581527 70.9568696,43.068124 C70.2038537,40.4802847 69.4500346,37.8916406 68.6974204,35.3042037 C68.3231213,34.0185332 67.9584608,32.7308508 67.5990212,31.4411564 C70.6837759,30.5429979 73.7769643,29.676629 76.8693496,28.803017 M55.5322929,27.9181377 C55.8162301,26.4594349 56.0812917,24.9959033 56.3901286,23.5420294 C56.7367168,21.9090871 57.0829033,20.2777544 57.4282866,18.6464217 C57.7740715,19.8262607 58.0933502,21.0145502 58.4154402,22.1947916 C58.6335136,22.9947643 58.8499806,23.7967491 59.068054,24.5967218 C59.2909467,25.4148025 59.5138394,26.2332857 59.7367321,27.0513664 C58.3045962,27.4771064 56.8732636,27.9068705 55.4467503,28.3503161 C55.4756662,28.2062566 55.5041804,28.0621971 55.5322929,27.9181377 M54.4463436,7.15023427 C54.2379088,7.39891794 54.0214419,7.6391512 53.8190312,7.89387088 C53.3089884,8.53046889 53.1399113,8.82905026 52.8306727,9.58355169 C52.5720369,10.2185401 52.4700283,10.8680149 52.3680198,11.5420362 C52.2752482,12.1661598 52.1262515,12.7810282 51.9929175,13.3971037 C51.7780569,14.3906312 51.56159,15.3853659 51.3499423,16.380503 C50.9105826,18.4520621 50.4447168,20.522414 50.038289,22.6020212 C49.5149932,25.2824127 48.9933038,27.9632066 48.4700079,30.6452076 C46.576424,31.2822081 44.6824384,31.9192085 42.7888544,32.5566113 C41.4603336,33.0028737 40.1093227,33.4052745 38.807308,33.9271883 C34.0506572,35.8325559 29.2944081,37.7359115 24.5377573,39.6424863 C23.8991998,39.8988156 23.2859437,40.1849225 22.6678683,40.4835039 C21.3999903,41.0967627 20.132514,41.7080094 18.8650376,42.3196586 C16.5951465,43.4149935 14.2778656,44.444737 12.0674126,45.6567681 C11.0649978,46.2052404 10.0830651,46.7867095 9.0882809,47.3464489 C7.83486085,48.0506503 7.23405458,49.6083436 7.61036172,50.9821398 C7.9746206,52.3056359 9.29390444,53.4235053 10.7087711,53.3462443 C12.0658061,53.2709954 13.4152106,53.1293503 14.7674263,52.9973629 C16.0413284,52.8746306 17.3196482,52.7977721 18.5967631,52.6987815 C21.2120375,52.4943619 23.8473923,52.5020075 26.4686909,52.566794 C29.6389882,52.644055 32.7863938,52.9289547 35.9297833,53.3341723 C37.9245726,53.6162552 39.9032975,53.9735871 41.850697,54.4906721 C42.7209826,54.7216501 43.5844408,54.9828082 44.4398669,55.2685128 C44.3358503,55.940522 44.2314321,56.6121289 44.1270139,57.2837358 C43.8165705,59.2957396 43.5607459,61.323437 43.3410661,63.3483177 C43.1715873,64.9044014 43.0743981,66.47135 43.1466876,68.0370914 C43.2282141,69.814898 43.4964886,71.5975333 43.7820322,73.3499887 C43.9089405,74.1326581 44.6041247,74.8903788 45.2583449,75.2738667 C46.0001158,75.7092643 46.9053413,75.8271678 47.7338596,75.5994089 C48.5370765,75.3776861 49.2334656,74.8384691 49.6539497,74.1201837 C49.7619824,73.8626472 49.8704167,73.6063179 49.9784494,73.3499887 C50.130659,72.7793844 50.130659,72.2087801 49.9784494,71.6381758 C49.932666,71.3617265 49.886481,71.0848748 49.8435089,70.8072182 C49.7354762,69.8853181 49.6322628,68.9638203 49.5724232,68.0370914 C49.5065594,66.996483 49.5583669,65.9510458 49.6270419,64.9120471 C49.7483277,63.0779044 50.0129877,61.2550289 50.2559608,59.4333607 C50.3386922,58.8993748 50.4214235,58.3657914 50.5041548,57.832208 C51.0125912,58.0994021 51.5150034,58.3774611 52.0117931,58.6671896 C53.4575836,59.5106216 54.8302813,60.4751762 56.1636215,61.486007 C56.5455511,61.7861979 56.9250711,62.0896081 57.3017799,62.3966399 C56.0318939,64.3591484 54.7620079,66.3216569 53.4925235,68.2853727 C51.3527536,71.5943141 49.4137878,75.027195 47.4137776,78.4226527 C47.0607638,79.021425 46.7438947,79.6455486 46.4129693,80.2567954 C45.7836488,81.4217456 45.1531235,82.5862934 44.523803,83.7528532 C44.0972948,84.5403515 43.6972928,85.3419338 43.2876522,86.1370777 C43.0507032,86.5978266 42.8141558,87.0569659 42.5772068,87.5173123 C42.3591334,87.9402355 42.1378471,88.3599395 41.9181673,88.7812531 C41.6205754,89.3518574 41.367562,89.9421793 41.1209744,90.5357205 C40.8233826,91.214973 40.5245859,91.8922134 40.5330196,92.6575797 C40.5394454,93.2796913 40.6004899,93.9573342 40.9643471,94.4901128 C41.17479,94.7999614 41.3928634,95.1049811 41.657925,95.368956 C42.6430706,96.3576547 44.2149661,96.5620743 45.4197916,95.8562634 C46.4326481,95.2623198 47.0495187,94.0458623 46.9631729,92.8813145 C47.100523,92.5807211 47.2394796,92.2809326 47.3900827,91.9863752 C47.6049433,91.563452 47.8326553,91.1453576 48.0507287,90.7224344 C48.3471157,90.1437821 48.6418963,89.5655322 48.938685,88.9868799 C49.3575626,88.1712136 49.771621,87.3555472 50.2061614,86.5475265 C51.2085761,84.6832038 52.1764525,82.7971514 53.2479439,80.9722639 C54.6599993,78.5638954 56.0716531,76.1575388 57.485315,73.7523894 C58.442348,72.1254831 59.5230764,70.5645706 60.5459731,68.9803188 C61.0391483,68.2173669 61.5319219,67.4548175 62.0246955,66.6918656 C63.4251043,68.138094 64.7427817,69.6652049 66.0917846,71.1573069 C66.8054428,71.9448052 67.5347638,72.7166099 68.2235224,73.5262402 C68.9608755,74.3938162 69.6717225,75.2819147 70.4247384,76.1337971 C71.2781564,77.0991566 72.2163138,77.9699518 73.2532669,78.7353181 C74.1111026,79.3686969 75.0918305,79.7710976 76.0251686,80.272489 C76.7970601,80.686157 77.6456588,80.8338381 78.5022896,80.5980312 C79.5516926,80.3070955 80.4882436,79.4298618 80.7456746,78.3486109 C80.9448724,77.5108126 81.1472831,76.7168758 81.1910584,75.8460806 C81.2163597,75.34147 81.0749935,74.8151298 80.9858365,74.3197745 C80.9227839,73.9789411 80.7926628,73.6453508 80.6814172,73.3186014 C80.460131,72.6711386 80.252901,72.0216637 80.0504903,71.3677625 C79.7336212,70.346067 79.4296036,69.3195426 79.1014895,68.3026759 C78.4585143,66.3128041 77.8243745,64.3181035 77.1673431,62.3326582 C75.8597059,58.3855091 74.5629121,54.4355432 73.2882068,50.4779317 C74.1874082,49.2534261 75.0866096,48.0285182 75.9858109,46.8040127 C77.474172,44.7755105 78.9621314,42.7466058 80.4516972,40.7193108 C82.3701809,38.2433389 84.2974999,35.7762198 86.2224094,33.3046743 C87.154141,32.1071296 88.0858727,30.9091825 89.0180059,29.7100283 C89.6404991,28.9112628 90.3718281,28.2151094 91.0806671,27.4968241 C91.8260524,26.7423226 92.5288672,25.9061339 93.0622033,24.9866481 C93.335297,24.516644 93.5280691,23.9806462 93.6959415,23.4631588 C93.9626095,22.6398469 93.7569859,21.7642228 93.5955393,20.948154 C93.4433297,20.171923 92.8079851,19.4471992 92.1461344,19.0588825 C91.3899056,18.6158392 90.5553632,18.5494431 89.714395,18.7397787 C87.050526,19.3417702 84.4211953,20.0773588 81.7842341,20.7847793 C79.6428577,21.3586028 77.505899,21.954156 75.3677355,22.5404539 C72.2050688,23.4084323 69.0448117,24.2953236 65.8982093,25.2220526 C65.6331477,24.2422067 65.3680861,23.2623608 65.1018197,22.2829174 C64.7094482,20.8431274 64.2969963,19.4093735 63.8937814,17.9728028 C63.3949837,16.1885578 62.8740975,14.4139705 62.1869454,12.6929024 C61.8246945,11.7858911 61.4463793,10.8853182 60.9556138,10.0394718 C60.5082219,9.26927669 59.9700666,8.55421054 59.4933573,7.80252591 C59.0383349,7.08585015 58.3997775,6.55146194 57.5732672,6.3220935 C57.3053944,6.24845416 57.0150314,6.21103089 56.7194476,6.21103089 C55.8732585,6.21103089 54.9824909,6.51685547 54.4463436,7.15023427" transform="rotate(-9 689.294 -671.983)"/>
    <path d="M116.631433,51.3908518 C117.575309,50.822765 118.558984,50.3163119 119.524696,49.7880229 C121.950247,48.4591999 124.375446,47.1300247 126.802406,45.8026105 C126.874605,45.7628127 126.946805,45.7233671 127.019004,45.6835693 C126.706961,47.6910677 126.394566,49.698566 126.082876,51.7071209 C125.861347,53.136671 125.667289,54.5743215 125.414062,55.9982365 C124.700167,60.0266165 123.992964,64.0546442 123.272026,68.0816154 C122.885671,70.2363303 122.471844,72.3868188 122.05837,74.5373074 C121.642431,73.0288661 121.190919,71.5302862 120.678831,70.0500203 C119.733898,67.320527 118.685421,64.6283661 117.504871,61.9911473 C116.407086,59.5367165 115.115243,57.168925 113.702599,54.8810813 C113.443385,54.4612677 113.177831,54.0449759 112.906643,53.6325583 C114.148122,52.8848532 115.389602,52.1375003 116.631433,51.3908518 M133.987489,35.4551894 C134.404485,35.4904086 134.821833,35.5259801 135.238829,35.5608472 C134.782387,35.7756847 134.325946,35.99017 133.869152,36.2050076 C133.908597,35.9549508 133.948043,35.7052462 133.987489,35.4551894 M108.137602,38.8151076 C109.920401,36.8319106 111.70144,34.8469526 113.484239,32.8637556 C113.957234,32.9158801 114.429876,32.9676524 114.902519,33.0194247 C118.530808,33.5255256 122.160506,34.0386704 125.794078,34.4993384 C126.771765,34.622958 127.749804,34.7469299 128.727843,34.8705495 C128.510892,36.2236738 128.293589,37.5767981 128.078047,38.9299224 C128.074173,38.9320356 128.070299,38.9341487 128.066777,38.9362619 C127.620901,39.1824446 127.173969,39.4244009 126.726684,39.6681183 C124.436023,40.9201633 122.143953,42.1718561 119.853292,43.4239011 C118.040204,44.4142669 116.227116,45.4049849 114.412267,46.3953508 C113.350406,46.9761165 112.327991,47.6378866 111.290783,48.2609154 C110.749815,48.5852849 110.209199,48.9096544 109.668584,49.234376 C109.378729,48.8818311 109.084296,48.5335126 108.785636,48.1894203 C107.2941,46.4735375 105.643373,44.9009972 103.922208,43.4154484 C105.33767,41.8915107 106.745736,40.3619379 108.137602,38.8151076 M96.2852615,37.8092453 C93.9769906,36.3691294 91.6327961,34.9931125 89.2361249,33.7054961 C87.3973269,32.7175956 85.5507806,31.7430784 83.70353,30.7706744 C84.3888969,30.7921582 85.0742639,30.8132897 85.7596309,30.8344213 C88.1686288,30.9101427 90.5772746,30.985512 92.9848638,31.0598246 C93.3824894,31.0725036 93.7772974,31.1066663 94.1735141,31.1341373 C95.4023144,31.2197201 96.6321713,31.3049507 97.8606194,31.3915901 C99.9311602,31.5359891 102.001701,31.6817969 104.072242,31.8233784 C104.614266,31.8607108 105.156291,31.9431239 105.695498,32.0022923 C106.429115,32.084001 107.162028,32.1650053 107.894941,32.2456574 C106.903871,33.3638692 105.912801,34.4817288 104.922435,35.5999405 C104.105348,36.5230376 103.301644,37.4598701 102.466595,38.3667663 C101.780876,39.1113016 101.094453,39.8565414 100.408381,40.6010767 C99.0739232,39.6166981 97.6982585,38.6904314 96.2852615,37.8092453 M120.900361,24.639352 C122.06964,23.3432829 123.224128,22.0338305 124.408552,20.7529057 C125.970174,19.0662549 127.528627,17.3781953 129.08884,15.6915446 C130.348986,14.3282067 131.646464,13.0004403 132.932671,11.6631646 C132.93408,11.6617559 132.935489,11.6603471 132.93725,11.6585861 C132.867868,11.9530192 132.802712,12.2481567 132.744248,12.5450551 C132.581888,13.3720035 132.419527,14.2000085 132.257166,15.0283657 C131.737329,17.6726284 131.217141,20.3154824 130.698361,22.9593928 C130.278547,25.0996678 129.926707,27.2529739 129.587898,29.4083931 C128.107984,29.2153915 126.627718,29.0220377 125.147804,28.8315015 C123.192431,28.5603131 121.237409,28.2940555 119.280979,28.0235715 C118.856586,27.9651075 118.431842,27.9052347 118.007098,27.845362 C118.971401,26.7768094 119.936057,25.7082568 120.900361,24.639352 M135.835444,2.21031293 C135.400838,2.33287599 135.022583,2.55299642 134.702088,2.87208299 C134.272765,3.21899278 133.844851,3.55885873 133.444407,3.93993121 C132.975287,4.38686373 132.551599,4.88486419 132.108541,5.35821116 C131.789454,5.6980771 131.46755,6.0351255 131.147055,6.37358268 C130.578968,6.97336682 130.00912,7.57174219 129.446668,8.17857019 C128.183705,9.53909054 126.91229,10.8915105 125.668697,12.2714014 C122.961392,15.277366 120.260779,18.2875569 117.578127,21.3153574 C115.853439,23.2608698 114.130161,25.2063822 112.406882,27.1522468 C110.494828,26.9419877 108.583478,26.7313765 106.671072,26.5200609 C105.373594,26.3781273 104.085977,26.235137 102.785682,26.1456801 L95.1504967,25.617391 C93.9382494,25.5335692 92.7358636,25.4701745 91.5225598,25.4317855 C88.978672,25.3546553 86.4365452,25.2764685 83.8926574,25.1993383 C83.0315463,25.1718673 82.1686742,25.1620059 81.3089719,25.1331261 C80.0350909,25.0905108 78.7679017,25.0161981 77.4954295,25.1303086 C76.7385674,25.1979296 75.9834663,25.3162663 75.2516099,25.5170161 C74.4894649,25.7248098 73.9020075,26.1773774 73.2567905,26.5943736 C72.4231504,27.1321718 71.8797171,27.9823649 71.8797171,28.9963277 C71.8797171,29.9923286 72.4161066,30.8837283 73.2567905,31.3982818 C74.1689696,31.9568594 75.0698785,32.515437 76.0179812,33.0081546 C76.7896353,33.4096542 77.5598807,33.8115061 78.3318871,34.2119492 C79.5384993,34.8392043 80.7394763,35.4759687 81.9432709,36.108859 C84.1279222,37.2577115 86.3153909,38.4037465 88.4725711,39.6047236 C90.0792742,40.4989408 91.648997,41.4635966 93.2148456,42.4264914 C94.38166,43.1449645 95.5319213,43.8884432 96.6508375,44.6780592 C95.4104149,46.0230831 94.1699922,47.368107 92.9299218,48.713483 C90.4138572,51.4429763 87.7847388,54.070686 85.1982357,56.7343193 C84.5156863,57.4387046 83.8334891,58.1416812 83.1509396,58.8446578 C82.0654818,59.9632218 81.0958953,61.1888524 80.0833413,62.370811 C79.8177881,62.6377731 79.6346479,62.9512246 79.5342729,63.3132786 C79.3814213,63.8648124 79.4599603,64.4645965 79.7487583,64.9583707 C80.3157885,65.925844 81.6942707,66.359041 82.6694922,65.7233332 C83.500667,65.1827174 84.3314895,64.6406929 85.158438,64.094442 C85.6314327,63.7823993 85.9850342,63.3777299 86.1378858,62.8219698 C86.2188901,62.5271846 86.2340344,62.2183116 86.1864884,61.9193 C86.1928279,61.9129605 86.1991673,61.9066211 86.2051546,61.9002816 C86.8929869,61.2011791 87.5811714,60.5024288 88.2690038,59.8050873 C90.1507693,57.892681 92.032887,55.9802747 93.9164135,54.0682206 C96.0404876,51.9096317 98.0927144,49.6791954 100.153746,47.4589727 C101.821731,48.9107109 103.404132,50.4585978 104.862562,52.1195385 C104.620254,52.2649941 104.377593,52.4104497 104.135636,52.5562574 C102.923389,53.2824787 101.692124,53.9840466 100.499247,54.7409087 C96.8438391,57.0590409 93.1884312,59.3729469 89.5319667,61.6896704 C88.150667,62.5659258 86.7954296,63.4809224 85.4278654,64.3793659 C83.944782,65.3535309 82.4426801,66.3040989 80.9789673,67.3082003 C79.1243207,68.5810246 77.2545297,69.835535 75.4167883,71.1330129 C73.3025756,72.6277186 71.1503261,74.0857963 69.1016212,75.6713678 C69.0621756,75.7005998 69.02273,75.7294796 68.9829323,75.757655 C68.9607441,75.7573028 68.938556,75.7569506 68.9163678,75.7569506 C68.2091649,75.7569506 67.523798,76.0415223 67.0233322,76.5409315 C66.551394,77.0142785 66.194975,77.7503612 66.2404078,78.4339672 C66.2446341,78.5276505 66.2527346,78.6209816 66.2622438,78.7146648 C66.2953499,78.9541558 66.3270472,79.1932947 66.3587446,79.4327857 C66.4577107,79.687421 66.5651295,79.93783 66.6806487,80.1854215 C66.9211963,80.5911474 67.2459179,80.9158691 67.6519961,81.1567689 C68.2560066,81.5089616 69.0635844,81.6477255 69.7387378,81.4290138 C70.4019166,81.2145285 71.0471336,80.9708112 71.6359998,80.5911474 C72.0364429,80.332638 72.4023711,80.0188343 72.791544,79.7437718 C73.2567905,79.4148239 73.7174585,79.080593 74.1812963,78.7491797 C74.8677199,78.2564621 75.5555522,77.7669143 76.2433845,77.2770143 C77.8504397,76.1337968 79.4627778,75.0029061 81.0860339,73.8829333 C82.4659249,72.9323653 83.8415895,71.9761621 85.240851,71.0544739 C87.3554159,69.6608474 89.4699808,68.267221 91.5845457,66.8735945 C92.7002921,66.1375118 93.835057,65.4317176 94.9634823,64.7150055 C97.2428734,63.2650282 99.5226167,61.8164597 101.80236,60.3661302 C103.89685,59.0348419 106.025502,57.757439 108.155916,56.4839103 C110.157779,59.5145283 111.858518,62.7458962 113.289477,66.0808088 C114.66338,69.4030424 115.853439,72.8017018 116.804712,76.2686866 C117.302712,78.0831833 117.744362,79.9114156 118.194112,81.7371824 C118.686829,83.7334106 119.104882,85.744783 119.547941,87.7519291 C119.751508,88.6736174 120.581274,89.4276619 121.468447,89.6724359 C122.648997,89.9971575 123.962676,89.4773211 124.575139,88.4080641 C124.964312,87.7286844 125.29326,87.0489525 125.491192,86.28399 C125.705325,85.4640854 125.773299,84.6008612 125.868743,83.7559509 C126.013494,82.8226403 126.200156,81.8939082 126.3678,80.9641195 C126.542487,79.9899545 126.718584,79.0161417 126.893271,78.0433855 C127.277161,75.9052237 127.690988,73.7716405 128.088613,71.6362962 C128.826105,67.6797636 129.497384,63.710552 130.189443,59.7459189 C130.808597,56.2018039 131.328434,52.6414881 131.871867,49.0850463 C132.200463,46.9366709 132.528354,44.7889999 132.860824,42.6413289 C134.135057,42.0397838 135.40929,41.4375343 136.68458,40.8359892 C137.928173,40.2485318 139.171765,39.6624832 140.415357,39.0750258 C140.920754,38.8376479 141.422276,38.5897043 141.93049,38.3593702 C143.059972,37.9300474 144.231717,37.6254007 145.361199,37.1943168 C146.076502,36.9206631 146.780888,36.6124945 147.433149,36.2081773 C147.730399,36.0236283 148.191067,35.7101769 148.403087,35.4816038 C148.694703,35.1653348 148.939477,34.818425 149.16805,34.4567231 C149.681195,33.6491453 149.643862,32.5390339 149.16805,31.7272298 C148.696112,30.9196519 147.779706,30.3667094 146.833365,30.3885454 C144.762824,30.435387 142.692283,30.4505313 140.621742,30.3624831 C139.620106,30.3212766 138.617414,30.2786613 137.615778,30.2360459 C136.853633,30.2043486 136.087261,30.0983386 135.327934,30.0282523 C135.168038,30.0134602 135.008495,29.9990203 134.848952,29.9845804 C135.055337,28.6775933 135.262074,27.3709584 135.469515,26.0646758 C135.553689,25.5363867 135.672026,25.012324 135.77381,24.4865003 C136.017175,23.2235374 136.26054,21.9605744 136.502849,20.6979636 C136.93358,18.4594269 137.36396,16.2226511 137.7961,13.9841144 C138.017629,12.8366707 138.329672,11.7100063 138.617414,10.5777068 C138.891067,9.50175811 139.103087,8.41630026 139.228116,7.31323276 C139.276366,6.87827479 139.313346,6.45317822 139.299611,6.01575491 C139.280592,5.34447565 139.103087,4.6675613 138.997077,4.00579125 C138.874514,3.57118547 138.654394,3.19257833 138.336716,2.87208299 C138.016221,2.55299642 137.637966,2.33287599 137.201599,2.21031293 C136.974083,2.15008798 136.746214,2.11979941 136.518697,2.11979941 C136.290829,2.11979941 136.063312,2.15008798 135.835444,2.21031293" transform="rotate(-3 107.888 45.944)"/>
    <g transform="translate(0 135)">
      <path d="M31.8842233 19.5736962C28.2027496 20.4915991 24.6282836 21.7893356 21.0054584 22.9024641 17.524967 23.9714099 14.0376161 25.0109006 10.5461496 26.0411438 7.70187336 26.8785589 4.85759713 27.7173441 2.01332091 28.5602392.581065089 28.984598-.30552047 30.4693401.0974729655 31.9304497.488805315 33.3473766 2.03870092 34.269047 3.47232863 33.8436606 7.74200122 32.5794892 12.0130457 31.3231953 16.2844331 30.0614214 19.7649245 29.0339182 23.2255235 27.9447648 26.6833787 26.8425963 28.8938405 26.1373866 31.1166494 25.4725921 33.2842396 24.6444245 33.4931103 24.5560592 33.7036958 24.4676939 33.9125664 24.3793287 34.3076715 24.1454004 34.6225208 23.8309845 34.8571145 23.4360807 35.2134635 22.8288263 35.309839 22.089024 35.1222327 21.4091594 34.7970942 20.2292432 33.7156999 19.4911534 32.5533639 19.4911534 32.3314603 19.4911534 32.1071558 19.5178685 31.8842233 19.5736962M33.8196893 38.8328737C33.4523651 38.929459 33.0850408 39.0198793 32.7115431 39.092147 32.3490205 39.1267396 31.985126 39.1527697 31.6226034 39.1846223 31.0731604 39.2329149 30.5278331 39.3199102 29.9825059 39.3962879 29.2351674 39.4990382 28.4929735 39.6315862 27.7494078 39.7613941 26.5088739 39.9781972 25.2721128 40.224113 24.0356946 40.4666038 21.1554062 41.0276205 18.2699732 41.5660322 15.3859121 42.1058139 14.2739932 42.2541168 13.1620743 42.4024198 12.0501554 42.5496952 11.2650899 42.6538156 10.4786525 42.7582784 9.69358696 42.8627412 8.66878323 42.9990566 7.63986382 43.0819419 6.6109444 43.1795547 6.3684624 43.2117498 6.1246085 43.2439449 5.88212649 43.27751 5.41705491 43.4069754 5.01406148 43.6426162 4.67108834 43.9810072 4.15937242 44.4933888 3.86715931 45.1958585 3.86715931 45.9195632 3.86715931 46.6436105 4.15937242 47.3447102 4.67108834 47.8570918 5.1440483 48.3280307 5.92225435 48.723962 6.6109444 48.6595718 7.91321341 48.5352439 9.20862294 48.406806 10.5043755 48.2355555 11.8344253 48.0588249 13.1648181 47.8810668 14.493839 47.7043363 15.311144 47.596106 16.1486844 47.5197282 16.957758 47.3686853 18.081681 47.1587321 19.204575 46.9484364 20.328498 46.7384833 23.8803278 46.0750587 27.4211825 45.3551215 30.9795288 44.7276595 31.4843852 44.6379242 31.9895846 44.549559 32.4947841 44.4560562 32.865881 44.3865285 33.2301185 44.3115207 33.5984716 44.2193879 34.3368928 44.0347799 35.0454753 43.6799488 35.7327935 43.3617653 36.1052623 43.1422221 36.4012481 42.8452737 36.6224658 42.4733175 36.9585795 41.9006557 37.0498103 41.2036661 36.8728362 40.5628466 36.5699909 39.4641031 35.5486169 38.7506734 34.4565904 38.7506734 34.245319 38.7506734 34.0316467 38.777046 33.8196893 38.8328737"/>
      <path d="M57.0448698,18.7472411 C57.0582458,18.7636812 57.0712788,18.7804637 57.0839688,18.7975888 C57.0709358,18.7808062 57.0579028,18.7640237 57.0448698,18.7472411 M36.2847058,0.342603817 C35.7030234,0.351851346 35.1350599,0.3693189 34.5564642,0.442956629 C34.3218706,0.47515173 34.0876199,0.505976826 33.8516544,0.537829425 C33.4040745,0.663869817 33.014457,0.889920521 32.6834879,1.21769404 C32.2372798,1.66328793 31.8301707,2.43254532 31.9076827,3.08809237 C31.9947978,3.81864714 31.9934259,4.64681472 32.4248862,5.28626421 C32.7877517,5.82399089 33.16708,6.28568232 33.6774241,6.67887355 C34.1987432,7.0816548 34.7306946,7.44162342 35.2784227,7.80398955 C35.8693654,8.19478327 36.4455602,8.60270204 37.0457632,8.98013821 C38.2660617,9.7452856 39.5148268,10.4624828 40.7594764,11.1834476 C41.5191619,11.625274 42.2665003,12.1027204 43.0477931,12.5027617 C44.0993488,13.0391184 45.1495325,13.5785575 46.2000592,14.1162842 C46.9583728,14.5043379 47.7513267,14.8266314 48.5285039,15.1732425 C49.483684,15.5986288 50.4429799,16.0106576 51.4063914,16.4161789 C52.9816671,17.0792609 54.5638021,17.727273 56.1466232,18.3735725 C56.1263878,18.4386477 56.1061523,18.5037229 56.0859169,18.5687981 C55.9490706,19.0147345 55.7820427,19.4521083 55.6057545,19.8850297 C54.9969772,21.2704465 54.322692,22.6277782 53.6772166,23.996755 L52.1218334,27.2957252 C51.4183955,28.7876599 50.7149576,30.2768545 50.0183792,31.7711867 C49.1849544,33.5624673 48.3210051,35.3421028 47.518448,37.1481109 L44.9780459,42.8596587 C43.9895974,45.0859156 43.0354461,47.3269001 42.0603735,49.5596646 C41.5630624,50.6998506 41.0633506,51.8383242 40.5636387,52.9781677 C39.9970471,54.2704242 39.3820962,55.5616533 38.9197684,56.8953524 C38.6906624,57.5577495 38.8463722,58.3831771 39.1917461,58.9733064 C39.5456944,59.5754233 40.1311496,60.0261547 40.8061207,60.2121327 C41.5030421,60.4035908 42.2623846,60.3042655 42.8869387,59.9405294 C43.0690575,59.800104 43.2511762,59.6596785 43.4336379,59.5192531 C43.5992939,59.3517701 43.7395699,59.1695595 43.8551519,58.9729639 C43.8551519,58.9729639 43.8554949,58.9729639 43.8554949,58.9733064 C43.8565238,58.9712514 43.8572097,58.9691964 43.8582386,58.9671414 C43.943639,58.8205509 44.0149774,58.6657404 44.0725969,58.5027099 C44.8206213,56.8669248 45.5216584,55.2078497 46.241559,53.560077 C46.930249,51.9842296 47.6161953,50.4080397 48.3007697,48.8304798 C49.7597774,45.4698593 51.2105538,42.1023889 52.7539329,38.779101 C54.5439097,34.924594 56.3472625,31.075567 58.1571317,27.2303075 C58.6997152,26.0743664 59.2450425,24.9197953 59.7931136,23.7665943 C60.3717092,22.544893 60.9170365,21.2995591 61.3378646,20.0138101 C61.5172395,19.4664934 61.6955856,18.9112991 61.7744694,18.3400074 C61.8749605,17.6228101 61.893824,17.3470968 61.7785851,16.630242 C61.676722,15.9973001 61.3498686,15.4328583 60.9276687,14.9591793 C60.669067,14.6701084 60.3223211,14.3478149 59.9927239,14.1618368 C59.6281435,13.9570212 59.2422987,13.8073482 58.8526812,13.6600728 C58.5964803,13.56246 58.3419942,13.4648472 58.0875082,13.3631244 C57.6159201,13.1744063 57.144332,12.9870582 56.672744,12.7983401 C55.8955668,12.4894041 55.1187327,12.1790982 54.3456712,11.8592022 C53.6875058,11.5862288 53.0293403,11.312228 52.3708319,11.0395971 C51.3206482,10.5761932 50.2701214,10.1124467 49.2213096,9.6490428 C48.781618,9.45518719 48.3583892,9.21303894 47.9296728,8.99623576 C47.224863,8.63900715 46.5203961,8.28177854 45.8169582,7.92454993 C44.7317912,7.37449321 43.6918967,6.71620616 42.6375973,6.11032178 C41.9331304,5.70480051 41.2334652,5.29140173 40.5355149,4.87526293 C39.9497168,4.52659685 39.3707781,4.16868323 38.8017857,3.79295956 C38.8854711,3.53882377 38.9307436,3.26722042 38.9307436,2.98499955 C38.9307436,1.57355265 37.7478292,0.342603817 36.321404,0.342261316 C36.3090569,0.342261316 36.2970529,0.342603817 36.2847058,0.342603817"/>
    </g>
  </g>
</svg>
