<svg xmlns="http://www.w3.org/2000/svg"  width="131" height="158" viewBox="0 0 131 158">
  <g fill="#FFF" fill-rule="evenodd" transform="translate(-6)">
    <path d="M106.746624,5.43224842 C106.384346,5.7921956 106.039734,6.16951954 105.707812,6.55801426 C105.352004,6.9730706 105.02058,7.40922729 104.689155,7.8436463 C104.42093,8.19465687 104.148725,8.55559701 103.915583,8.93167975 C103.553803,9.51355299 103.156442,10.0857449 102.825018,10.6859879 C102.4712,11.3286798 102.118377,11.9706269 101.764559,12.6135671 C101.41945,13.2391305 101.113405,13.889766 100.788698,14.5257555 C100.516492,15.0612079 100.262948,15.6041076 100.005422,16.1462625 C99.7516287,16.6784879 99.490122,17.2059967 99.2599661,17.7481516 C98.94994,18.4752449 98.6389187,19.2025864 98.3286437,19.929928 C97.982788,20.7424157 97.6921696,21.5782379 97.384134,22.4073576 C96.444103,24.936421 95.7267633,27.5486445 95.0484879,30.1571445 C94.9046716,30.7109667 94.7705592,31.2615618 94.6461507,31.8201005 C94.5030808,32.4630407 94.3361246,33.1059808 94.2224152,33.7556234 C94.0803406,34.557685 93.9405054,35.3604914 93.7994261,36.1632977 C93.6566051,36.9750407 93.5799694,37.8041604 93.4719828,38.6206199 C93.3271712,39.7270231 93.2231657,40.8373981 93.1094563,41.9475248 C93.0149058,42.8709755 92.8987082,43.7921921 92.7909704,44.7136569 C92.4393918,47.055796 91.9434993,49.3765864 91.0587057,51.5799597 C90.6954328,52.3897167 90.2786641,53.175891 89.7636127,53.9000055 C89.458563,54.2669033 89.1298756,54.6069914 88.7671003,54.9190283 C88.4525954,55.1382238 88.1251521,55.3298646 87.7795452,55.4974262 C87.4157746,55.6299861 87.0457836,55.7312678 86.6648446,55.8042502 C86.2490712,55.8395002 85.8365325,55.8395002 85.4202615,55.8047467 C84.9870709,55.7215864 84.56657,55.6051621 84.1540312,55.4519984 C83.4881967,55.1312731 82.8703838,54.7430266 82.2767062,54.3053805 C81.3209998,53.5341005 80.4496423,52.664766 79.6810463,51.7092924 C78.8096888,50.5443048 78.0261637,49.321229 77.2423899,48.0964157 C76.8878255,47.5398629 76.566105,46.9599755 76.228709,46.3925002 C75.5616304,45.267479 74.9873605,44.087597 74.4660887,42.8883523 C73.8283705,41.3150107 73.3802509,39.6820917 73.1264574,38.0049861 C72.9346194,36.3328452 72.9390981,34.665421 73.1299409,32.9932801 C73.3272528,31.6999526 73.6449922,30.4247467 73.9953267,29.1651798 C74.3334692,27.9445864 74.7582,26.7527889 75.2406563,25.58234 C76.7146488,22.1970988 78.6735858,19.02584 80.9126909,16.0923945 C82.6061401,13.9451234 84.5041169,11.9502713 86.6511597,10.2503276 C88.1759108,9.11016391 89.8103904,8.14773961 91.5545982,7.38390687 C93.5391634,6.58258996 95.6078288,6.00717095 97.7260087,5.69091391 C100.718034,5.32401602 103.738674,5.32898081 106.746624,5.43224842 M120.65127,0.18223257 C119.899096,0.249257218 119.150654,0.323729049 118.400221,0.410116373 C117.618936,0.499234331 116.847105,0.631297711 116.071542,0.759141021 C115.715734,0.817477289 115.361916,0.922979049 115.010089,1.00464982 C114.353211,1.1568206 113.703052,1.33232588 113.061353,1.54084701 C112.103158,1.85313222 111.165118,2.24485405 110.282564,2.73165158 C109.880226,2.95432236 109.492072,3.20330651 109.115363,3.46917095 C109.115363,3.46619208 109.115363,3.46296496 109.115363,3.45973785 C109.115363,2.34762518 108.20942,1.51453363 107.124826,1.47382236 C102.988242,1.32065863 98.7807444,1.31966567 94.7200494,2.22449842 C92.7499156,2.66264102 90.8477088,3.35498081 89.013678,4.19005827 C87.2378704,4.9978294 85.6061278,6.06724489 84.0674429,7.26003539 C81.0291373,9.61632412 78.5165822,12.5525002 76.3093257,15.6808136 C74.0642491,18.8622502 72.1894122,22.2882026 70.8490345,25.9457625 C70.1851905,27.7551798 69.6925326,29.6499914 69.3521508,31.545796 C68.9868873,33.5897995 68.9032848,35.6697977 69.1130376,37.7344051 C69.3163212,39.7183347 69.7467748,41.6682555 70.4611287,43.5340231 C70.8179324,44.463928 71.2289782,45.3781938 71.6596806,46.2773171 C71.9726925,46.9289456 72.3068539,47.5795812 72.675352,48.2019174 C73.0388738,48.8138276 73.3839831,49.4413769 73.7669126,50.0416199 C74.1274486,50.6058681 74.4705674,51.1867484 74.8515064,51.7375917 C75.3501358,52.4579826 75.8400567,53.1833382 76.3705348,53.8813875 C76.947044,54.6407519 77.5573923,55.3574192 78.236663,56.0264245 C78.9599743,56.7391199 79.7579307,57.3723787 80.5810177,57.9666639 C82.2898935,59.2001657 84.3988673,59.9031798 86.5138126,59.7927132 C87.5869608,59.7363629 88.5986511,59.4640442 89.5735165,59.0266463 C90.5113081,58.6076181 91.3463383,57.9939702 92.0753724,57.2733312 C92.4503398,56.9029579 92.7817642,56.4744967 93.0947761,56.0517449 C93.3542923,55.6987484 93.5876827,55.3340847 93.806393,54.9550231 C94.3388616,54.0318206 94.7548837,53.0368769 95.1261189,52.0399474 C95.8066336,50.2161322 96.2273833,48.3019579 96.5336772,46.3828188 C96.7921982,44.763553 96.965126,43.1276551 97.1323311,41.496722 C97.203244,40.7964386 97.2557444,40.0916868 97.3480556,39.3943822 C97.4421084,38.6754808 97.5361613,37.9570759 97.6307118,37.2391674 C97.762336,36.4981727 97.8909745,35.757178 98.0206082,35.0161833 C98.1266043,34.4122167 98.2724111,33.8156974 98.4055282,33.2174403 C98.6904238,31.9375178 98.993483,30.6566023 99.3570048,29.3960424 C99.7352068,28.0811181 100.115151,26.7709104 100.539881,25.4706322 C100.72948,24.888759 100.908379,24.3021692 101.122113,23.7282396 C101.401037,22.9765706 101.680957,22.2241569 101.95988,21.4727361 C101.960876,21.4697572 101.961871,21.4677713 101.962866,21.4647924 C101.931018,21.5402572 101.89892,21.6154738 101.867072,21.6909386 C102.21019,20.875472 102.536141,20.0485864 102.916333,19.2502484 C103.39456,18.2476093 103.862087,17.2419914 104.366439,16.2517643 C105.489102,14.0496322 106.636149,11.8447695 108.120094,9.85810933 C108.928003,8.85174665 109.818769,7.93723257 110.823243,7.12375194 C111.571685,6.57166743 112.359938,6.08784877 113.206165,5.70084349 C114.36192,5.25500546 115.553007,4.95389102 116.758775,4.67486989 C117.279052,4.55422553 117.806793,4.47379595 118.333539,4.3891463 C119.771204,4.22878363 121.20862,4.10044384 122.654496,4.02597201 C123.397962,3.98724665 124.139686,3.96986989 124.883151,3.97657236 C125.612683,3.98327482 126.336989,4.04136285 127.062789,4.10888398 C127.606703,4.18856884 128.141411,4.28190687 128.664176,4.46262518 C128.935884,4.59394384 129.196644,4.74090158 129.446705,4.90920792 C129.647003,5.08645088 129.833865,5.27436813 130.010774,5.47569032 C130.324035,5.92748609 130.585541,6.40857412 130.813707,6.90803187 C131.378521,8.34459349 131.762944,9.83378187 131.996085,11.358965 C132.113527,12.3022748 132.194144,13.2525354 132.211561,14.2030442 C132.229476,15.1416375 132.164286,16.080479 132.051323,17.0116252 C131.712932,19.2455319 131.069242,21.4047185 130.21356,23.4941498 C129.813213,24.4131322 129.367084,25.3050565 128.923443,26.2046762 C128.604708,26.8515882 128.247158,27.4739245 127.89334,28.1024667 C127.042635,29.6120107 126.096134,31.0731481 125.047619,32.4538558 C124.198655,33.5257537 123.287736,34.5427907 122.33178,35.5206058 C121.506703,36.3641234 120.648533,37.2059033 119.732886,37.9523593 C118.872974,38.6546287 118.014057,39.3576428 117.153648,40.0591674 C116.657755,40.4193629 116.16236,40.7800548 115.666219,41.1397537 C115.165599,41.5034245 114.674932,41.8894368 114.159632,42.2327519 C113.050654,42.9734984 111.952375,43.7328629 110.828966,44.4532537 C108.546816,45.9173699 106.248243,47.3613787 104.001922,48.8798593 C103.002922,49.5558153 102.003672,50.2315231 101.012385,50.9211322 C100.612785,51.1994086 100.212438,51.4766921 99.8158235,51.7599333 C99.0828084,52.2827255 98.358253,52.8487114 97.5495974,53.251604 C97.1980188,53.3839157 96.8372341,53.4961199 96.4689847,53.568854 C96.4615202,53.5695988 96.4538069,53.5703435 96.4460936,53.5710882 C96.2759027,53.5944227 96.1049653,53.6167643 95.9337792,53.6400988 C95.6073311,53.7312026 95.3234308,53.8960336 95.0825759,54.1345917 C94.7227863,54.4942907 94.5177611,54.987046 94.5177611,55.4949438 C94.5177611,56.4985759 95.395339,57.4798664 96.4460936,57.4197924 C96.9437278,57.3907484 97.4346439,57.3316674 97.921579,57.2249245 C98.4299123,57.113465 98.9138616,56.9213276 99.3910928,56.7177713 C99.9870097,56.4638224 100.529182,56.1041234 101.056923,55.7307713 C101.614771,55.3360706 102.172868,54.9413699 102.733702,54.550641 C103.954398,53.7021586 105.184799,52.8680741 106.41719,52.0352308 C108.555524,50.5904773 110.77348,49.2628928 112.919527,47.8305512 C113.563964,47.401097 114.207405,46.9713945 114.850846,46.5419403 C115.316382,46.231641 115.795604,45.9349949 116.248451,45.6060776 C116.920009,45.1185354 117.591566,44.6297519 118.264367,44.1419614 C118.800817,43.7522255 119.349956,43.3719227 119.865008,42.9521498 C120.543532,42.3985759 121.221807,41.8437607 121.900332,41.2901868 C122.741085,40.6025636 123.548745,39.8851516 124.334012,39.1334826 C125.770682,37.7574914 127.086675,36.2710336 128.302396,34.6981886 C128.68632,34.2007167 129.078954,33.701259 129.421077,33.1737502 C129.653472,32.8150442 129.885868,32.4563382 130.119009,32.097384 C130.44073,31.6001604 130.765436,31.109391 131.056054,30.5935495 C131.403901,29.9759298 131.789816,29.3677431 132.103823,28.7317537 C132.462369,28.0034192 132.820914,27.27434 133.180704,26.5460055 C133.49272,25.9137396 133.756964,25.2573945 134.02917,24.6077519 C134.415085,23.6882731 134.750242,22.7486868 135.045837,21.7964403 C135.634787,19.9026217 135.980891,17.9303593 136.138144,15.9551181 C136.295645,13.9808699 136.098333,11.9919755 135.795274,10.0410618 C135.499679,8.14227835 134.926156,6.26211285 134.078685,4.53610405 C133.657935,3.68091919 133.087397,2.88084349 132.399169,2.21953363 C131.594495,1.44477835 130.601963,0.941597007 129.558175,0.57023081 C129.042129,0.385788908 128.486271,0.330679754 127.945841,0.253973768 C127.451939,0.183225528 126.959281,0.126875176 126.462642,0.0804544014 C125.782127,0.0164086268 125.099871,0.00672728873 124.417614,0.00101778169 C124.343716,0.00027306338 124.269568,2.48239436e-05 124.195421,2.48239436e-05 C123.016027,2.48239436e-05 121.823696,0.0782202465 120.65127,0.18223257"/>
    <path d="M91.922748,20.4303787 C91.4057061,20.4477555 90.8953822,20.5127942 90.3833166,20.5904931 C89.8242246,20.6736533 89.2810569,20.9288435 88.7988493,21.2138224 C88.369391,21.4670266 87.9784993,21.8063699 87.603532,22.133053 C87.1815382,22.5006956 86.8481233,22.9418171 86.5099808,23.3839315 C86.2601685,23.7118558 86.0658423,24.0852079 85.901623,24.4612907 C85.779205,24.7395671 85.6722137,24.9994738 85.5915969,25.2894174 C85.5137172,25.5696798 85.4992858,25.8712907 85.4768922,26.1602414 C85.4564892,26.4405037 85.5214305,26.7644562 85.5604948,27.0330512 C85.5896064,27.2346217 85.6284218,27.4294896 85.6751995,27.6263435 C85.8063261,28.1781798 86.0414582,28.7046956 86.2999792,29.206884 C86.7851725,30.1467185 87.3875587,30.9999174 88.0670782,31.8096745 C88.221096,31.9928752 88.3887987,32.1646569 88.5550086,32.3374315 C88.4437873,32.444671 88.3278386,32.5464491 88.2074111,32.6457449 C86.6622569,33.7869016 84.9372079,34.6666621 83.3335817,35.7231692 C81.7998731,36.7337519 80.4286421,37.9536005 79.4012763,39.4817625 C78.892943,40.239141 78.5264354,41.1176604 78.2796088,41.9922079 C78.1288257,42.5266674 78.0686119,43.0909157 78.0103887,43.640766 C77.9618694,44.1022431 77.990981,44.569678 78.0414909,45.0304104 C78.0939913,45.5065336 78.1698805,45.9766991 78.2913032,46.4401621 C78.4293967,46.966678 78.6702517,47.4701076 78.8949335,47.9636076 C79.2457656,48.7383629 79.7346912,49.4376533 80.2517332,50.1106305 C80.8162992,50.8454192 81.4152019,51.5360213 82.1001954,52.1623294 C82.5707085,52.5920319 83.0840182,52.9691076 83.5990696,53.3434526 C84.6729642,54.1249104 85.8939097,54.6884139 87.0999262,55.2323065 C87.2410055,55.2916357 87.3808407,55.3507167 87.52192,55.4097977 C87.8346831,55.4941991 88.1466997,55.4941991 88.4597116,55.4097977 C88.9008643,55.2886569 89.2840427,54.9947414 89.5141985,54.6010336 C89.9886927,53.7932625 89.7261907,52.6491269 88.8814566,52.1923664 C87.8618041,51.6407783 86.9070929,51.0181938 85.9732823,50.3360319 C85.7550698,50.1652431 85.5356131,49.9956956 85.3213815,49.8206868 C84.5851318,49.2182097 83.9197948,48.5387783 83.3211409,47.8025002 C83.0879993,47.488229 82.8630686,47.1684967 82.6533158,46.8378417 C82.4649612,46.5424368 82.3064648,46.2266762 82.1606579,45.9066956 C82.0195786,45.5286269 81.9140802,45.1490688 81.8396839,44.7538717 C81.8036054,44.3296305 81.8033566,43.9110988 81.8404303,43.4876023 C81.9178124,43.0762695 82.0250526,42.676604 82.1681225,42.2821516 C82.3793682,41.8350724 82.6264435,41.4113276 82.9135785,41.0066974 C83.44754,40.3674808 84.0476868,39.8079491 84.6968506,39.2849086 C86.2218506,38.1581498 87.9157974,37.2888153 89.4830963,36.2256058 C89.8428859,35.9813382 90.1860047,35.7020688 90.5281282,35.4352114 C90.8428818,35.1889579 91.1394718,34.9377396 91.3997345,34.635384 C92.0909484,33.8323294 92.5768882,32.7879861 92.3601685,31.7136058 C92.2822887,31.3285864 92.0936853,30.9738523 91.8752239,30.6498998 C91.6478051,30.3135354 91.3686323,30.046678 91.0976705,29.7510248 C90.8513416,29.4821815 90.6092425,29.2143312 90.3778426,28.9345653 C89.9797353,28.3777643 89.626415,27.7842238 89.3241022,27.1695829 C89.2337816,26.9148893 89.1631176,26.6552308 89.1101195,26.3903593 C89.1073825,26.3263136 89.1061384,26.2630125 89.1066361,26.1994632 C89.1225604,26.1381481 89.1402264,26.0775776 89.1596341,26.0165107 C89.2865308,25.7640512 89.4300983,25.5230107 89.5918294,25.2909069 C89.8431347,25.0031974 90.1150918,24.7432907 90.4072031,24.5002643 C90.5674413,24.3907907 90.72967,24.2914949 90.8998609,24.2028734 C91.0387008,24.1616657 91.177292,24.1284016 91.3186201,24.1010952 C92.0065994,24.0402766 92.6958227,24.0395319 93.3835532,24.1030812 C94.140206,24.2339033 94.8702354,24.4662555 95.5840916,24.7480072 C95.7172088,24.8105636 95.8498283,24.8743611 95.9824478,24.9374139 C96.4402713,25.1536305 96.8816728,25.2593805 97.386025,25.1208629 C97.8408627,24.9957502 98.2354866,24.6921533 98.4736046,24.2857854 C98.7194359,23.8660125 98.7866165,23.3548875 98.6572316,22.885715 C98.5407852,22.4647009 98.2297638,21.9935424 97.8204597,21.8006604 C96.9729887,21.4000019 96.1068563,21.0489914 95.2068849,20.7843681 C94.6851154,20.6302114 94.1377178,20.5525125 93.5982823,20.4924386 C93.179772,20.4452731 92.7637498,20.4229315 92.3447418,20.4229315 C92.204409,20.4229315 92.0638273,20.4254139 91.922748,20.4303787"/>
    <g transform="rotate(-100 73.518 77.626)">
      <path d="M40.1389542,45.4254879 C40.0458966,45.5456357 39.952839,45.6657836 39.8595326,45.7856833 C39.9523413,45.6657836 40.0456477,45.5456357 40.1389542,45.4254879 M5.07092103,30.2697255 C5.05997308,30.3513963 5.04877631,30.4330671 5.03733072,30.5147379 C5.04827868,30.4328188 5.05947544,30.3513963 5.07092103,30.2697255 M9.03781204,16.2603329 C9.02188775,16.2978171 9.00621227,16.3353012 8.99053679,16.3727854 C9.00621227,16.3353012 9.02188775,16.2978171 9.03781204,16.2603329 M33.1205702,7.12859701 C33.1785446,7.15292447 33.236519,7.1770037 33.2944934,7.2015794 C33.236519,7.17725194 33.1785446,7.15292447 33.1205702,7.12859701 M25.1086597,4.64421673 C27.8560981,5.06250018 30.4699217,6.02269032 33.0265174,7.08912694 C33.2051681,7.16434349 33.3843164,7.23956004 33.5634647,7.31477658 C32.748091,7.83036989 31.976758,8.41745616 31.2494657,9.04972201 C30.3193873,9.85848609 29.552533,10.8047748 28.7836882,11.7590072 C28.2646557,12.4029403 27.7836923,13.0729386 27.2977525,13.7419438 C26.8924294,14.2984967 26.5356257,14.8870724 26.1643906,15.4659667 C25.7988783,16.0361727 25.4928333,16.6413805 25.1691222,17.2356657 C24.4828846,18.4954808 23.93275,19.8315055 23.3903288,21.157104 C22.3495268,23.6995724 21.417458,26.2849861 20.454287,28.8564984 C19.5055474,31.3863065 18.5403859,33.9113981 17.7026187,36.4811727 C17.5160059,37.0503857 17.3333741,37.6156269 17.1758729,38.1945213 C16.9979687,38.8481357 16.7802537,39.5027431 16.6471366,40.1667836 C16.4946117,40.9328505 16.3408427,41.6989174 16.1883178,42.4639914 C16.0902839,42.9547607 16.0387788,43.4629069 15.9735887,43.9573998 C15.9103891,44.4382396 15.8558982,44.9183347 15.8103647,45.4011604 C15.7130772,46.4067783 15.6655531,47.4171129 15.6625673,48.4276956 C15.6585862,49.6319051 15.7722956,50.8343769 15.8822728,52.031884 C15.9385055,52.647766 15.9900106,53.2633998 16.056196,53.8782889 C16.2204152,55.3937907 16.3739354,56.9105336 16.5167564,58.4290143 C16.6033448,59.3522167 16.665549,60.2761639 16.7093408,61.2023452 C16.7824931,62.7729562 16.7884647,64.3644192 16.6088187,65.9285759 C16.4734622,66.7976621 16.2741597,67.6473857 15.9643824,68.4705477 C15.8432085,68.7192836 15.7083496,68.9558558 15.5553271,69.1859738 C15.5189998,69.226685 15.4819261,69.2664033 15.4441059,69.3056252 C15.3659773,69.2572185 15.2893417,69.2058329 15.2137013,69.1529579 C14.5217409,68.5681058 13.9355278,67.8988523 13.3587698,67.2025407 C13.0825828,66.8363875 12.8118698,66.4682484 12.5473772,66.0924139 C12.2433227,65.6589879 11.9671357,65.2052062 11.6834843,64.757134 C11.0952806,63.8309526 10.6304903,62.8268241 10.1467899,61.8435477 C9.93131424,61.3175283 9.71509218,60.791509 9.49936776,60.2654896 C9.41974629,60.0716146 9.36152309,59.8660724 9.29434247,59.6682255 C9.13584598,59.2007907 8.9775983,58.7333558 8.81910181,58.2651762 C8.63447952,57.7200424 8.48270109,57.1694474 8.32719041,56.6156252 C8.15923886,56.0183611 7.97163077,55.4238276 7.82781449,54.820854 C7.49813183,53.4389051 7.16670746,52.0591903 6.87608908,50.66756 C6.57477158,49.2218136 6.29211535,47.7750741 6.01891418,46.3223769 C5.72730054,44.7731146 5.4575828,43.2144192 5.23912139,41.6520002 C4.98657203,39.7254139 4.81314652,37.7941111 4.76512482,35.8498998 C4.71760075,33.9357255 4.85245962,32.0195653 5.09207048,30.1207819 C5.4939101,27.3104632 6.13386768,24.50784 7.03757138,21.817421 C7.32818975,20.9515618 7.61880813,20.0857026 7.9094265,19.2188505 C8.20900228,18.3234509 8.54614945,17.4434421 8.90792952,16.5706322 C9.79919236,14.5171956 10.8591532,12.5521322 12.2042584,10.7590988 C13.2622287,9.43846496 14.4500816,8.24368856 15.771798,7.18618856 C16.7481563,6.45983996 17.7849772,5.83477306 18.8959455,5.33481884 C19.7678006,4.99597201 20.6635422,4.75840687 21.5869024,4.60971144 C22.7613191,4.48410229 23.9364823,4.51041567 25.1086597,4.64421673 M20.1994983,1.02165863 C19.2627019,1.17879419 18.3557636,1.46377306 17.4809227,1.83141567 C16.5849323,2.20749842 15.7247716,2.63322905 14.8986988,3.14633996 C14.0101729,3.69792799 13.1831049,4.3545213 12.3831579,5.0255125 C10.8882648,6.27936989 9.61606298,7.7668206 8.47026024,9.33966567 C7.34560695,10.8842114 6.45036303,12.5851481 5.67007261,14.32481 C5.12964187,15.5290195 4.62703133,16.7558188 4.20429108,18.0057044 C3.9019783,18.9006076 3.59966552,19.794766 3.29760157,20.6896692 C2.27794909,23.7045371 1.59071627,26.840546 1.17967042,29.9939315 C0.925876978,31.9371498 0.793755099,33.8900495 0.827843041,35.8498998 C0.861930984,37.8531921 1.0542666,39.846803 1.31676864,41.8309808 C1.69372655,44.6857343 2.19434655,47.5345301 2.7785691,50.3535371 C3.08162832,51.8176533 3.3926497,53.2740741 3.73775901,54.7287572 C3.86813917,55.2783593 3.99055719,55.8292026 4.14308207,56.3733435 C4.36950563,57.1791287 4.59592919,57.9849139 4.8216063,58.7906991 C5.00423805,59.4413347 5.25405042,60.07931 5.47077011,60.7192713 C5.67106787,61.3108259 5.90620003,61.8830178 6.14332273,62.4609192 L6.48743678,63.3017062 C6.67604014,63.7641762 6.89947789,64.2052977 7.12017866,64.6533699 C7.43418584,65.2933312 7.77332354,65.9082202 8.12515092,66.5288188 C8.81039321,67.7389861 9.63547071,68.8997537 10.5200155,69.9721481 C11.0818445,70.6538136 11.6503916,71.3094139 12.3199584,71.8920319 C13.0479972,72.5252907 13.8693425,73.1188312 14.8479401,73.2670301 C15.0238538,73.2913576 15.2007628,73.3146921 15.3766765,73.3377783 C15.620766,73.3494456 15.8618698,73.3263593 16.100983,73.269016 C16.301032,73.240965 16.4752039,73.1962819 16.665549,73.1275195 C17.3032673,72.8966569 17.8387217,72.5436604 18.3139623,72.0598417 C18.6590716,71.7098241 18.9457089,71.2831005 19.2004976,70.8643206 C19.4714595,70.4192273 19.65434,69.9138118 19.8399576,69.4299931 C20.2345815,68.3973171 20.4114905,67.3035741 20.5533162,66.2125618 C20.8088514,64.246009 20.7573462,62.2397379 20.637914,60.2644967 C20.5456029,58.7286393 20.393078,57.1945195 20.2286099,55.6653646 C20.0944975,54.415479 19.9663567,53.1655935 19.851652,51.913722 C19.7660589,50.98481 19.6931555,50.0566428 19.6563306,49.123759 C19.5913893,47.508465 19.7133097,45.8777801 19.9133586,44.2726639 C20.0452317,43.384215 20.2291075,42.509171 20.4045236,41.6281692 C20.5271904,41.015266 20.6951419,40.4199879 20.8606053,39.816766 C21.1977525,38.5785477 21.5642601,37.345046 21.9986947,36.1368646 C22.9307636,33.5477273 23.9016479,30.976215 24.8600914,28.3977519 C25.308211,27.1935424 25.757077,25.9910706 26.2149005,24.7905847 C26.6301762,23.6988276 27.065855,22.6184896 27.50651,21.5366621 C27.7928985,20.9217731 28.0770476,20.305891 28.3639338,19.6910019 C28.4823707,19.4350671 28.6331539,19.1905512 28.7682615,18.9433048 C28.9693058,18.5739245 29.1715941,18.2035512 29.3726383,17.834171 C29.4933146,17.6129896 29.6448442,17.4044685 29.7799519,17.1932167 C30.0133423,16.829546 30.2464839,16.4648822 30.4798744,16.1012114 C30.7978626,15.6037396 31.1723324,15.1360565 31.5244085,14.6594368 C31.7976097,14.3203417 32.0713085,13.9812467 32.3450073,13.6421516 C33.0041238,12.8237062 33.7669971,12.0851938 34.5826195,11.422891 C35.4955295,10.7486727 36.4706437,10.1667995 37.5069669,9.7030882 C38.0212718,9.5010213 38.5440365,9.32576426 39.0737682,9.16713926 C39.5350751,9.02911813 39.9933961,8.89109701 40.4654022,8.79924842 C40.8172296,8.77045264 41.163583,8.76772201 41.5171521,8.79453187 C42.0399168,8.89060053 42.5450155,9.03433116 43.0419032,9.22249665 C43.753769,9.55960581 44.4111437,9.9863294 45.0438856,10.4530195 C45.8540341,11.1061375 46.6014807,11.8267766 47.260846,12.6320653 C47.953304,13.5751269 48.527325,14.5874474 49.0043074,15.6541322 C49.5681269,17.0596639 49.9724547,18.5198083 50.2080845,20.0161956 C50.3859887,21.5781181 50.3710597,23.1477361 50.1904185,24.7101551 C49.8022638,27.2637942 48.9560369,29.7412238 47.9664913,32.1220882 C47.5335495,33.1269614 47.0754772,34.13109 46.5440039,35.0868118 C46.187449,35.7285107 45.8306453,36.3697132 45.4748368,37.0106674 C45.2300008,37.4517889 45.0035773,37.9095424 44.7370941,38.3370107 C44.424331,38.8394474 44.1143049,39.3436217 43.8022883,39.846803 C43.2354829,40.7613171 42.6863436,41.6845195 42.075,42.5707343 C41.3260605,43.6552924 40.5811021,44.7425812 39.8291769,45.8251533 C39.0065875,46.8858805 38.1820077,47.9441252 37.3581743,49.0036111 C37.1016438,49.334266 36.8207293,49.6445653 36.5465329,49.9608224 C35.9247389,50.6762484 35.3026962,51.3939086 34.6806535,52.1095829 C33.8028267,53.1219033 32.8824523,54.0974843 31.975514,55.0844843 C31.0862416,56.0513769 30.232799,57.0470653 29.3726383,58.0400231 C28.9916993,58.4794069 28.6097651,58.9195354 28.2288261,59.3589192 C27.9703051,59.6585442 27.7379099,59.9842343 27.4940692,60.2965195 C26.6881506,61.3274579 25.859092,62.3444949 25.0815386,63.3975266 C24.3584761,64.3780724 23.6304373,65.3543981 22.9180739,66.3426393 C22.1960067,67.3425477 21.4995676,68.365046 20.7638155,69.3552731 C20.5625224,69.5858875 20.3463004,69.7812519 20.1051966,69.9778576 C19.8613558,70.2223734 19.6921602,70.5113241 19.5988538,70.8447097 C19.4590186,71.3518629 19.5309267,71.9046921 19.797161,72.3584738 C20.0546867,72.7978576 20.4824033,73.1265266 20.9743147,73.2613206 C21.4308941,73.3864333 22.0967287,73.3650847 22.4923479,73.0634738 C22.90837,72.746472 23.3194159,72.4505706 23.6578071,72.0481745 C23.9153328,71.740854 24.1611641,71.4149157 24.3935593,71.0872396 C24.6490945,70.7285336 24.9028879,70.3695794 25.1574278,70.0108734 C25.553047,69.4533276 25.9553842,68.9014914 26.3549845,68.3469245 C27.1041728,67.3095319 27.8705295,66.2830618 28.6296704,65.2526199 C29.4181718,64.2440231 30.2061756,63.2356745 30.9949258,62.2273259 C31.3196321,61.8122695 31.6878814,61.4252643 32.0329907,61.02684 C32.6296541,60.3382238 33.2275616,59.6488629 33.824225,58.9602467 C34.7164831,57.9315424 35.6612416,56.9452871 36.5816161,55.9426481 C37.4855686,54.9593717 38.3467246,53.9383629 39.2213167,52.929766 C39.5189019,52.5876921 39.8309186,52.2540583 40.1088473,51.895104 C40.6191712,51.238759 41.1292462,50.5821657 41.6385748,49.9258206 C42.0740047,49.3662889 42.5094347,48.8067572 42.9438693,48.2472255 C43.3678536,47.700354 43.7517784,47.1271692 44.1444118,46.5579562 C44.8975812,45.4652062 45.6701583,44.3861093 46.3690855,43.2573646 C47.1001101,42.0782273 47.8572606,40.9134879 48.5308085,39.7023276 C48.981665,38.88984 49.4335169,38.078097 49.8846223,37.2656093 C50.581559,36.0117519 51.1685185,34.6958347 51.7236295,33.3752009 C52.4797846,31.573479 53.1269579,29.7283153 53.617874,27.8364826 C53.8841083,26.8075301 54.0406143,25.7602079 54.1737314,24.7071762 C54.3041116,23.6745002 54.3379507,22.6321428 54.3088391,21.5915231 C54.2516112,19.5145037 53.8492739,17.4335125 53.1747308,15.4699386 C52.8460434,14.5129755 52.4369881,13.5751269 51.9761788,12.674266 C51.4922296,11.7289702 50.8925804,10.8571533 50.2364497,10.0233171 C49.0284426,8.4882044 47.4780633,7.19562165 45.8072565,6.18628011 C45.0112906,5.70618504 44.1150514,5.3521956 43.2220468,5.1029632 C42.6669359,4.94781356 42.0886849,4.88302306 41.5191426,4.81897729 C40.8911282,4.74822905 40.2429597,4.83064454 39.6239028,4.9304368 C39.1125836,5.01285229 38.6206722,5.15534173 38.1270191,5.30378891 C37.5534957,5.47532236 36.9879344,5.65976426 36.4310817,5.87871144 C36.3840553,5.8973294 36.3372777,5.91594736 36.2905001,5.93481356 C36.3474792,5.52323257 36.2653696,5.09700546 36.053875,4.73755475 C35.9565875,4.61144912 35.8595489,4.48534349 35.7612661,4.36023081 C35.5291198,4.12961637 35.253928,3.96950194 34.9381791,3.88137694 C34.8692568,3.8528294 34.8005833,3.82403363 34.7319098,3.79523785 C32.9483888,3.04257588 31.1427231,2.29736109 29.2862987,1.74304243 C27.3191508,1.15645264 25.2594428,0.797746655 23.2057065,0.75604243 C23.1310613,0.754552993 23.0559186,0.753808275 22.9812735,0.753808275 C22.0484581,0.753808275 21.118131,0.868246655 20.1994983,1.02165863"/>
      <path d="M18.3527031,30.261484 C17.5905764,30.5514276 16.837407,30.8550245 16.0852329,31.1690474 C15.2347761,31.5240298 14.390042,31.8837287 13.5940761,32.3491776 C12.8321982,32.793278 12.1302851,33.3364259 11.4403153,33.8813114 C10.7677627,34.4127921 10.1437294,35.0040984 9.56722018,35.6373572 C8.98797398,36.2726019 8.47590839,36.9726371 8.02007546,37.6999787 C7.52244126,38.4931037 7.22311429,39.3959505 7.25496288,40.3355368 C7.27362416,40.8824083 7.40773658,41.3595245 7.62445627,41.8530245 C7.81305963,42.280741 8.126818,42.639447 8.43311185,42.9887199 C8.75383709,43.3521424 9.1832954,43.6373695 9.5848862,43.9029857 C9.85982909,44.08569 10.1708505,44.1969012 10.4574878,44.3535403 C10.5154621,44.4101389 10.571446,44.4679787 10.6261858,44.5275562 C10.6463399,44.5598273 10.6657477,44.5923467 10.6849066,44.6251143 C10.7030702,44.6899048 10.7194922,44.7546952 10.7344212,44.8202305 C10.7491014,45.0644981 10.7473597,45.307028 10.7306889,45.5515438 C10.6485793,45.936315 10.5301424,46.3084259 10.3898095,46.6760685 C9.64559757,48.2536301 8.54756771,49.636572 7.72074849,51.168954 C7.25322116,52.0367991 6.86432004,52.9520579 6.51348793,53.8732745 C6.15668421,54.8128607 5.99146965,55.8040808 5.87402798,56.7970386 C5.75733276,57.7830456 5.92055678,58.8080262 6.12184981,59.77194 C6.32115231,60.7212076 6.69611968,61.627778 7.11811348,62.497609 C7.5535434,63.3927604 8.16488701,64.1732252 8.78867148,64.9442569 C9.32810695,65.6122692 9.91830111,66.2338607 10.5179503,66.8487498 C11.4587278,67.8134083 12.4044816,68.7716125 13.3830792,69.6975456 C14.4174119,70.6770984 15.5836176,71.5399787 16.7674894,72.3283871 C17.6072471,72.8869259 18.8125171,72.495204 19.2994522,71.6660843 C19.5492646,71.2393607 19.6171916,70.7205403 19.4850698,70.2434241 C19.3499621,69.75191 19.0426729,69.4252269 18.6356082,69.1409928 C18.4074429,68.9816231 18.1837563,68.818778 17.9605674,68.6544435 C17.0439252,67.9174206 16.183018,67.1317428 15.3611752,66.2892181 C13.9725269,64.8660614 12.5129658,63.4851055 11.2646504,61.9360914 C10.8565904,61.3760632 10.5132228,60.7872393 10.2208627,60.1589452 C9.96831335,59.5053308 9.78493514,58.8345879 9.66624939,58.143241 C9.62021822,57.6467621 9.61947177,57.1589717 9.66624939,56.6639822 C9.74537323,56.2067252 9.84664178,55.7556741 9.97552904,55.3093396 C10.09944,54.8786442 10.266645,54.4598643 10.4385777,54.0453044 C10.6478328,53.5701741 10.8772422,53.1052217 11.1205853,52.6457305 C11.4139407,52.0919083 11.7523319,51.5663854 12.0757942,51.0311812 C12.7757167,49.8743854 13.460959,48.7309945 13.9138061,47.450079 C14.1481918,46.7877762 14.2666287,46.1004012 14.3037025,45.3983801 C14.3181339,45.114146 14.2967356,44.8309048 14.2636429,44.5489048 C14.2181094,44.1745597 14.1675995,43.8342234 14.0412004,43.4812269 C13.80781,42.8286055 13.4094538,42.2730456 12.9148054,41.7899717 C12.6794245,41.5613431 12.4072186,41.3595245 12.1148585,41.2110773 C11.8700224,41.0867093 11.6396178,40.9578731 11.4151848,40.8086812 C11.2912739,40.6977181 11.1750763,40.582535 11.0646015,40.4589118 C11.0399686,40.4216759 11.0160822,40.3841917 10.9926933,40.3462111 C10.9909516,40.3395086 10.9892099,40.3328062 10.987717,40.3261037 C10.9867217,40.2811724 10.9867217,40.236241 10.987717,40.1913097 C11.0004067,40.1426548 11.0140916,40.0944963 11.0287718,40.0463379 C11.2439986,39.6280544 11.5122234,39.2370773 11.7946309,38.8597533 C12.4933093,38.009285 13.2940027,37.2551336 14.1516752,36.5667657 C14.5945697,36.2373519 15.0509002,35.9292868 15.5234039,35.642322 C16.0921998,35.2955315 16.7020505,35.0199857 17.3146382,34.7585896 C17.9961482,34.4758449 18.6791512,34.2020368 19.3693698,33.9393995 C19.5208994,33.8756019 19.6736731,33.8115562 19.8252027,33.7475104 C20.1128353,33.5777146 20.3412494,33.3498308 20.5114403,33.062866 C20.7699612,32.6227375 20.8398789,32.0855474 20.7037759,31.5927921 C20.5726493,31.1166688 20.2529193,30.7026055 19.8252027,30.4533731 C19.5492646,30.2920174 19.1792735,30.1808062 18.8271973,30.1808062 C18.6612363,30.1808062 18.4992564,30.2056301 18.3527031,30.261484"/>
      <path d="M17.1153108,17.6275861 C17.1148132,17.6290755 17.1140667,17.630565 17.1133203,17.6320544 C17.112325,17.6327991 17.1113297,17.6335438 17.1103345,17.6342886 C17.1110809,17.6327991 17.1118274,17.6313097 17.1125738,17.6298202 L17.1153108,17.6275861 Z M17.2078708,17.5593202 C17.2011527,17.5645333 17.1941858,17.5699945 17.1874678,17.5752076 C17.1874678,17.5744629 17.1877166,17.5737181 17.1877166,17.5729734 C17.1944347,17.5682569 17.2011527,17.5637886 17.2078708,17.5593202 L17.2078708,17.5593202 Z M24.7559863,7.33309665 C24.4041589,7.38820581 24.068007,7.48626039 23.7383244,7.61807553 C23.5128961,7.70247694 23.2931906,7.79953856 23.0794567,7.90801919 C22.828649,8.03114595 22.5584337,8.26200863 22.3553989,8.42882553 C21.8236768,8.86523046 21.4096451,9.41309489 21.1073324,10.0287287 C20.9023071,10.4487498 20.7107179,10.8742322 20.5193775,11.2999629 C20.1217678,12.1856812 19.7562555,13.107146 19.2063697,13.91169 C19.1304805,13.9975808 19.0526008,14.080741 18.9707399,14.1611706 C18.9660124,14.1639012 18.9612849,14.1666319 18.9568062,14.1691143 C18.9344126,14.1753202 18.9117703,14.181278 18.8893767,14.1872357 C18.5313289,14.1894699 18.1750228,14.1552129 17.8192144,14.1217005 C17.3526823,14.0772657 16.8861503,14.0315896 16.4168812,14.0685773 C16.1048646,14.0936495 15.7948385,14.146028 15.4925257,14.2247199 C15.0911837,14.3292287 14.7654821,14.5533889 14.451475,14.8093238 C13.9421464,15.2243801 13.6224164,15.8276019 13.4562066,16.454903 C13.3842984,16.7264769 13.3541915,17.083197 13.3260752,17.3470755 C13.3046769,17.5583273 13.2939778,17.7668484 13.290992,17.9793414 C13.2852692,18.446528 13.3084092,18.9149558 13.3357791,19.3804048 C13.3619049,19.8215262 13.406692,20.26091 13.447498,20.7010386 C13.573897,22.0469928 13.7109953,23.392947 13.8849184,24.7331917 C14.0618274,26.1052111 14.2474449,27.4762375 14.4243539,28.8475121 C14.6360972,30.4871336 14.9471186,32.118315 15.2163387,33.7492481 C15.3320387,34.4542481 15.4671464,35.1542833 15.5965312,35.8563044 C15.6821243,36.3207604 16.0764994,36.7611371 16.4721186,36.9917516 C16.9125249,37.2489276 17.4489745,37.3186829 17.940886,37.1838889 C18.4171219,37.0528185 18.8301583,36.7348238 19.0789754,36.3100861 C19.3549135,35.8399206 19.3666079,35.3657833 19.271311,34.8449769 C18.8796729,32.7143379 18.53531,30.5760033 18.1894542,28.4369241 C18.0030902,27.0145121 17.8082664,25.5928449 17.6520093,24.1677023 C17.5606934,23.3405685 17.4566879,22.5144276 17.3847797,21.6863009 C17.3372557,21.1501037 17.2904781,20.6148995 17.2439493,20.079447 C17.1839843,19.3841283 17.132728,18.6701917 17.1596003,17.9666812 C17.460669,17.9848026 17.76124,18.0193079 18.0603182,18.0538132 C18.7174441,18.1305192 19.3442144,18.116866 19.9926318,17.9617164 C20.6621986,17.8018502 21.2270134,17.4108731 21.736342,16.9687586 C22.0082991,16.7321864 22.2367132,16.4055033 22.4506959,16.1232551 C22.6303418,15.884697 22.7858525,15.6374505 22.9346451,15.3785368 C23.3011527,14.7415544 23.58779,14.058896 23.8901028,13.3886495 C23.9901273,13.1677164 24.0901517,12.947528 24.1894298,12.7253537 C24.3586254,12.347285 24.5300604,11.9560597 24.7507611,11.601822 C24.8147071,11.5345491 24.8803948,11.4697586 24.9480731,11.4067058 C24.9955972,11.3774136 25.04337,11.3493625 25.092387,11.3223044 C25.3212987,11.2485773 25.5534451,11.1929717 25.7908166,11.1480403 C26.7992723,11.0633907 27.8268869,11.1852762 28.8256388,11.3193255 C28.6524621,11.2962393 28.4805295,11.2729048 28.3085968,11.2495702 C31.0639974,11.6199435 33.8243743,11.9448889 36.5817654,12.2998713 C36.9052276,12.2978854 37.2065451,12.2174558 37.4864643,12.0553555 C37.8870599,11.8207692 38.1863868,11.432771 38.3098001,10.9869329 C38.4371945,10.5252076 38.3710091,10.0220262 38.1289101,9.60895581 C37.9141809,9.24230616 37.4944265,8.86026567 37.0580013,8.78653856 C34.8310883,8.40946285 32.604424,8.03611074 30.374774,7.6764118 C29.2657962,7.49693468 28.1558231,7.29337835 27.0334092,7.21766532 C26.7378145,7.19830264 26.4424686,7.18663539 26.1468739,7.18464947 C26.1411511,7.18464947 26.1354283,7.18464947 26.1297055,7.18464947 C25.6688962,7.18464947 25.209331,7.26110722 24.7559863,7.33309665 L24.7559863,7.33309665 Z"/>
    </g>
  </g>
</svg>
