<svg xmlns:xlink="http://www.w3.org/1999/xlink" width="113" height="148" viewBox="0 0 113 148">
  <defs>
    <polygon id="thing-a" points="0 21.64 0 .394 112.849 .394 112.849 21.64 0 21.64"/>
    <polygon id="thing-c" points=".19 .105 21.717 .105 21.717 147.505 .19 147.505 .19 .105"/>
  </defs>
  <g fill="none" fill-rule="evenodd">
    <path fill="#2C2C2C" d="M92.6200505,14.3821947 L91.53,14.8429344 C90.8434394,15.2478613 90.2972727,15.7928894 89.8915,16.4757409 C86.6812727,20.8558995 83.4019899,25.1876491 80.2876414,29.6344413 C78.4351263,32.2821279 76.5820404,34.9292449 74.7272424,37.5769315 C69.8362828,44.5620629 64.9476061,51.5500419 60.0560758,58.5351732 C57.3697576,62.3708732 54.8506566,66.3085168 52.2961717,70.2324919 C48.9073131,75.4361728 45.4385556,80.5977093 42.1501414,85.8680237 C39.5397273,90.0499903 36.9047727,94.2194274 34.3251768,98.4213271 C32.9720303,100.628207 31.5857828,102.81971 30.2634545,105.046523 C28.9816465,107.204425 27.7335101,109.391372 26.4066162,111.522506 C25.3679293,113.191192 25.726904,115.47154 27.0937475,116.837243 C27.9138535,117.656209 29.0421414,118.123213 30.2012475,118.123213 C31.2576263,118.123213 32.619904,117.693797 33.3087475,116.837243 C35.3330455,114.325671 36.9407273,111.522506 38.632303,108.784266 C40.2131616,106.232259 41.7826061,103.673986 43.3743081,101.128813 C46.4441414,96.2104604 49.4780202,91.2693271 52.6437323,86.4107738 C56.928601,79.8277217 61.2134697,73.2469477 65.4983384,66.6644652 C66.1871818,65.6051627 66.929101,64.5777533 67.6561818,63.540662 C69.8317172,60.4328054 72.0078232,57.3226706 74.1856414,54.2131054 C78.0202222,48.7354867 81.8525202,43.2607155 85.687101,37.7836663 C89.6306869,32.1505693 93.710101,26.6222635 97.7763889,21.0763027 C98.4652323,20.1371685 98.5342879,18.6404766 98.2380909,17.5635192 C97.9236313,16.4267624 97.1588838,15.4386496 96.1378889,14.8429344 C95.4359192,14.4323123 94.6317929,14.2204518 93.8248131,14.2204518 C93.4196111,14.2204518 93.0144091,14.2734169 92.6200505,14.3821947"/>
    <path fill="#2C2C2C" d="M32.7838682,16.2428082 C30.4856308,16.8744031 28.8020449,19.4930442 29.5958985,21.8491379 C35.1939641,38.4938546 40.6893025,55.1744508 46.1932015,71.8533386 C49.6083126,82.204318 52.8699035,92.6094016 56.2250904,102.983162 L59.228151,112.266296 C59.5625854,113.301109 59.8993025,114.335353 60.2337369,115.370166 C60.7639237,117.002973 61.2724237,118.640335 61.8562571,120.255487 C62.5028682,122.039785 63.3503682,123.719292 64.1773227,125.423288 C64.8507571,126.809493 66.5645904,127.63928 68.0495702,127.63928 C69.5408278,127.63928 71.2398227,126.807215 71.9218177,125.423288 C72.4326005,124.384488 72.9565096,123.374164 73.3354591,122.275565 C73.4958278,121.805713 73.5648833,121.303399 73.6430702,120.815892 C73.7834641,119.937126 73.8770601,119.052096 73.955247,118.166497 C74.064252,116.920393 74.2160601,115.679414 74.3610197,114.435588 C74.5750348,112.59149 74.742252,110.738281 74.7907621,108.880515 C74.8512571,106.704958 72.9274035,104.887059 70.7918177,104.887059 C69.7348682,104.887059 68.7093076,105.312488 67.9628227,106.057417 C67.7550854,106.326799 67.5456359,106.595611 67.3361864,106.864993 C67.2756914,106.969214 67.2203328,107.075145 67.1695399,107.182214 C67.0245803,106.733434 66.8796207,106.284085 66.7340904,105.834736 C65.9761914,103.487754 65.2137268,101.140773 64.4603934,98.7937915 C62.0662773,91.3257093 59.6715904,83.8599052 57.2774742,76.3935316 C53.2693985,63.8977495 49.0667116,51.4594886 44.9536258,38.9944604 C42.7980652,32.4626649 40.5934237,25.9468159 38.3996258,19.4264107 C38.0138278,18.2782635 37.3694995,17.3260304 36.3017066,16.7035478 C35.5997369,16.2929258 34.7956106,16.0822043 33.9886308,16.0816348 C33.5834288,16.0816348 33.1776561,16.1351694 32.7838682,16.2428082"/>
    <g transform="translate(0 68.237)">
      <mask id="thing-b" fill="#fff">
        <use xlink:href="#thing-a"/>
      </mask>
      <path fill="#2C2C2C" d="M106.470426,0.966755853 C106.304351,1.05275299 106.138845,1.13931964 105.97277,1.22360822 C105.071053,1.52773053 104.15678,1.70769804 103.214542,1.85691161 C99.6835778,2.27379838 96.1235071,2.45319637 92.5748505,2.66220927 C89.5409717,2.84217678 86.4865475,2.79319828 83.448103,2.84217678 C80.0284263,2.90026756 76.6110323,2.95323268 73.1930677,3.00904539 C66.6190929,3.11554515 60.0359869,3.49199618 53.4859818,4.05467941 C44.8899919,4.79334353 36.3425121,6.14594744 27.8555273,7.6762408 C23.7915222,8.41034878 19.7406434,9.20482561 15.6926182,10.0124013 C11.5258859,10.8444663 7.41508283,11.9100334 3.27973939,12.8753655 C0.902744444,13.431784 -0.477225253,16.0942781 0.151693939,18.3723478 C0.459305051,19.4891715 1.20864343,20.4596292 2.20966364,21.0445237 C3.27745657,21.6675757 4.47194646,21.7717974 5.66015859,21.496151 C8.89492626,20.7398318 12.1142848,19.9185877 15.355901,19.1981481 C18.6397495,18.4703048 21.9521333,17.8586431 25.2536737,17.2270483 C31.6975273,15.9957516 38.1613556,14.8760803 44.6594263,13.9807989 C49.0698505,13.4044472 53.4871232,12.9681968 57.9249414,12.6617965 C60.1472747,12.5108743 62.3701788,12.3907062 64.5947949,12.2790807 C66.6413505,12.1788457 68.6947545,12.0387444 70.7430222,12.0079904 C74.4218,11.9498997 78.0977242,11.896365 81.7759313,11.8411218 C87.5748859,11.7517076 93.3732697,11.7630979 99.1516788,11.2112355 C100.426638,11.0887893 101.699886,10.9686211 102.97028,10.802322 C104.341689,10.6195069 105.681138,10.425871 107.016593,10.0613798 C108.352047,9.69404109 109.609315,9.04251314 110.750729,8.27252556 C111.689542,7.64093072 112.391512,6.85784424 112.699123,5.74557668 C112.999886,4.65324224 112.844083,3.46295079 112.271093,2.48395031 C111.715795,1.53855136 110.797527,0.831210702 109.738866,0.541895843 C109.372472,0.441091257 109.010643,0.393821309 108.653381,0.393821309 C107.900047,0.393821309 107.169542,0.604542762 106.470426,0.966755853" mask="url(#thing-b)"/>
    </g>
    <g transform="translate(38.808 .464)">
      <mask id="thing-d" fill="#fff">
        <use xlink:href="#thing-c"/>
      </mask>
      <path fill="#2C2C2C" d="M13.9066475,1.43991094 C13.6680919,1.74688084 13.4295364,2.05385074 13.1932636,2.36082064 C12.7783596,3.07271744 12.5711929,3.83814888 12.5689101,4.66110158 C10.4892535,22.2563429 8.49177879,39.862405 6.49430404,57.466189 C6.01262727,61.7022597 5.49100101,65.9332048 5.06525354,70.1738316 C4.26283939,78.1402416 3.45985455,86.1089296 2.65515758,94.0753395 C2.38121818,96.8095927 2.10442525,99.543846 1.83048586,102.278099 C1.57195556,104.831815 1.46009697,107.407743 1.27747071,109.966585 C1.04119798,113.305665 0.804925253,116.644746 0.566369697,119.983827 C0.465925253,121.381423 0.468208081,122.791548 0.419127273,124.190852 C0.352354545,126.068551 0.287864646,127.943972 0.221091919,129.821671 C0.16059697,131.556991 0.207394949,133.300853 0.205112121,135.038451 C0.202829293,136.346632 0.18970303,137.657092 0.218809091,138.965274 C0.247344444,140.301931 0.45279899,141.685858 0.827182828,142.971829 C1.03035455,143.456488 1.23295556,143.939439 1.43783939,144.42239 C1.70321818,144.860349 2.00626364,145.27211 2.34754646,145.657103 C2.73106162,145.970338 3.12313737,146.275599 3.52034949,146.571179 C3.74977374,146.684513 3.97919798,146.800125 4.20919293,146.914028 C5.28782929,147.449944 6.38701111,147.681168 7.57978889,147.354265 C8.67212222,147.05413 9.62177879,146.324008 10.1924859,145.347856 C11.2791121,143.496924 10.7991475,141.218854 9.26679899,139.855429 C9.17776869,138.608756 9.25196061,137.359234 9.26508687,136.108574 C9.27650101,135.140964 9.28734444,134.173354 9.29875859,133.207452 C9.31188485,131.95964 9.30960202,130.711257 9.35411717,129.465723 C9.42773838,127.436532 9.5013596,125.405633 9.57498081,123.376442 C9.61721313,122.217474 9.62177879,121.051672 9.70453131,119.894982 C9.95849596,116.308731 10.2124606,112.720771 10.4692788,109.13452 C10.6342131,106.793803 10.7432182,104.439987 10.9772081,102.106674 C11.7351071,94.5918918 12.4930061,87.0788178 13.2491929,79.5640352 C13.6812182,75.281264 14.0869909,70.9990624 14.5732333,66.7231255 C16.2362737,52.0779845 17.8970313,37.4328436 19.5600717,22.7899807 C20.2466323,16.743414 20.9868394,10.7036816 21.7002232,4.66110158 C21.8343394,3.53117898 21.1340818,2.20762045 20.3630566,1.43991094 C19.5109909,0.587912852 18.3410414,0.104962064 17.1345667,0.104962064 C15.9286626,0.104962064 14.7581424,0.587912852 13.9066475,1.43991094" mask="url(#thing-d)"/>
    </g>
  </g>
</svg>
