<svg xmlns="http://www.w3.org/2000/svg" width="60" height="58" viewBox="0 0 60 58">
  <path fill="#474747" fill-rule="evenodd" d="M242.813559,220.818088 C243.625309,220.759375 243.788334,220.510297 243.456129,219.74217 C243.14667,219.026513 241.373299,214.697931 240.174499,213.596199 C239.791069,213.243684 239.330712,213.085136 238.856477,213.378098 C238.587805,213.54409 237.462011,214.78744 237.122686,215.176756 C236.93987,215.386513 234.213445,219.321817 233.919974,219.932476 C233.624091,220.548058 233.894332,220.952742 234.583299,220.965169 C235.263156,220.977476 242.113671,220.868696 242.813559,220.818088 M236.179466,211.172714 C236.187551,210.597835 235.935109,210.307874 235.46721,210.259067 C234.170486,210.123872 225.314007,210.162954 225.060962,210.271614 C224.716508,210.419536 224.615024,210.688966 224.746253,211.060032 C225.1543,212.213392 229.050866,216.723455 229.988414,217.76005 C230.429223,218.247461 230.663384,218.224768 231.15952,217.779141 C231.876965,217.134803 235.300081,212.791633 235.433784,212.528146 C235.692018,212.019184 236.195696,211.626986 236.179466,211.172714 M242.695604,210.400926 C242.215819,210.505024 242.110715,210.835987 242.360201,211.2561 C242.452152,211.410926 245.820182,217.928023 246.6875,219.024892 C247.249823,219.736047 247.616058,219.839604 248.253499,219.212676 C248.948922,218.528717 252.929656,212.0112 253.630509,211.0389 C253.836554,210.753021 253.812118,210.569139 253.520337,210.413593 C253.382471,210.340112 253.22747,210.284401 253.073676,210.256606 C251.342056,209.943112 243.301309,210.269453 242.695604,210.400926 M225.796689,221.203982 C226.180119,221.163639 226.60699,221.16442 227.009365,221.066085 C227.667803,220.905136 227.854721,220.40746 227.469783,219.837083 C227.08231,219.263104 226.012206,217.882578 225.91223,217.734596 C225.543884,217.189494 223.077262,213.906932 222.306842,212.740844 C221.777884,211.94018 221.205424,211.863337 220.528282,212.522263 C219.783022,213.247346 214.852915,218.704554 214.564693,219.130431 C214.484267,219.249297 213.598184,220.507115 215.219933,220.495528 C216.531741,220.600347 220.714537,220.800498 221.963113,220.872178 C222.040161,220.87656 222.105986,220.880522 222.159323,220.883884 C223.359751,220.960246 224.55662,221.0922 225.796689,221.203982 M254.549534,220.862992 C257.158849,220.553761 265.02559,220.319031 266.186197,220.146315 C266.857728,220.046419 267.039397,219.84903 266.874501,219.194727 C266.624231,218.201415 266.000667,217.433169 265.340902,216.701243 C264.407577,215.665788 260.450495,211.786075 259.303885,211.014827 C258.947727,210.775294 258.514339,210.709197 258.176643,210.991834 C257.751884,211.347351 257.393734,211.783013 257.016036,212.1925 C256.731918,212.500531 252.502543,218.85944 251.587319,220.140792 C251.313759,220.523804 251.483422,220.775104 251.965077,220.815866 C252.504956,220.861612 254.23187,220.900633 254.549534,220.862992 M217.05358,211.228305 C217.862916,210.614104 220.518568,208.333919 221.123187,207.925092 C221.304253,207.802684 221.586078,207.802744 221.823678,207.792778 C222.641099,207.758679 223.459907,207.756878 224.277208,207.720498 C225.30918,207.674633 229.959634,207.40028 230.154034,207.41679 C231.794366,207.555827 244.373586,207.698406 244.733666,207.693003 C246.961482,207.659564 249.189478,207.636992 251.417415,207.612738 C251.925196,207.607275 256.388068,206.735591 256.977301,206.906146 C257.777225,207.137755 259.716638,208.356071 259.979338,208.532809 C260.184115,208.670585 262.007022,210.17418 262.167332,210.287343 C263.278223,211.071738 265.59268,213.758709 265.978343,214.244679 C266.684506,215.134613 269.730949,219.055149 270.525201,220.142232 C271.073527,220.892649 271.006736,221.883379 270.408392,222.575203 C269.495823,223.630288 257.179725,241.499386 256.480682,242.423539 C255.358146,243.907623 254.197056,245.36271 253.058351,246.834727 C252.446854,247.625246 240.989265,261.300236 240.733142,261.382181 C240.545138,261.442335 240.33312,261.441194 240.15658,261.521399 C239.655918,261.748985 235.677598,257.90187 235.311183,257.565863 C234.97946,257.261614 220.603158,239.403323 219.990756,238.694809 C219.456971,238.077307 208.979165,224.814626 208.527677,224.255836 C207.747905,223.29062 207.993892,221.614129 209.001368,220.91222 C209.62813,220.475597 212.696415,216.686654 213.591789,215.639493 C214.031391,215.125368 216.307414,211.794599 217.05358,211.228305 M245.21333,249.658034 C245.850048,249.634621 246.56146,249.508912 247.045408,248.978877 C247.53545,248.442119 255.639851,237.719628 256.46958,236.49741 C257.491417,234.992254 258.498109,233.476173 259.554095,231.994971 C260.202517,231.085466 265.791062,224.059887 266.097324,223.570315 C266.396224,223.09263 266.093221,222.629233 265.528484,222.65997 C264.988062,222.689386 264.450294,222.76923 263.909812,222.795765 C262.689593,222.855618 251.397263,223.334144 250.896602,223.346331 C250.416515,223.357977 250.114899,223.589706 249.998814,224.071713 C249.727608,225.197938 248.842491,228.92967 248.639342,229.660095 C248.093249,231.623305 246.372671,240.718953 246.12777,242.095097 C245.879853,243.48823 245.21333,249.000009 245.21333,249.658034 M234.23963,248.363836 C234.090663,247.888972 232.820728,241.497585 232.787544,241.404113 C232.250078,239.890973 230.130986,226.639278 229.81664,224.954263 C229.713406,224.400996 229.390131,223.994991 228.835047,223.918808 C227.646806,223.755698 212.33917,222.770731 212.050105,222.843552 C211.108635,223.080563 210.928232,223.683358 211.589566,224.347326 C211.899991,224.659019 214.057818,227.16457 214.796501,228.130566 C215.984983,229.684769 217.12755,231.274571 218.343726,232.806741 C219.88161,234.744377 221.502333,236.617176 223.031286,238.561596 C223.864394,239.621064 233.117577,249.300116 233.807449,249.950697 C234.027974,249.70348 234.348716,248.711609 234.23963,248.363836 M232.917325,223.706651 C232.257801,223.77707 231.892049,224.239146 231.949669,224.905036 C231.98581,225.322748 232.291287,228.365897 232.705428,229.43545 C233.106294,230.470545 235.246624,241.600482 235.515659,242.682643 C235.914233,244.285893 237.748482,251.875125 238.571756,253.427707 C238.722654,254.076967 239.59317,254.361105 240.05944,253.914577 C240.195556,253.784244 241.088577,252.065731 241.158505,251.88521 C241.606735,250.728909 243.138525,244.585279 243.380831,242.666014 C243.532875,241.461325 247.172112,225.442454 246.777278,224.500771 C246.565321,223.995291 246.3527,223.659525 245.825129,223.619122 C243.827733,223.466097 233.455997,223.649139 232.917325,223.706651" transform="rotate(-17 -542.669 821.897)"/>
</svg>
