<svg xmlns="http://www.w3.org/2000/svg" width="76" height="65" viewBox="0 0 76 65">
  <g fill="#474747" fill-rule="evenodd">
    <path d="M12.5618251 14.4272949C11.6099581 14.3304464 10.9917685 13.7974579 10.5557414 13.0964319 10.3142936 12.7081802 10.4810964 11.1397346 11.0032523 10.7399039 11.3334128 10.4871686 12.6866401 10.0201515 13.0790286 10.235291 13.2661435 10.3378575 13.4764413 10.4003981 13.6578143 10.5110412 15.1940653 11.4482918 15.032502 12.9463346 13.9868981 13.8890887 13.6362103 14.2052223 13.0437876 14.2554692 12.5618251 14.4272949M63.1616709 14.2576857C62.1975305 14.3807655 61.0860381 13.1484665 60.7417382 12.2207221 60.3240852 11.0952065 60.8184646 10.3002625 61.8325597 9.85397314 62.6282464 9.50381753 63.5007313 9.45507163 64.3257018 9.89742989 64.7028743 10.0997039 66.0456943 11.531275 65.869202 12.1603258 65.4903788 13.5102725 64.3481671 14.2511815 63.1616709 14.2576857"/>
    <path d="M67.5964586,62.8712912 L64.0060353,59.3650891 C64.0060353,59.3650891 67.0289415,52.1068113 67.4775291,50.4140709 C67.8096992,49.1604008 68.3756373,44.5674941 68.524712,42.2969505 C68.6737148,40.0264068 67.9591327,36.1922063 67.788813,34.8997969 C67.6930665,34.1734688 66.4859711,27.6641766 65.5853507,25.7277782 C65.4971405,25.5382267 65.2695451,25.4130027 65.0912584,25.2433212 C64.5998935,25.6906827 64.658174,29.1343442 64.447302,30.2870202 C63.9768951,32.8584018 63.3462168,40.0629305 61.5614842,44.0472282 C59.7766797,48.031526 57.4673508,52.2148099 56.5538829,53.2556991 C56.0883567,53.786186 55.6323046,54.5307402 55.6323046,54.5307402 L50.8660076,55.3020975 C51.7141611,54.0961012 55.2049621,49.2705437 55.5832829,48.528634 C56.4152873,46.8970761 57.2791593,45.280242 58.0629316,43.6259551 C59.1823909,41.2629228 59.8184522,38.7478635 60.2038787,36.1739088 C60.4820747,34.3161327 60.6759364,32.44592 60.9257817,30.5837126 C60.9887275,30.1145512 61.1840964,29.6583983 61.2115141,29.1900946 C61.2863744,27.911051 61.3569282,26.6273615 61.3253476,25.348032 C61.3053945,24.5402224 60.967626,23.8283323 60.1448087,23.4532319 C58.2061925,22.5694446 56.441413,21.3937537 54.7713035,20.0945541 C53.545188,19.1407213 52.4741044,17.9944066 51.6502822,16.6715488 C50.6439388,15.055501 50.3257646,13.2609088 50.6535565,11.392483 C50.8294028,10.3900473 51.8368947,6.73975178 53.9840143,4.57484803 C56.6980051,1.83828789 60.7050766,0.607918668 61.2942695,0.471973376 C63.2297994,0.0254695706 65.1125035,0.175423946 66.9860206,1.03019248 C67.3787681,1.20938009 70.7727459,2.88939801 72.3581621,4.86074769 C74.6501935,7.71081 75.2816613,11.1741271 75.3564498,11.6277069 C75.5013615,12.5061336 75.5043043,16.0777352 74.2242865,18.3457058 C72.8122763,20.8473279 70.0791936,22.0333827 69.6805607,22.3883986 C69.1505096,22.8604904 68.8116645,23.3412307 69.0030858,24.0531924 C69.3173124,25.2219502 69.62996,26.3922805 69.9931365,27.546386 C70.2014965,28.2083866 71.3308606,32.9871281 71.6725049,37.6176306 C71.9950574,41.9895368 71.538144,46.232002 71.484457,46.6647826 C71.3486606,47.7605646 70.8961972,51.2198076 70.0401485,54.4316045 C69.098617,57.9640378 67.5964586,62.8712912 67.5964586,62.8712912 M72.3860822,12.2905653 C72.2253084,11.4523789 72.1482949,10.5862459 71.8781375,9.78465471 C71.6488913,9.10442793 70.775258,6.94588544 68.8392975,5.18860314 C68.0356438,4.45913014 65.1054697,2.78282891 62.6693161,3.14534969 C59.2365803,3.65618092 56.1142671,6.56256546 55.4672961,7.48151847 C54.1333043,9.37624704 53.6222015,12.262976 53.8882678,13.3936377 C54.5443541,16.1816598 57.8161007,18.5217485 58.367684,18.9402342 C58.8397417,19.2983235 62.1484521,21.2580228 64.7022433,21.109355 C67.8832676,20.9242349 70.4196177,18.499091 70.9704833,17.6309567 C72.2004028,15.6926999 72.3754596,12.8149053 72.3860822,12.2905653 M5.63050653,64.6548048 C5.15076902,63.3140783 2.529582,51.9961681 2.29208179,48.8968728 C2.05465334,45.7975775 2.90955363,37.8495667 2.94163662,37.2608993 C3.05669036,35.1498161 4.36455646,27.896899 4.4075491,27.6643911 C4.4586522,27.3877831 5.30170977,24.4811842 5.48150368,23.8343362 C5.58851874,23.4493008 5.43822395,23.1831997 5.1649085,22.9568386 C3.72555241,21.7643511 2.79385392,20.1771076 1.75614522,18.6666997 C0.92794486,17.4614182 0.790497622,16.0921017 0.655634248,14.7097768 C0.651112485,14.6634611 1.0615163,9.03566906 3.08403626,5.93973304 C5.10655623,2.84379702 8.13247692,2.55639638 8.58479676,2.41623406 C9.46567924,2.14334283 12.3436019,2.00475297 14.8048047,2.43853424 C16.5093657,2.73894331 20.8069066,4.36335375 22.4475888,6.2726632 C23.5693449,7.25501446 25.0273623,10.846772 25.1085387,11.4076356 C25.189428,11.9669983 25.2151948,17.6682666 21.7563333,21.2477304 C19.2748903,23.8158242 15.7522216,24.3445241 15.2627229,24.521639 C14.5867552,24.7662976 14.3533461,25.3305921 14.2504939,25.9424888 C14.1493643,26.5440217 14.0769444,27.168641 14.1233822,27.7731759 C14.2822898,29.8418744 14.4989038,31.9062129 14.6936267,33.9721954 C14.6999428,35.832616 17.7796222,43.6082293 19.1390939,46.1545232 C19.7763036,47.3478684 20.9286354,48.6467106 21.5221347,49.8654294 C22.0935994,51.0389046 24.9996575,54.7303696 25.2788584,55.0810256 C25.3940557,55.2257623 22.0750099,55.7044298 20.4372705,55.2980234 C19.8588437,55.1545018 19.0655973,53.8107019 18.9292266,53.5177976 C18.8990815,53.4531128 18.8594623,53.392931 18.8280253,53.3287465 C18.4771221,52.6136399 14.4833288,46.942963 12.4638952,40.7349376 C10.4445333,34.5269122 10.3995309,27.7815384 9.99788356,26.433593 C9.81529047,25.8209815 9.15331873,25.6708127 9.00675619,25.6735287 C8.61831522,25.6806762 8.37012068,25.8502862 8.24702824,26.2045874 C7.93560079,27.1014546 7.61563223,27.9956773 7.32609586,28.8995491 C6.98351849,29.9690283 5.975596,39.0925155 6.15897861,47.0207277 C6.29398553,52.8560829 8.00888206,60.0397409 8.18860419,60.6284083 C8.52120498,61.717686 5.83398587,65.2236021 5.63050653,64.6548048 M11.0373866,4.98368455 C11.0354487,5.00155328 9.52740489,4.90820704 8.32798933,5.54526297 C7.27527986,6.10441125 6.53349541,7.36587205 6.26161545,7.86090733 C5.82723911,8.65192023 5.24881232,9.37417427 4.88943983,10.1942775 C4.60026233,10.8541339 3.67617189,14.4225191 4.32658801,16.5539011 C5.27192356,19.6516955 8.03271103,21.491174 8.33897076,21.7350464 C8.46579544,21.8360404 12.547799,22.2894058 13.5214853,21.8669176 C14.4287088,21.4731623 18.2612259,21.3050533 20.399948,18.6475444 C22.0493148,16.5980726 22.2545167,12.0411893 22.0421374,11.1236658 C21.8321267,10.2164347 19.8274067,7.35979669 17.2802186,6.08554187 C14.6146753,4.75210582 11.398697,5.01970791 11.0373866,4.98368455"/>
  </g>
</svg>
