<svg xmlns="http://www.w3.org/2000/svg" width="36" height="41" viewBox="0 0 36 41">
  <g fill="none" fill-rule="evenodd">
    <path fill="#474747" d="M5.84000217,10.360402 C5.81241522,10.3955386 5.78482826,10.4308683 5.7572413,10.466005 C5.78482826,10.4306753 5.81241522,10.3955386 5.84000217,10.360402 M19.8786326,3.67961595 C20.2953717,3.7680367 20.7099587,3.86804095 21.1245457,3.97731201 C22.0349152,4.21882807 22.9351109,4.49605994 23.8106543,4.84047613 C24.9340891,5.33103753 25.9861109,5.96137322 26.969263,6.68707976 C27.7043283,7.26722026 28.3865674,7.90411994 28.981937,8.62500002 C29.8428065,9.78141985 30.4974587,11.07105 31.0740457,12.3850055 C31.8437413,14.2348911 32.3980239,16.1558222 32.6956109,18.135057 C32.9481978,20.1457602 32.9611109,22.1765416 32.7138065,24.1885963 C32.4891978,25.7002436 32.1182413,27.1862141 31.5438065,28.607124 C31.0460674,29.7230015 30.4311326,30.7805755 29.6933283,31.7589955 C28.9958283,32.6132789 28.2104804,33.3847403 27.3455022,34.0729935 C26.3897413,34.7747608 25.3516109,35.3456345 24.2612413,35.8170831 C22.7384804,36.4159503 21.1208283,36.758822 19.5002413,36.9874031 C18.3863935,37.1215787 17.2690239,37.1883769 16.1469587,37.1939756 C15.0131543,37.2005396 13.8795457,37.1594182 12.7531761,37.0289107 C11.3971109,36.8302536 10.0525891,36.4964556 8.77908913,35.9960482 C8.0379587,35.6668837 7.34613261,35.2655152 6.69108913,34.7903985 C5.98498043,34.2297569 5.33639348,33.6063713 4.76587174,32.9103958 C4.25502391,32.2227217 3.82185,31.489872 3.4659587,30.713005 C3.25954565,30.1958016 3.09617609,29.6685591 2.99600217,29.1206593 C2.9439587,28.5517162 2.96528478,27.9847037 3.01517609,27.4144091 C3.06702391,26.8163142 3.14215435,26.2189915 3.22080652,25.6232133 C3.46204565,23.9345314 3.80717609,22.2645762 4.22058913,20.6091004 C4.62558913,18.9891474 5.01415435,17.3605067 5.64239348,15.8087032 C6.01921957,14.975077 6.48291522,14.2020712 7.01469783,13.4524254 C7.52730652,12.7313523 8.07454565,12.0319017 8.62080652,11.3341886 C9.19680652,10.6034625 9.79041522,9.8870228 10.4325457,9.21035309 C11.0744804,8.53233198 11.7831326,7.91840626 12.5223065,7.34540892 C13.2833935,6.78090614 14.0755891,6.26215821 14.8949804,5.78202196 C15.7934152,5.25535864 16.7147413,4.76576253 17.6716761,4.34991473 C18.3912848,4.06360911 19.1226326,3.83425573 19.8786326,3.67961595 M14.1933717,0.340284742 C13.4360022,0.453416967 12.7351761,0.670607671 12.0503935,1.01444469 C11.3075022,1.38704741 11.098937,2.4011832 11.5015891,3.07997655 C11.701937,3.41705652 12.0335674,3.66976997 12.4156761,3.77305622 C12.5669152,3.81437071 12.7126761,3.82981539 12.8551109,3.82440975 C11.6131109,4.58641127 10.4319587,5.4439767 9.33963261,6.4065659 C7.94776304,7.633259 6.81454565,9.11189331 5.67956739,10.5648509 C4.79717609,11.6884508 3.9069587,12.8126298 3.28419783,14.102453 C2.61017609,15.4961417 2.16389348,16.9786371 1.77102391,18.4696272 C1.38441522,19.9357127 1.01600217,21.4062386 0.723306522,22.8941397 C0.419067391,24.4445917 0.19661087,26.0191761 0.0453717391,27.5908645 C0.0117195652,27.9430031 -0.00197608696,28.2951416 0.000176086957,28.6482454 C0.00252391304,29.0673752 0.0659152174,29.4830299 0.127936957,29.8961749 C0.247871739,30.703159 0.564241304,31.4611063 0.88608913,32.2061187 C1.47598043,33.5749028 2.38008913,34.8274657 3.42643696,35.8916036 C3.96448043,36.4391173 4.56376304,36.9150062 5.17732826,37.3764158 C5.77348043,37.8252766 6.42011087,38.1992307 7.09726304,38.5144951 C8.4789587,39.1562213 9.95476304,39.5755441 11.4534587,39.8500732 C13.0615239,40.1441011 14.7008935,40.2136021 16.3334152,40.2089687 C17.9628065,40.2037561 19.58985,40.0392704 21.1955674,39.7662858 C21.9179152,39.6435007 22.6355674,39.4919498 23.3448065,39.3077721 C24.1763283,39.0928981 24.9773283,38.7965534 25.7652196,38.4594735 C26.4095022,38.1834 27.0353935,37.8750857 27.6423065,37.525843 C28.3583935,37.1155939 29.0202848,36.6261909 29.6645674,36.1140069 C32.0550457,34.2129608 33.7533065,31.5794511 34.7849804,28.7476705 C35.3177413,27.2846739 35.6035891,25.7598986 35.8076543,24.2229607 C36.006437,22.7296539 36.0361761,21.2154969 35.9483283,19.7131164 C35.8626326,18.2501198 35.6472196,16.786351 35.3132413,15.3596494 C34.9653717,13.8738719 34.4465022,12.4373243 33.841937,11.0361064 C33.3046761,9.78952831 32.7008935,8.56631026 31.9311978,7.44193812 C31.127263,6.26621244 30.1329587,5.2578684 29.0034587,4.38775417 C27.9234587,3.55605857 26.7786978,2.81683794 25.5327848,2.25426576 C25.3979804,1.83745266 25.0530457,1.49728375 24.6012848,1.355965 C23.6832848,1.06946633 22.7157848,0.856715972 21.750437,0.83876154 C21.5925457,0.835672606 21.434263,0.836830956 21.2759804,0.841464358 C21.2184587,0.827178036 21.1607413,0.812891714 21.1032196,0.798798451 C20.3258935,0.60786369 19.5303717,0.495503699 18.7370022,0.396078621 C18.0162196,0.30553423 17.29485,0.231592861 16.5687848,0.202247984 C16.4148065,0.196070115 16.2610239,0.193174239 16.107437,0.193174239 C15.4664804,0.193174239 14.8298283,0.245300008 14.1933717,0.340284742"/>
    <path fill="#474747" d="M14.3372348 14.7021697C14.3309739 14.7081545 14.324713 14.7139462 14.3184522 14.719931 14.0050174 14.6817055 13.6800391 14.7469592 13.3865609 14.8560372 13.1701696 14.9367356 12.9676696 15.0294037 12.7667348 15.1404122 12.5755826 15.2458221 12.4112348 15.3967938 12.242387 15.5325139 11.9624087 15.7562686 11.7413217 16.0838887 11.5333435 16.3669123 11.328887 16.4856432 11.1428217 16.627155 10.9561696 16.7873935 10.7605174 16.9547751 10.6190609 17.2466794 10.5327783 17.4781565 10.4478652 17.7044209 10.4234087 17.949412 10.4157783 18.190735 10.4042348 18.5648822 10.5656478 18.9359405 10.7360609 19.2571896 10.8288 19.4315214 10.9714304 19.5824931 11.1015391 19.7326925 11.4597783 20.3680477 12.1373217 20.7908456 12.8538 20.9501188 13.4507348 21.0825568 14.0803435 21.0076502 14.6119304 20.7362101 14.6837348 20.7230821 14.7553435 20.7089888 14.8263652 20.6945095 14.9762348 20.6643923 15.1229739 20.6176722 15.2704957 20.5790605 15.4591043 20.5294445 15.7428 20.4441127 15.8916913 20.3439154 16.0675826 20.2253775 16.2387783 20.1085772 16.3786696 19.9502693 16.507213 19.803738 16.6024957 19.6740027 16.6846696 19.5166601 16.7938435 19.4342242 16.9004739 19.3481201 17.0090609 19.2654912 17.0458435 19.2315129 17.083213 19.1967624 17.1207783 19.1627841 17.2291696 19.027064 17.3361913 18.8905717 17.443213 18.752535 17.5486696 18.5527195 17.6349522 18.3453748 17.7122348 18.1333967 17.7895174 17.9177504 17.7895174 17.6764274 17.8176913 17.4509352 17.8237565 17.3522824 17.8192565 17.2526642 17.8024304 17.1545906 17.7756261 16.9155843 17.7435391 16.7043784 17.6770174 16.4781139 17.6236043 16.2949015 17.519713 16.0338865 17.4332348 15.8846524 17.3293435 15.7029844 17.1955174 15.542939 17.0571913 15.3854034 16.9488 15.2603015 16.7140174 15.1139632 16.5512348 15.02728 16.382387 14.9371217 16.1779304 14.862022 15.9859957 14.8120199 15.9566478 14.7734082 15.9245609 14.7367271 15.8895391 14.7021697 15.6766696 14.4923152 15.4000174 14.3901873 15.1221913 14.3901873 14.8390826 14.3901873 14.5551913 14.4961763 14.3372348 14.7021697M26.327113 12.5671368C25.8908087 12.637217 25.481113 12.9571148 25.1768739 13.2542316 24.959113 13.4667889 24.8076783 13.7092703 24.6830478 13.9687408 24.5171348 14.0069664 24.3543522 14.0594782 24.194113 14.1258903 23.9708739 14.2179792 23.7820696 14.2896039 23.5848522 14.4147057 23.3968304 14.534595 23.2250478 14.6764929 23.0812435 14.8446468 22.9245261 15.027087 22.8000913 15.1900283 22.6983522 15.4004619 22.5271565 15.7549171 22.4950696 15.9155417 22.4469391 16.3053266 22.4152435 16.5588123 22.4361783 16.8207926 22.4874391 17.0750505 22.4864609 17.0829659 22.4854826 17.0908813 22.4843087 17.0987967 22.4882217 17.1507294 22.4919391 17.2020829 22.4950696 17.2532434 22.5079826 17.4463018 22.5394826 17.6356921 22.5883957 17.8219935 22.6425913 18.051926 22.7672217 18.2743293 22.8787435 18.4826393 23.0980696 18.891344 23.4717652 19.165873 23.8333304 19.4373131 23.9845696 19.5504454 24.2964391 19.6664735 24.4431783 19.7141589 24.6685696 19.787135 24.8757652 19.8166729 25.1187652 19.8392607 25.2234391 19.8489136 25.3275261 19.8502651 25.4306348 19.8444733 25.8258522 19.906252 26.2230261 19.8871392 26.6129609 19.7796057 27.051613 19.6581719 27.4597435 19.3882763 27.7984174 19.0950206 28.4059174 18.570867 28.7199391 17.8588676 28.9852435 17.1237012 29.0899174 16.8333414 29.1357 16.5173048 29.1853957 16.2142031 29.256613 15.784262 29.3000478 15.354514 29.2902652 14.9193604 29.2795043 14.4284129 29.1456783 13.9600532 28.9079609 13.5324288 28.6573304 13.0806721 28.1574391 12.7684967 27.6798522 12.6011151 27.4620913 12.524857 27.2458957 12.4968635 27.0287217 12.4968635 26.7972652 12.4968635 26.5646348 12.5285251 26.327113 12.5671368M16.7776239 26.0324199C16.1769717 26.1658232 15.6052761 26.3920877 15.0404283 26.6297426 14.4908413 26.8619918 13.9719717 27.1386445 13.4652326 27.451013 12.934037 27.778247 12.4372761 28.1599235 11.9489283 28.5460403 11.5065587 28.8966343 11.0921674 29.2804344 10.7024283 29.6862432 9.88401522 30.5360863 9.2258413 31.5127688 8.62068913 32.5164794 8.18497174 33.2404484 8.45086304 34.2072849 9.18240652 34.6295036 9.92295 35.057128 10.8888848 34.7984297 11.3238196 34.0760052 11.6307978 33.566331 11.9432543 33.0578152 12.2975804 32.5788373 12.8864935 31.8602739 13.5485804 31.21932 14.2785587 30.6405309 14.9482761 30.1536376 15.6549717 29.7271716 16.41195 29.387968 17.0832326 29.1337101 17.7652761 28.9622742 18.4745152 28.8503003 19.2209283 28.7696019 19.9677326 28.7636171 20.7153196 28.8416127 21.4337543 28.948374 22.1517978 29.0962567 22.8404935 29.3227142 23.1852326 29.4366187 23.5268413 29.556508 23.8668848 29.6831543 24.2261022 29.8167507 24.5700587 29.9750586 24.940037 30.0827852 25.5498848 30.2600128 26.227037 29.9735141 26.5441891 29.4381632 26.7367109 29.1145973 26.7887543 28.7194067 26.6877978 28.3574222 26.5862543 27.9938932 26.3501022 27.7216809 26.0345152 27.5195488 25.2747978 27.0332346 24.4493413 26.6658445 23.6054935 26.3453675 23.2494065 26.2104197 22.873363 26.1274046 22.504363 26.036281 22.2995152 25.9856997 22.0878196 25.956934 21.8806239 25.9177432 21.3609717 25.8196695 20.8305587 25.7542227 20.3032761 25.715611 20.0745587 25.6988149 19.8446674 25.6908996 19.6143848 25.6908996 18.661363 25.6908996 17.7003196 25.8271988 16.7776239 26.0324199"/>
  </g>
</svg>
