<svg xmlns="http://www.w3.org/2000/svg" width="405" height="47" viewBox="0 0 405 47">
  <path fill="#FDF259" fill-rule="evenodd" d="M187.867779,101.736279 C184.60674,105.129684 186.988091,108.723106 187.694319,112.179874 C188.127968,114.326613 188.564095,116.474116 189.010134,118.623908 C189.659368,121.835619 190.33586,125.044276 191.061912,128.255987 C192.79403,135.908516 194.585619,143.554174 196.404466,151.20365 C199.705153,165.150582 203.258596,179.092171 206.812038,193.03376 C211.012237,209.578613 215.309078,226.123466 219.695126,242.665265 C219.918145,243.499684 220.624373,244.215773 222.599334,244.824219 C224.447917,245.393731 226.982904,245.718948 229.607099,245.718948 C231.562236,245.718948 233.477725,245.533437 235.103289,245.202876 C240.098923,261.317923 245.10447,277.43068 250.097626,293.545727 C257.1946,316.409414 264.009081,339.279207 270.927639,362.149001 C281.451677,396.95335 291.983148,431.760753 302.504708,466.568156 C302.911099,467.904142 303.364572,469.237074 303.587591,470.576114 C304.197178,474.174879 304.806764,477.774408 305.418829,481.373937 C305.619546,482.56869 305.820263,483.76268 306.023459,484.957433 C309.378662,484.52152 312.733865,484.085607 316.084112,483.649694 C319.231164,483.38784 322.380693,483.201566 325.530223,483.09087 C324.960284,479.720367 324.390346,476.349865 323.817929,472.979363 C323.59491,471.64643 323.461098,470.30739 323.054707,468.974458 C321.892528,465.11842 320.73035,461.262382 319.560737,457.407107 C307.983552,419.125377 296.406367,380.841356 284.81927,342.559626 C278.247631,320.799083 271.626433,299.041593 264.878857,277.287157 C255.683024,247.624446 246.700298,217.954865 237.107985,188.306659 C232.238728,173.247422 227.369471,158.190476 222.502692,143.131239 C220.817657,137.920893 218.86252,132.717418 217.041195,127.510889 C215.638651,123.499876 214.226194,119.48581 212.821172,115.474798 C211.215432,110.882059 209.017452,106.31375 206.985498,101.736279 C206.509723,101.217153 205.659771,100.769789 204.430687,100.388078 C202.579626,99.8185667 200.044638,99.4933494 197.420443,99.4933494 C192.950143,99.4933494 189.1266,100.430067 187.867779,101.736279" transform="rotate(-76 57.21 191.644)"/>
</svg>
