<svg xmlns="http://www.w3.org/2000/svg"  width="348" height="164" viewBox="0 0 348 164">
  <path fill="#FDF259" fill-rule="evenodd" d="M275.981102,1907.65556 C275.96189,1907.70077 275.942679,1907.74484 275.923467,1907.79005 C275.940419,1907.7471 275.95624,1907.70303 275.974321,1907.66009 C275.976582,1907.65895 275.978842,1907.65669 275.981102,1907.65556 M241.339233,1882.60253 C241.275948,1882.75397 241.211533,1882.9054 241.147117,1883.05683 C241.203622,1882.90088 241.268037,1882.74945 241.339233,1882.60253 M443.720796,1755.92138 C440.083027,1756.3316 436.481421,1756.86952 432.865123,1757.44361 C431.669485,1757.63347 430.437684,1757.75778 429.254476,1758.0177 C427.779705,1758.33978 426.310584,1758.67541 424.840333,1759.00201 L418.734441,1760.36603 C417.927555,1760.54685 417.105977,1760.70167 416.311522,1760.93108 C412.629679,1761.99111 408.947836,1763.05452 405.270514,1764.11455 C403.169671,1764.71915 401.055267,1765.2842 398.975896,1765.95434 L377.667994,1772.82757 C366.689141,1776.36815 355.745321,1780.05451 344.731436,1783.49338 C331.16128,1787.73123 317.578693,1791.92953 304.004016,1796.15382 C292.751681,1799.65032 281.481264,1803.07563 270.216498,1806.53259 C260.557594,1809.49908 250.90321,1812.48253 241.212663,1815.35635 C226.018563,1819.8643 210.824464,1824.37111 195.625844,1828.8734 C192.455933,1829.81363 189.241949,1830.59114 186.037005,1831.41611 C177.477682,1833.61527 168.918358,1835.8133 160.363554,1838.01585 C150.492192,1840.55404 140.61744,1843.05267 130.733648,1845.52984 C128.923239,1845.98413 127.647364,1847.74482 127.647364,1849.58122 C127.647364,1851.92164 129.559481,1853.71397 131.850179,1853.78403 C132.759904,1853.81116 133.668499,1853.83263 134.578224,1853.83263 C135.759171,1853.83263 136.83954,1853.32183 137.608003,1852.51268 C153.034902,1848.77772 168.441459,1844.96592 183.852536,1841.15412 C188.050831,1840.11669 192.305631,1839.2081 196.464373,1838.02489 C202.128399,1836.41338 207.795815,1834.80186 213.459841,1833.19148 C226.177906,1829.57066 238.931005,1826.05268 251.621949,1822.33129 C265.571816,1818.24374 279.526203,1814.17315 293.479461,1810.09012 C315.591989,1803.6226 337.73051,1797.22175 359.797835,1790.60054 C372.895612,1786.67121 385.997909,1782.77352 399.112638,1778.91538 C404.86029,1777.22928 410.670098,1775.79067 416.466345,1774.28878 C418.677936,1773.71582 420.849975,1773.20389 423.087559,1772.76202 C425.180491,1772.35632 427.272293,1771.94496 429.369746,1771.53474 C430.590246,1771.29516 431.810746,1771.0036 433.043678,1770.82843 C435.613509,1770.48375 438.18334,1770.14021 440.753172,1769.79553 C441.427837,1769.71416 442.107023,1769.65201 442.787339,1769.5955 C439.342816,1771.67035 435.692616,1773.38131 431.996082,1774.99961 C429.41834,1776.12518 426.817996,1777.20329 424.235734,1778.32434 C421.379989,1779.56179 418.559277,1780.86592 415.703532,1782.09772 C401.644046,1787.9629 387.161905,1792.77484 373.134061,1798.72365 C368.361679,1800.74538 363.590426,1802.76712 358.813524,1804.78886 C346.470649,1810.02006 334.123253,1815.23317 321.784899,1820.47342 C322.235806,1820.28356 322.684453,1820.09483 323.13423,1819.90498 C321.333991,1820.67231 319.600429,1821.54926 317.843134,1822.41039 C314.364708,1824.1191 310.890803,1825.8278 307.416897,1827.5365 C299.982016,1831.19122 292.552785,1834.84142 285.119033,1838.49727 C284.011542,1839.03971 282.867888,1839.54373 281.79543,1840.15285 C279.167964,1841.6491 276.537108,1843.14534 273.910772,1844.6461 C267.850083,1848.09854 261.775834,1851.53741 255.723056,1855.0068 C253.988363,1856.00015 252.341818,1857.19239 250.66476,1858.27389 C247.728779,1860.17584 244.789407,1862.0744 241.848905,1863.97747 C241.119995,1864.44533 240.392215,1864.91771 239.663305,1865.39009 C237.902621,1866.5247 236.057179,1867.50449 234.260331,1868.58147 C231.629475,1870.15343 228.950024,1872.32095 227.625555,1875.15409 C227.153177,1875.94855 226.844661,1876.79612 226.698879,1877.69228 C226.328209,1879.44505 226.367762,1880.85767 226.733912,1882.61045 C227.025476,1884.00046 227.546449,1885.31702 227.889997,1886.69347 C228.265188,1888.04506 228.950024,1889.21471 229.938856,1890.20806 C231.316439,1891.58903 233.558543,1892.71461 235.566718,1892.53831 C239.818128,1892.16764 244.074058,1891.89416 248.324338,1891.55852 C253.321609,1891.16073 258.297408,1890.54709 263.249475,1889.75715 C267.704301,1889.04293 272.127485,1888.16146 276.541628,1887.23253 C276.143835,1887.4382 275.747173,1887.64388 275.35051,1887.85069 C273.058682,1889.03841 270.833529,1890.36175 268.6581,1891.74386 C267.959702,1892.18572 267.245484,1892.59595 266.543696,1893.02877 C265.448636,1893.70005 264.473366,1894.55101 263.470973,1895.3545 C261.60519,1896.85188 260.685294,1899.19343 259.827554,1901.34965 C259.670471,1901.71806 259.515648,1902.0876 259.360825,1902.45827 C258.941561,1904.01215 258.941561,1905.5615 259.360825,1907.11538 C259.974466,1909.34844 261.431155,1911.13173 263.382826,1912.34658 C264.490317,1913.03481 265.567296,1913.76259 266.648794,1914.48698 C268.371056,1915.63967 270.224409,1916.38553 272.132005,1917.18451 C274.846489,1918.3146 277.910171,1918.77342 280.797558,1919.1972 C284.23191,1919.70462 287.679824,1920.04477 291.131128,1920.40188 C294.31912,1920.72848 297.492421,1921.07316 300.688324,1921.30257 C308.471274,1921.85518 316.284736,1922.1411 324.081247,1922.52081 C327.39242,1922.68015 330.704722,1922.8474 334.014764,1923.02257 C332.423593,1923.84867 330.831292,1924.67476 329.236731,1925.49634 C327.590186,1926.34391 325.952681,1927.20504 324.310656,1928.06617 C323.241588,1928.62218 322.182691,1929.18723 321.114753,1929.74775 C320.050206,1930.30828 319.026342,1930.91288 318.014909,1931.57059 C317.118745,1932.18875 316.254224,1932.84195 315.411174,1933.5313 C314.612199,1934.19693 314.010989,1934.88628 313.371357,1935.69882 C312.917059,1936.28986 312.461632,1936.87751 312.007335,1937.46855 C311.2174,1938.82805 310.819607,1940.2983 310.815086,1941.87365 C310.815086,1944.18243 311.742893,1946.42114 313.371357,1948.05413 C315.004341,1949.68372 317.243055,1950.6104 319.547315,1950.6104 C321.731784,1950.6104 324.248501,1949.73231 325.727793,1948.05413 C326.032918,1947.6812 326.354994,1947.32409 326.694022,1946.98167 C329.366692,1945.20629 332.38291,1943.88069 335.218313,1942.40818 L341.495979,1939.15012 C345.120188,1937.26965 348.788469,1935.45585 352.292887,1933.36744 C354.920353,1931.8 357.507136,1930.19301 359.899543,1928.28654 C360.332368,1927.96446 360.747113,1927.61527 361.140385,1927.24008 C361.93032,1926.52473 363.14856,1925.03752 363.563304,1924.26002 C364.079757,1923.35143 364.508062,1922.40215 364.85274,1921.4088 C365.117182,1920.57027 365.325119,1919.71818 365.563569,1918.87061 C366.198681,1916.59234 365.863043,1914.08579 364.671925,1912.04598 C363.461596,1909.98469 361.608243,1908.71785 359.37857,1907.97538 C358.081223,1907.54708 356.831341,1907.14589 355.48088,1906.921 C353.710024,1906.62492 351.931258,1906.46558 350.147971,1906.34692 C349.128627,1906.28024 348.108153,1906.20566 347.088809,1906.13898 C345.14618,1906.00676 343.212591,1905.86098 341.271091,1905.75475 C337.420864,1905.54794 333.567247,1905.32757 329.713631,1905.14563 C314.87438,1904.4461 299.986536,1904.02006 285.230913,1902.20852 C285.548469,1902.039 285.866025,1901.87062 286.182451,1901.70337 C288.474279,1900.48852 290.734465,1899.17309 293.073758,1898.06108 C297.825798,1895.80993 302.564278,1893.53957 307.315189,1891.29069 C311.555297,1889.59103 315.808967,1887.91736 320.050206,1886.23013 C323.405452,1884.89662 326.724535,1883.44445 330.160017,1882.32792 C336.132558,1880.39433 342.1051,1878.45622 348.077641,1876.51811 C350.068864,1875.87396 352.058958,1875.22529 354.050182,1874.58113 C359.13108,1872.93459 364.313686,1871.583 369.438657,1870.10032 C373.045914,1869.05385 375.628176,1865.76076 375.628176,1861.97269 C375.628176,1859.74867 374.732013,1857.58906 373.155533,1856.01371 C372.590487,1855.57636 372.02092,1855.13563 371.452483,1854.69828 C370.137055,1853.93434 368.719918,1853.55011 367.201073,1853.54558 C364.85274,1853.28114 362.407219,1853.81568 360.10296,1854.26545 C358.40782,1854.59657 356.738673,1855.07347 355.039013,1855.38199 C353.674991,1855.62948 352.315489,1855.87245 350.951467,1856.11542 C347.468521,1856.74149 343.981054,1857.36869 340.498107,1857.99589 C333.787616,1859.20509 327.096335,1860.47644 320.394884,1861.71729 C314.920714,1862.73211 309.464625,1863.8622 304.004016,1864.93918 C295.77581,1866.56878 287.543083,1868.16221 279.349909,1869.95905 C271.143174,1871.76494 262.94435,1873.60586 254.629126,1874.8128 C254.039218,1874.88513 253.449309,1874.95407 252.859401,1875.02074 C255.710625,1873.11427 258.559589,1871.20781 261.409684,1869.30134 C266.009162,1866.2241 270.918286,1863.59776 275.698579,1860.80756 L286.557642,1854.47678 C287.719377,1853.80212 288.858511,1853.08225 290.05867,1852.48217 C296.309214,1849.36085 302.560888,1846.23614 308.811432,1843.11483 C315.543395,1839.75506 322.28892,1836.41338 329.012973,1833.02762 C337.36662,1829.53111 345.663762,1825.88317 353.984636,1822.31434 C362.516838,1818.65171 371.05469,1815.01055 379.578981,1811.33774 C394.940334,1804.99566 410.687049,1799.64015 425.886799,1792.9048 C429.41834,1791.34188 432.927278,1789.74393 436.4769,1788.22169 C439.920293,1786.73788 443.336564,1785.21452 446.660168,1783.47982 C450.165716,1781.64794 453.370659,1779.41036 456.447902,1776.92415 C459.449429,1774.51028 461.149089,1770.97874 463.284965,1767.86194 C464.998186,1765.37234 464.340471,1761.47917 462.203466,1759.45631 C460.681231,1758.02222 459.183857,1756.52598 457.101096,1755.93833 C455.056758,1755.36424 452.995469,1755.38684 450.893496,1755.35972 C450.799698,1755.35859 450.70477,1755.35859 450.610972,1755.35859 C448.304453,1755.35859 446.010364,1755.66259 443.720796,1755.92138" transform="rotate(13 8085.268 378.71)"/>
</svg>
